<?xml version="1.0" encoding="UTF-8"?>
<!DOCTYPE svg PUBLIC "-//W3C//DTD SVG 1.1//EN" "http://www.w3.org/Graphics/SVG/1.1/DTD/svg11.dtd">
<!-- Creator: CorelDRAW 2017 -->
<svg xmlns="http://www.w3.org/2000/svg" xml:space="preserve" width="100.128mm" height="54.9157mm" version="1.1" style="shape-rendering:geometricPrecision; text-rendering:geometricPrecision; image-rendering:optimizeQuality; fill-rule:evenodd; clip-rule:evenodd"
viewBox="0 0 623.15 341.77"
 xmlns:xlink="http://www.w3.org/1999/xlink">
 <defs>
  <style type="text/css">
   <![CDATA[
    .str0 {stroke:white;stroke-width:2.2;stroke-linejoin:round;stroke-miterlimit:22.9256}
    .fil1 {fill:none}
    .fil0 {fill:#FEFEFE}
   ]]>
  </style>
 </defs>
 <g id="projekty">
  <metadata id="CorelCorpID_0Corel-Layer"/>
  <g id="_2882713477648">
   <path class="fil0" d="M134.03 322.5c-4.61,-1.12 -10.06,-5.79 -11.93,-8.39 0.99,-2.71 5.72,-12.45 7.38,-14.4 1.3,0.65 11.22,7 12.31,7.99 -1.63,4.82 -4.77,11.66 -7.76,14.8zm209.49 -36.58l0 3.82c-4.56,7.8 -2.24,3.76 -8.93,8.98 -7.14,5.57 0.45,10.27 -7.1,9.43 -5.22,-7.52 1.33,-11.33 3.17,-13.4 -10.56,1.8 -18.59,1.47 -23.33,-6.01 -7.55,-11.92 2.36,-19.03 4.2,-21.89 -10.2,1.19 -14.63,0.17 -18.94,-6.56 -4.94,-7.7 -1.74,-13.63 1.86,-19.66l-5.47 -1.54c-1.42,-0.45 -3.2,-1.32 -4.41,-2.06 -2.62,-1.62 -4.77,-4.1 -6.39,-7.02 -4.85,-8.75 -1.17,-13.88 2.18,-20.16 -1.42,-1.13 -2.84,-1.26 -4.32,-2.51 -6.9,-5.85 -4.27,0.17 -14.43,-11.89 -1.33,-1.57 -2.08,-1.83 -3.13,-3.32 -1.8,-2.54 -3.21,-5.47 -4.68,-8.09 -1.81,1.64 -4.67,8.43 -5.84,10.68l-27.97 53.45c-3.72,6.97 -7.77,14.02 -11.23,21.02 -3.63,7.34 -7.59,14.26 -11.26,21.5 -9.6,18.95 -27.14,44.44 -53.04,44.04 -10.49,-0.17 -17.94,-4.03 -24.19,-8.85 -10.1,-7.79 -7.41,-12.11 -15.64,-16.62 -16.89,-9.25 -35.71,-19.7 -51.97,-29.92l-4.57 -2.91c-1.54,-0.93 -3.31,-2.07 -4.86,-3.08 -7.33,-4.81 -13.04,-8.45 -18.71,-13.56 -2.65,-2.38 -5.3,-5.58 -7.7,-8.68 -11.92,-15.4 -12.88,-24.67 -16.83,-31.1l0 -11.38c4.3,-2.5 8.96,-7.51 11.95,-11.65 1.53,-2.12 3.33,-5.95 5.93,-6.05 3.24,-0.13 4.1,3.98 5.41,6.56 7.22,14.19 14.64,23.8 25.64,34.43 6.47,6.25 20.96,19.34 29.46,18.21 2.54,-0.34 6.6,-2.8 5.12,-6.1 -2.42,-5.41 -16.39,-0.39 -14.97,-9.44 1.94,-2.07 5.75,-4.17 9.64,-5.06 6.51,-1.49 9.21,1.25 13.02,1.06l11.77 6.86c9.32,5.98 7.01,4.29 6.95,9.91l3.74 0.4 6.92 -11.11c12.29,-18.75 21.34,-36.58 32.35,-56.01 1.88,-3.31 11.77,-20.97 12.39,-23.19 1.17,-0.88 8.08,-14.35 9.49,-16.99 6.34,-11.91 12.99,-23.22 20.03,-34.58 3.53,-5.7 7.52,-10.77 11.02,-15.94 -10.24,2.48 -46.49,20.77 -55.13,25.95l-38.18 22.88c-2.28,1.34 -4.31,2.37 -6.69,3.73l-6.82 3.61c-23.31,12.19 -50.6,22.15 -79.2,22.47 -4.19,0.05 -16.85,1.65 -15.31,-4.69 0.6,-2.49 14.7,-21.8 16.83,-24.48 21.11,-26.52 41.98,-34.75 73.22,-48.89 9.61,-4.35 18.51,-8.81 27.88,-13.34 18.41,-8.9 36.71,-17.33 55.15,-26.26 18.32,-8.87 36.66,-17.93 55.28,-26.63 4.65,-2.17 9.03,-4.23 13.89,-6.45 3.57,-1.63 3.31,-2.24 5.2,-4.73 3.65,-4.79 1.62,-2.05 4.96,-5.46 15.51,-15.84 45.88,-4.21 56.46,9.42 12,15.46 9.45,27.7 0.55,45.62l-20.52 40.53c-4.62,9.08 -8.77,17.95 -13.4,27.3 -1.8,3.62 -13.29,25.87 -12.81,28 0.82,3.56 5.41,8.52 6.74,13.68 2.01,7.83 1.05,29.3 11.83,28.53 4.47,-0.32 12.77,-6.12 13.28,1.71 0.23,3.54 -1.97,4.43 -4.27,5.89 -2.44,1.55 -4.02,2.61 -5.89,4.54 -9.79,10.15 -0.6,20.85 13.69,17.65 2.43,-0.55 6.02,-2.31 8.48,-1.66 2.62,0.69 4.23,4.11 2.42,6.61 -1.53,2.11 -8.09,3.94 -11.75,8.61 -6.64,8.48 -2.24,20.73 16.88,9.93 1.9,-1.08 4.21,-3.09 7.03,-2 3.12,1.21 2.73,4.31 1.75,7.29 -3.16,9.58 -20.05,15.34 -14.15,24.52 4.41,6.86 16.05,4.17 22.85,1.06 4.1,-1.87 4.7,-1.79 7.4,1.05zm-338.69 -72.58l6.49 -6.06c1.97,-1.95 3.76,-4.33 5.88,-6.16 1.31,1.83 2.48,4.69 3.55,6.87 2.87,5.88 8.35,14.12 12.12,19.15 4.22,5.63 14.77,17.84 19.87,21.83 6.61,5.17 16.13,14.52 29.48,11.83 10.73,-2.16 13.16,-12.24 9.86,-18.9 -1.97,-3.97 -3.03,-3.19 -5.18,-5.74 5.42,0.44 11.71,6.05 14.34,8.36 -0.83,2.71 -3.54,6.15 -1.83,9.41 1.74,3.32 6.17,2.43 9.96,2.3 -1.76,7.16 -4.54,9.11 -6.27,22.03 -1.38,10.27 0.4,15.82 2.01,24.89 -2.22,-1.01 -4.6,-2.87 -6.89,-4.34 -17.3,-11.12 -34.08,-21.07 -51.62,-31.78 -23.97,-14.64 -32.54,-27.24 -41.76,-53.69zm259.76 -50.96c2.1,1.78 5.27,9.08 5.88,12.82 0.46,2.85 0.53,5.93 0.52,8.85l-0.29 7.04c-0.67,2.3 0.03,0.61 -0.85,1.63l-6.19 -8.24c-2.11,-2.55 -4.4,-5.26 -6.37,-7.94l7.29 -14.16zm-126.56 161.47c0.17,-1.26 0.79,-1.58 2.03,-3.22 0.87,-1.15 1.58,-1.97 2.4,-3.06 1.58,-2.1 3.29,-4.52 4.71,-6.72 1.4,-2.17 3.97,-4.77 0.98,-7.38 -1.48,-1.29 -5.36,-3.3 -7.11,-4.3 -3.47,-1.99 -11.03,-8.19 -14.9,-5.39 -3.18,2.3 -5.16,10.68 -7.33,14.03 -0.69,1.06 -0.29,0.45 -0.65,0.84 -4.11,-5.13 -6.59,-16.8 -6.45,-24.83 0.16,-9.2 2.74,-17.95 6.04,-25.22 5.33,-11.72 15.57,-28.33 22.19,-40.36l55.95 -100.92c1.66,-2.95 12.3,-22.6 13.12,-25.49 1.17,-4.09 0.34,0.14 3.22,-3.83l18.61 -28.55c3.85,-6.34 7.94,-12.86 12.06,-19.22 4.18,-6.46 8.1,-12.98 12.16,-19.12 3.92,-5.93 8.4,-12.59 17.94,-13.43 15.64,-1.39 34.69,8.3 39.92,23.28 3.38,9.7 -0.14,17.32 -4,24.65 -7.23,13.74 -14.06,27.59 -21.3,41.26 -7.45,14.06 -14.28,27.05 -21.92,40.63 -15.49,27.54 -28.9,54.29 -43.69,81.9 -9.78,18.25 -34.92,66.23 -44.57,81.02 -7.52,11.52 -18.26,25.74 -39.42,23.42zm-5.17 -208.13c-1.23,1.3 -14.97,8.79 -18.29,10.64 -6.17,3.45 -12.2,7.06 -18.53,10.26 -6.44,3.25 -33.75,17.4 -40.1,17.44 -2.3,2.19 -19.21,5.73 -23.67,6.12 -4.14,1.06 -13.76,1.74 -18.39,1.4l2.35 -3.12c1.13,-2.45 3.27,-5.38 4.79,-7.5 23.1,-32.17 38.01,-38.31 74.55,-56.51 4.14,-2.06 30.47,-14.09 33.26,-14.79 1.59,-1.39 14.89,-7.12 18.22,-8.7 6.06,-2.87 11.91,-5.86 18.06,-8.73 5.14,-2.41 34.11,-16.77 37,-16.99 1.2,-1.18 3.59,-2.1 5.25,-2.83l25.73 -11.99c2.41,-1.17 8.11,-4.11 10.37,-4.72l-16.73 26.64c-5.54,8.71 -10.63,17.93 -16.03,26.63 -7.26,1.87 -14.22,4.82 -20.97,7.86 -6.52,2.94 -12.87,5.88 -19.24,9.05l-37.61 19.84z"/>
   <path class="fil0" d="M254.81 49.43c8.19,5.76 2.17,-10.42 17.85,-15.19 10.39,-3.16 20.17,4.83 19.03,14.6 -1.15,9.76 -10.5,16.39 -20.55,10.51 -2.61,-1.52 -7.51,-8.56 -10.24,-3.07 -1.28,2.57 0.68,4.87 2,6.33 1.83,2.02 2.56,2.88 4.72,4.22 19.46,12.1 39.02,-11.48 26.85,-29.83 -8.45,-12.74 -27.46,-11.34 -35.23,-0.8 -2.04,2.76 -5.31,8.46 -4.43,13.22z"/>
   <path class="fil0" d="M49.46 126.3c1.29,1.83 2.77,1.12 5.15,0.13 1.93,-0.8 3.79,-1.42 5.81,-2.11 2.69,-0.92 9.31,-3.72 11.49,-3.67l0.64 -0.49c3.31,-2.13 17.8,-5.93 24.31,-13.5 4.58,-5.33 5.71,-5.47 4.57,-7.7 -2.52,-0.75 -12.69,3.07 -15.3,4.4 -9.67,4.91 -20.53,13.15 -31.87,18.27 -2.99,1.35 -5.09,1.3 -4.79,4.67z"/>
  </g>
  <g id="_2882713480432">
   <g>
    <path class="fil1 str0" d="M507.74 175.09c-2.48,-10.46 -17.37,-24.84 -22.86,-56.35 -2.03,-11.64 -2.63,-24.26 -1.45,-36.1 1.7,-17.06 4.65,-17.19 10.86,-27.45 -23.82,8.4 -15.9,75.49 4.95,109.11 4.27,6.88 3.58,7.42 8.51,10.79z"/>
    <path id="1" class="fil0" d="M507.74 175.09c-2.48,-10.46 -17.37,-24.84 -22.86,-56.35 -2.03,-11.64 -2.63,-24.26 -1.45,-36.1 1.7,-17.06 4.65,-17.19 10.86,-27.45 -23.82,8.4 -15.9,75.49 4.95,109.11 4.27,6.88 3.58,7.42 8.51,10.79z"/>
   </g>
   <g>
    <path class="fil1 str0" d="M526.47 194.34l-3.07 -0.22 1.3 5.27c3.18,-3 4.6,4.49 1.77,-5.05z"/>
    <path id="1" class="fil0" d="M526.47 194.34l-3.07 -0.22 1.3 5.27c3.18,-3 4.6,4.49 1.77,-5.05z"/>
   </g>
   <g>
    <path class="fil1 str0" d="M579.02 117.2c5.53,4.48 6.46,1.93 9.64,5.97l7.39 23.82c1.23,8.13 1.24,5.43 -3.24,8.23 2.91,1.35 5.93,-3.99 5.7,15.19l0.33 1 -4.73 15.79c1.06,5.9 -4.38,11 -12.85,12.68 -13.08,4.84 -27.65,-6 -35.97,-12.22 -0.01,5.27 -1.43,2.05 0.73,5.1 8.15,3 10.84,7.57 20.73,10.44 58.87,17.06 31.28,-105.87 -8.65,-124.95 2.76,7.33 8.95,9.61 11.79,14.99 5.74,10.9 -4.77,-3.83 1.22,3.58 0.86,1.06 8.82,4.42 14.62,21.11l-6.7 -0.73z"/>
    <path id="1" class="fil0" d="M579.02 117.2c5.53,4.48 6.46,1.93 9.64,5.97l7.39 23.82c1.23,8.13 1.24,5.43 -3.24,8.23 2.91,1.35 5.93,-3.99 5.7,15.19l0.33 1 -4.73 15.79c1.06,5.9 -4.38,11 -12.85,12.68 -13.08,4.84 -27.65,-6 -35.97,-12.22 -0.01,5.27 -1.43,2.05 0.73,5.1 8.15,3 10.84,7.57 20.73,10.44 58.87,17.06 31.28,-105.87 -8.65,-124.95 2.76,7.33 8.95,9.61 11.79,14.99 5.74,10.9 -4.77,-3.83 1.22,3.58 0.86,1.06 8.82,4.42 14.62,21.11l-6.7 -0.73z"/>
   </g>
   <g>
    <path class="fil1 str0" d="M558.08 78.25c-1.34,-2.97 1.18,-0.9 -2.24,-3.39 -2.39,-1.75 -2.48,-1.41 -5.55,-2.17 1.16,1.64 -0.25,1.15 2.6,3.22 2.22,1.61 2.44,1.38 5.19,2.35z"/>
    <path id="1" class="fil0" d="M558.08 78.25c-1.34,-2.97 1.18,-0.9 -2.24,-3.39 -2.39,-1.75 -2.48,-1.41 -5.55,-2.17 1.16,1.64 -0.25,1.15 2.6,3.22 2.22,1.61 2.44,1.38 5.19,2.35z"/>
   </g>
   <g>
    <path class="fil1 str0" d="M484.51 142.09c-0.56,-12.66 -7.48,-27.89 -7.72,-46.25 -0.18,-14.14 3.33,-40.86 15.33,-44.16 1.97,-0.55 3.53,-0.9 6.18,-1.93 23.49,-9.09 30.45,-0.8 46.03,1.8 -4.66,-5.35 -17.14,-8.07 -24.92,-8.43 -16.28,-0.74 -17.4,2.38 -28.61,7.01 18.17,-24.9 63.78,-2.31 86.15,20.96l6.62 7.02c3.23,2.52 0.06,0.52 3.61,2.03 -11.13,-25.5 -102.98,-86.27 -112.46,4.03 -1.55,14.74 0.47,31.66 4.45,45.96 2.67,9.63 1.98,8.28 5.34,11.97z"/>
    <path id="1" class="fil0" d="M484.51 142.09c-0.56,-12.66 -7.48,-27.89 -7.72,-46.25 -0.18,-14.14 3.33,-40.86 15.33,-44.16 1.97,-0.55 3.53,-0.9 6.18,-1.93 23.49,-9.09 30.45,-0.8 46.03,1.8 -4.66,-5.35 -17.14,-8.07 -24.92,-8.43 -16.28,-0.74 -17.4,2.38 -28.61,7.01 18.17,-24.9 63.78,-2.31 86.15,20.96l6.62 7.02c3.23,2.52 0.06,0.52 3.61,2.03 -11.13,-25.5 -102.98,-86.27 -112.46,4.03 -1.55,14.74 0.47,31.66 4.45,45.96 2.67,9.63 1.98,8.28 5.34,11.97z"/>
   </g>
   <g>
    <path class="fil1 str0" d="M510.01 189.97l1.67 2.59c3.62,4.19 -0.33,0.76 3.89,1.71 -0.91,-7.75 0.82,-0.85 -8.05,-13.22 -4.2,-5.85 -5.41,-7.39 -8.38,-12.91l-14.64 -26.06c1.65,13.85 18.48,38.41 25.5,47.88z"/>
    <path id="1" class="fil0" d="M510.01 189.97l1.67 2.59c3.62,4.19 -0.33,0.76 3.89,1.71 -0.91,-7.75 0.82,-0.85 -8.05,-13.22 -4.2,-5.85 -5.41,-7.39 -8.38,-12.91l-14.64 -26.06c1.65,13.85 18.48,38.41 25.5,47.88z"/>
   </g>
   <g>
    <path class="fil1 str0" d="M542.22 215.86l4.22 -0.19 -2.76 -4.74c-0.1,-0.61 -0.53,-0.72 -0.81,-1.07 -0.53,-0.16 -1.23,-0.34 -1.6,-0.44 -0.36,-0.11 -1.21,-0.35 -1.57,-0.45 -0.43,-0.13 -2.35,-0.72 -2.96,-0.93 1.38,4.24 0.08,1.32 2.77,4.85 0.35,0.45 1.47,2.82 1.82,1.99 0.13,-0.3 0.63,0.63 0.9,0.99z"/>
    <path id="1" class="fil0" d="M542.22 215.86l4.22 -0.19 -2.76 -4.74c-0.1,-0.61 -0.53,-0.72 -0.81,-1.07 -0.53,-0.16 -1.23,-0.34 -1.6,-0.44 -0.36,-0.11 -1.21,-0.35 -1.57,-0.45 -0.43,-0.13 -2.35,-0.72 -2.96,-0.93 1.38,4.24 0.08,1.32 2.77,4.85 0.35,0.45 1.47,2.82 1.82,1.99 0.13,-0.3 0.63,0.63 0.9,0.99z"/>
   </g>
   <g>
    <path class="fil1 str0" d="M536.73 208.03c-0.86,-3.18 3.57,-2.61 -1.21,-3.53l-2.84 -0.13 4.05 3.66z"/>
    <path id="1" class="fil0" d="M536.73 208.03c-0.86,-3.18 3.57,-2.61 -1.21,-3.53l-2.84 -0.13 4.05 3.66z"/>
   </g>
   <g>
    <path class="fil1 str0" d="M541.99 186.19c-0.32,-2.48 3.78,-2.01 -0.79,-2.01 0,-2.96 0.53,-2.04 -2.69,-1.09l3.48 3.1z"/>
    <path id="1" class="fil0" d="M541.99 186.19c-0.32,-2.48 3.78,-2.01 -0.79,-2.01 0,-2.96 0.53,-2.04 -2.69,-1.09l3.48 3.1z"/>
   </g>
   <g>
    <path class="fil1 str0" d="M532.68 204.37c-1.85,-4.66 1.47,-2.58 -5.08,-4.29l5.08 4.29z"/>
    <path id="1" class="fil0" d="M532.68 204.37c-1.85,-4.66 1.47,-2.58 -5.08,-4.29l5.08 4.29z"/>
   </g>
   <g>
    <path class="fil1 str0" d="M538.51 183.09c-1.89,-4.58 1.25,-2.55 -5.18,-4.34l5.18 4.34z"/>
    <path id="1" class="fil0" d="M538.51 183.09c-1.89,-4.58 1.25,-2.55 -5.18,-4.34l5.18 4.34z"/>
   </g>
   <g>
    <path class="fil1 str0" d="M455.53 333.63c4.64,6.08 47.33,-0.93 49.72,-1.07 -18.33,3.46 -30.95,7.22 -53.44,4.76 -13.95,-1.53 -38.59,-5.39 -47.73,-16.4 15.72,5.28 33.01,14.5 51.44,12.7zm-56 -17.34l-4.61 1.81c1.72,-1.15 0.85,-0.88 4.61,-1.81zm156.27 -90.38c-4.45,-1.73 1.2,2.09 -2.77,-1.23 -2.31,-1.93 -1.73,-1.6 -2.79,-3.08 -2.7,-0.98 -3.05,-0.85 -5.26,-2.45 -2.28,-1.66 -1.86,-2.07 -2.78,-3.28 -9.55,-2.89 -6.43,-6.38 -15.36,-9.52 -1.76,3.66 1,3.14 -6.71,1.45 -2.36,-0.52 -7.31,-1.97 -11.22,-2.91 -8.42,-2.03 -11.69,-2.66 -20.54,-2.96l-15.4 -1.6 -10.56 0.04 -2.93 0.04 -10.25 0.11 -1.15 0.11 -4.65 0.35 -6.42 1.41c-11.53,1.16 -17.84,4.39 -27.28,8.17l-3.94 1.94c-20.41,7.93 -46.91,29.59 -45.1,57.34 3.44,52.65 78.66,78.53 132.66,68.87 23.42,-4.19 57.23,-22.37 62.79,-37.83l-8.54 7.07c-13.79,12.55 -40.75,21.43 -59.27,23.96 -10.85,1.48 -22.55,0.02 -32.8,1.73 -4.38,-2.76 -20.75,-5.21 -29.04,-7.6 -9.43,-2.72 -19.58,-8.56 -26.96,-9.74 -6.1,-7.7 -19.45,-7.66 -29.96,-26.2 -7.61,-13.42 -7.09,-32.19 0.7,-45.38 29.55,-50.05 130.54,-49.59 167.12,-27.67 49.67,29.76 30.07,53.18 26.58,72.25l4.19 -5.45c12.58,-21.16 2.79,-36.6 -4.22,-51.21 61.51,10.75 68.45,-66.37 47.35,-116.48 -3.8,-9.03 -14.59,-31.96 -24.11,-36.01 3.77,10.95 34.94,40.43 31.79,95.02 -3.21,55.66 -44.51,64.34 -63.17,50.74z"/>
    <path id="1" class="fil0" d="M455.53 333.63c4.64,6.08 47.33,-0.93 49.72,-1.07 -18.33,3.46 -30.95,7.22 -53.44,4.76 -13.95,-1.53 -38.59,-5.39 -47.73,-16.4 15.72,5.28 33.01,14.5 51.44,12.7zm-56 -17.34l-4.61 1.81c1.72,-1.15 0.85,-0.88 4.61,-1.81zm156.27 -90.38c-4.45,-1.73 1.2,2.09 -2.77,-1.23 -2.31,-1.93 -1.73,-1.6 -2.79,-3.08 -2.7,-0.98 -3.05,-0.85 -5.26,-2.45 -2.28,-1.66 -1.86,-2.07 -2.78,-3.28 -9.55,-2.89 -6.43,-6.38 -15.36,-9.52 -1.76,3.66 1,3.14 -6.71,1.45 -2.36,-0.52 -7.31,-1.97 -11.22,-2.91 -8.42,-2.03 -11.69,-2.66 -20.54,-2.96l-15.4 -1.6 -10.56 0.04 -2.93 0.04 -10.25 0.11 -1.15 0.11 -4.65 0.35 -6.42 1.41c-11.53,1.16 -17.84,4.39 -27.28,8.17l-3.94 1.94c-20.41,7.93 -46.91,29.59 -45.1,57.34 3.44,52.65 78.66,78.53 132.66,68.87 23.42,-4.19 57.23,-22.37 62.79,-37.83l-8.54 7.07c-13.79,12.55 -40.75,21.43 -59.27,23.96 -10.85,1.48 -22.55,0.02 -32.8,1.73 -4.38,-2.76 -20.75,-5.21 -29.04,-7.6 -9.43,-2.72 -19.58,-8.56 -26.96,-9.74 -6.1,-7.7 -19.45,-7.66 -29.96,-26.2 -7.61,-13.42 -7.09,-32.19 0.7,-45.38 29.55,-50.05 130.54,-49.59 167.12,-27.67 49.67,29.76 30.07,53.18 26.58,72.25l4.19 -5.45c12.58,-21.16 2.79,-36.6 -4.22,-51.21 61.51,10.75 68.45,-66.37 47.35,-116.48 -3.8,-9.03 -14.59,-31.96 -24.11,-36.01 3.77,10.95 34.94,40.43 31.79,95.02 -3.21,55.66 -44.51,64.34 -63.17,50.74z"/>
   </g>
   <g>
    <path class="fil1 str0" d="M550.25 221.59c7.11,2.25 4.16,2.22 5.55,4.32 5.22,-1.61 1.5,1.27 4.34,-2.53 -7.58,-3.12 -5.63,-5.42 -13.71,-7.71l3.81 5.92z"/>
    <path id="1" class="fil0" d="M550.25 221.59c7.11,2.25 4.16,2.22 5.55,4.32 5.22,-1.61 1.5,1.27 4.34,-2.53 -7.58,-3.12 -5.63,-5.42 -13.71,-7.71l3.81 5.92z"/>
   </g>
   <g>
    <path class="fil1 str0" d="M513.47 182.74c-0.82,-2.47 -0.54,-2.83 -2.34,-5.19 -2.2,-2.88 -1.46,-1.28 -3.4,-2.47 0.83,3.15 0.47,3.17 2.29,5.54 2.61,3.4 0.46,0.81 3.45,2.12z"/>
    <path id="1" class="fil0" d="M513.47 182.74c-0.82,-2.47 -0.54,-2.83 -2.34,-5.19 -2.2,-2.88 -1.46,-1.28 -3.4,-2.47 0.83,3.15 0.47,3.17 2.29,5.54 2.61,3.4 0.46,0.81 3.45,2.12z"/>
   </g>
   <g>
    <path class="fil1 str0" d="M542.31 291.71c-6.65,14.34 -22.58,23.88 -42.3,28.56 -43.32,10.53 -156.36,-14.51 -110.3,-71.59 30.88,-38.27 117.88,-37.88 150.57,-13.16l8.02 5.45c3.07,9.12 7.92,15.55 5.87,28.82 -1.32,8.5 -5.68,19 -11.85,21.92zm5.99 -50.74c-14.15,-29.3 -105.73,-35.54 -147.54,-6.48 -19.16,13.31 -19.09,24.44 -25.88,37.12 -4.75,-43.6 67.83,-65.9 113.99,-60.74 84.48,9.45 86.44,68.22 56.88,84.84 5.46,-10.11 10.35,-14.3 11.94,-28.02 1.01,-8.71 -0.8,-22.7 -9.39,-26.72zm-96.68 -31.51c-27.06,4.16 -37.46,7.01 -57.2,20.57 -37.96,26.07 -28.58,67.34 24.77,85.93 79.03,27.55 163.44,-14.85 144.43,-67.16 -11.99,-33 -71.88,-45.51 -111.99,-39.34z"/>
    <path id="1" class="fil0" d="M542.31 291.71c-6.65,14.34 -22.58,23.88 -42.3,28.56 -43.32,10.53 -156.36,-14.51 -110.3,-71.59 30.88,-38.27 117.88,-37.88 150.57,-13.16l8.02 5.45c3.07,9.12 7.92,15.55 5.87,28.82 -1.32,8.5 -5.68,19 -11.85,21.92zm5.99 -50.74c-14.15,-29.3 -105.73,-35.54 -147.54,-6.48 -19.16,13.31 -19.09,24.44 -25.88,37.12 -4.75,-43.6 67.83,-65.9 113.99,-60.74 84.48,9.45 86.44,68.22 56.88,84.84 5.46,-10.11 10.35,-14.3 11.94,-28.02 1.01,-8.71 -0.8,-22.7 -9.39,-26.72zm-96.68 -31.51c-27.06,4.16 -37.46,7.01 -57.2,20.57 -37.96,26.07 -28.58,67.34 24.77,85.93 79.03,27.55 163.44,-14.85 144.43,-67.16 -11.99,-33 -71.88,-45.51 -111.99,-39.34z"/>
   </g>
   <g>
    <path class="fil1 str0" d="M554.31 56.98c3.88,6.19 12.91,11.51 18.23,16.59 4.73,4.52 11.71,13.28 15.41,19.42 16.73,27.72 33.19,73.86 19.08,106.08 -3.9,8.91 -8.55,15.65 -14.93,19.93 -2.51,1.68 -7.78,4.81 -11.35,5.96 -6.18,1.99 -5.63,0.03 -10.78,4.29 54.24,0.72 56.44,-83.14 20.03,-138.25 -4.74,-7.17 -9.57,-13.97 -15.38,-19.48 -4.25,-4.03 -13.85,-12.91 -20.33,-14.53z"/>
    <path id="1" class="fil0" d="M554.31 56.98c3.88,6.19 12.91,11.51 18.23,16.59 4.73,4.52 11.71,13.28 15.41,19.42 16.73,27.72 33.19,73.86 19.08,106.08 -3.9,8.91 -8.55,15.65 -14.93,19.93 -2.51,1.68 -7.78,4.81 -11.35,5.96 -6.18,1.99 -5.63,0.03 -10.78,4.29 54.24,0.72 56.44,-83.14 20.03,-138.25 -4.74,-7.17 -9.57,-13.97 -15.38,-19.48 -4.25,-4.03 -13.85,-12.91 -20.33,-14.53z"/>
   </g>
   <g>
    <path class="fil1 str0" d="M528.5 165.05c-7.34,-4.61 -13.67,-10.22 -16.22,-20.25l17.16 3.9c-3,-2.85 -10.57,-4.5 -14.48,-5.96 -10.03,-3.73 -4.42,-2.69 -9.79,-10.18 -3.93,-3.93 -3.23,6.27 -3.23,-7.72l3.87 0.32c-7.52,-5.81 -9.99,-28.36 -8.16,-40.78l17 5.85c-1.21,-1.49 0.8,-0.56 -2.66,-2.61l-13.19 -5.97 5.03 -11.25 11.62 2.02 -6.58 -4.77c-0.22,-0.2 -0.66,-0.71 -0.96,-1.08 25.22,-9.14 25.31,2.21 42.39,6.11 -0.3,-0.37 -0.73,-1.46 -0.88,-1.13 -1.32,2.92 2.17,-3.01 -16.02,-9.23 -39.92,-13.66 -50.36,32.42 -24.63,82.7 4.63,9.05 15.69,28.25 25.27,32.92l-5.53 -12.89z"/>
    <path id="1" class="fil0" d="M528.5 165.05c-7.34,-4.61 -13.67,-10.22 -16.22,-20.25l17.16 3.9c-3,-2.85 -10.57,-4.5 -14.48,-5.96 -10.03,-3.73 -4.42,-2.69 -9.79,-10.18 -3.93,-3.93 -3.23,6.27 -3.23,-7.72l3.87 0.32c-7.52,-5.81 -9.99,-28.36 -8.16,-40.78l17 5.85c-1.21,-1.49 0.8,-0.56 -2.66,-2.61l-13.19 -5.97 5.03 -11.25 11.62 2.02 -6.58 -4.77c-0.22,-0.2 -0.66,-0.71 -0.96,-1.08 25.22,-9.14 25.31,2.21 42.39,6.11 -0.3,-0.37 -0.73,-1.46 -0.88,-1.13 -1.32,2.92 2.17,-3.01 -16.02,-9.23 -39.92,-13.66 -50.36,32.42 -24.63,82.7 4.63,9.05 15.69,28.25 25.27,32.92l-5.53 -12.89z"/>
   </g>
   <g>
    <path class="fil1 str0" d="M518.52 199.85c4.24,4.74 1.43,4.02 8.33,6.49 -1.96,-5.46 -7.51,-9.97 -11.28,-12.07l-1.58 3 4.53 2.58z"/>
    <path id="1" class="fil0" d="M518.52 199.85c4.24,4.74 1.43,4.02 8.33,6.49 -1.96,-5.46 -7.51,-9.97 -11.28,-12.07l-1.58 3 4.53 2.58z"/>
   </g>
   <g>
    <path class="fil1 str0" d="M523.39 194.13l-0.49 -3.17c-5.85,-4.08 -0.58,-0.57 -4.82,-4.92 -2.97,-3.05 -1.38,-1.85 -4.61,-3.29 2.64,6.05 5.26,8.84 9.92,11.38z"/>
    <path id="1" class="fil0" d="M523.39 194.13l-0.49 -3.17c-5.85,-4.08 -0.58,-0.57 -4.82,-4.92 -2.97,-3.05 -1.38,-1.85 -4.61,-3.29 2.64,6.05 5.26,8.84 9.92,11.38z"/>
   </g>
   <g>
    <path class="fil1 str0" d="M554.31 56.98c-1.12,-1.38 2.78,-0.41 -3.76,-3.92 -4.53,-2.43 0.16,-0.8 -6.21,-1.51 2.46,2.49 0.97,3.44 9.97,5.43z"/>
    <path id="1" class="fil0" d="M554.31 56.98c-1.12,-1.38 2.78,-0.41 -3.76,-3.92 -4.53,-2.43 0.16,-0.8 -6.21,-1.51 2.46,2.49 0.97,3.44 9.97,5.43z"/>
   </g>
   <g>
    <path class="fil1 str0" d="M556.15 300.86c2.95,-1.63 0.49,0.61 3.37,-2.38 0.37,-0.39 1.38,-1.72 1.7,-2.19 3.08,-4.62 1.65,-2.27 2.75,-7 -0.36,0.31 -0.94,0.29 -1.09,0.92 -0.15,0.62 -0.85,0.72 -1.05,0.93l-5.69 9.72z"/>
    <path id="1" class="fil0" d="M556.15 300.86c2.95,-1.63 0.49,0.61 3.37,-2.38 0.37,-0.39 1.38,-1.72 1.7,-2.19 3.08,-4.62 1.65,-2.27 2.75,-7 -0.36,0.31 -0.94,0.29 -1.09,0.92 -0.15,0.62 -0.85,0.72 -1.05,0.93l-5.69 9.72z"/>
   </g>
   <g>
    <path class="fil1 str0" d="M399.53 316.28c-3.76,0.94 -2.89,0.66 -4.61,1.81l4.61 -1.81z"/>
    <path id="1" class="fil0" d="M399.53 316.28c-3.76,0.94 -2.89,0.66 -4.61,1.81l4.61 -1.81z"/>
   </g>
  </g>
 </g>
</svg>
