<?xml version="1.0" encoding="UTF-8"?>
<!DOCTYPE svg PUBLIC "-//W3C//DTD SVG 1.1//EN" "http://www.w3.org/Graphics/SVG/1.1/DTD/svg11.dtd">
<!-- Creator: CorelDRAW 2017 -->
<svg xmlns="http://www.w3.org/2000/svg" xml:space="preserve" width="37.4018mm" height="53.6353mm" version="1.1" style="shape-rendering:geometricPrecision; text-rendering:geometricPrecision; image-rendering:optimizeQuality; fill-rule:evenodd; clip-rule:evenodd"
viewBox="0 0 74.44 106.75"
 xmlns:xlink="http://www.w3.org/1999/xlink">
 <defs>
  <style type="text/css">
   <![CDATA[
    .str1 {stroke:#FEFEFE;stroke-width:0.4;stroke-miterlimit:22.9256}
    .str0 {stroke:#FEFEFE;stroke-width:0.15;stroke-miterlimit:22.9256}
    .fil0 {fill:#FEFEFE}
   ]]>
  </style>
 </defs>
 <g id="projekty">
  <metadata id="CorelCorpID_0Corel-Layer"/>
  <g id="_2882824584352">
   <path class="fil0 str0" d="M68.37 50.57c-0.67,0.97 -3.27,3.55 -4.13,4.15 -0.76,1.11 -2.1,2.4 -2.97,2.9 -1.3,1.02 -2.85,1.39 -4.5,1.26l-2.46 -0.68c-1.84,-0.93 -2.56,-2.08 -3.53,-4.09l-0.24 -1.69c0.22,-3.84 2.69,-6.24 5.45,-8.63 1.88,-1.63 5.47,-5.87 7.52,-6.65 6.65,-2.53 14.1,6.24 4.86,13.44zm-14 -25.31c6.33,-1.62 11.76,6.13 6.01,11.7 -2.89,2.8 -9.31,9.7 -11.97,10.43 -4.96,1.36 -9.63,-3.18 -8.3,-8.28 0.69,-2.65 6,-7.24 7.85,-8.97 1.49,-1.39 3.82,-4.22 6.41,-4.88zm-17.01 -6.05c1.13,-1.26 4.38,-4.57 6.16,-5.3 6.95,-2.83 12.44,5.94 7.4,10.94l-5.97 5.41c0.39,-7.78 -5.86,-8.95 -7.59,-11.06zm-14.47 -7.68c1.72,-2.22 5.06,-4.39 7.05,-6.48 7.55,-7.94 15.38,0.33 12.34,6.44 -0.66,1.32 -5.74,6.01 -6.74,6.56 -4.33,-1.97 -6.62,-5.94 -12.65,-6.53zm4.29 -6.39c-0.25,0.71 -4.32,4.02 -5.05,4.78 -1.62,1.69 -3.92,2.83 -5.88,4.45l-10.65 9.99c-4.24,3.65 -7.35,6.15 -4.29,14.06 1.91,4.95 6.06,13.81 7.48,19.27 1.59,3.49 2.94,7.73 4.49,11.51 1.22,2.98 0.48,3.13 -0.44,6.07l-9.96 31.41c2.25,-0.05 1.39,0.53 2.86,-3.99l9.55 -29.7c0.91,-2.74 -1.23,-6.22 -2.25,-8.84 -3.12,-8.01 -6.46,-16.15 -9.42,-24.2 -2.02,-5.51 -3.64,-8.06 0.83,-12.31l11.16 -10.38c1.61,-1.35 3.81,-4.82 8.71,-3.95 2.3,0.41 12.85,7.76 15.82,9.87 6.65,4.71 2.29,15.05 -5.69,13.63 -2.93,-0.52 -8.05,-4.98 -10.7,-6.35 -0.6,0.25 -4.74,4.12 -5.14,4.69 0.48,1.73 2.79,5.73 3.75,7.59 1.02,1.98 3.33,5.73 3.67,7.48l2.13 4.11 1.83 0.43 -4.55 -9.57c4.77,0.59 12.84,4.58 15.82,9.02 2.18,1.81 3.07,5.88 4.61,7.08l1.24 -0.43 -0.74 -1.99c-0.63,-0.91 -1.52,-2.31 -1.96,-3.45l-2.1 -2.68c-1.06,-0.97 -2.41,-2.39 -3.63,-3.32 -2.8,-2.13 -5.25,-3.67 -8.74,-4.83 -1.68,-0.56 -3.75,-0.77 -5.49,-1.29l-3.92 -7.95 3.22 -2.83c1.41,0.52 5.01,3.18 6.45,4.14 3.53,2.34 4.08,1.71 8.46,1.56 -0.73,3.63 0.01,6.8 2.14,8.79 2.45,2.3 4.98,2.34 8.83,1.8l-0.51 1.39c-0.21,1.94 -0.31,3.71 0.56,5.34 1.56,2.9 3.92,4.88 7.4,5 1.52,0.05 2.3,-0.36 3.55,-0.51 0.82,-0.84 0.77,-0.28 2.04,-1.57 0.67,-0.67 1.2,-1.28 1.99,-1.56l-0.08 2.84c-0.91,3.51 -8.01,11.88 -10.54,15.14 -1.79,2.3 -1.94,2.07 -3.01,5.55 -1.49,4.84 -7.57,23.15 -8.19,26.25 2.24,-0.02 1.72,-0.32 2.34,-2.32l3.37 -10.76c1.58,-4.9 2.95,-9.51 4.54,-14.37 0.75,-2.29 10.68,-13.78 12.02,-16.29 1.61,-3.03 0.42,-6.33 1.31,-8.09 0.55,-0.62 1.16,-1.28 1.86,-1.78 1.29,-2.17 8.49,-5.98 5.26,-13.14 -1.12,-2.49 -2.6,-2.95 -2.9,-3.58 -2.61,-0.97 -3.58,-1.48 -6.9,-1.02 1.84,-7.29 -2.12,-12.87 -9.97,-11.6 2.26,-7.51 -2.44,-12.66 -9.91,-11.65 1.4,-5.5 -0.19,-9.57 -4.61,-11.32 -4.75,-1.89 -7.48,0.79 -9.66,2.51l-2.42 1.91z"/>
   <path class="fil0 str1" d="M30.26 78.45c11.7,2.45 20.54,9.67 19.74,16.12 -0.2,1.66 -1.03,3.11 -2.35,4.31 -1.49,-5.65 -9.45,-11.31 -19.54,-13.43 -8.68,-1.82 -16.49,-0.51 -20.27,2.92 -0.24,-0.9 -0.31,-1.81 -0.2,-2.69 0.79,-6.45 10.92,-9.69 22.62,-7.23z"/>
  </g>
 </g>
</svg>
