<?xml version="1.0" encoding="UTF-8"?>
<!DOCTYPE svg PUBLIC "-//W3C//DTD SVG 1.1//EN" "http://www.w3.org/Graphics/SVG/1.1/DTD/svg11.dtd">
<!-- Creator: CorelDRAW 2017 -->
<svg xmlns="http://www.w3.org/2000/svg" xml:space="preserve" width="69.2856mm" height="73.973mm" version="1.1" style="shape-rendering:geometricPrecision; text-rendering:geometricPrecision; image-rendering:optimizeQuality; fill-rule:evenodd; clip-rule:evenodd"
viewBox="0 0 212.54 226.92"
 xmlns:xlink="http://www.w3.org/1999/xlink">
 <defs>
  <style type="text/css">
   <![CDATA[
    .str0 {stroke:#FEFEFE;stroke-width:2.16;stroke-miterlimit:22.9256}
    .fil0 {fill:none}
   ]]>
  </style>
 </defs>
 <g id="projekty">
  <metadata id="CorelCorpID_0Corel-Layer"/>
  <g id="_2882709913616">
   <path class="fil0 str0" d="M157.65 128.4c-0.84,6.49 -3.65,12.81 -7.55,17.06l-13.76 15.82c-0.4,0.41 -0.73,0.82 -1.16,1.32 -0.36,0.41 -0.8,0.9 -1.14,1.34 -0.33,0.43 -0.79,0.92 -1.14,1.33l-17.22 19.79c-1.49,1.84 -3.09,3.46 -4.61,5.29 -3.24,3.88 -7.05,8 -10.35,11.94l-10.39 11.9c-1.18,1.17 -0.76,1.01 -2.46,2.49 -1.72,1.5 -3.16,2.71 -5.64,4.12 -2.08,1.18 -4.45,2.2 -6.99,2.91 -9.5,2.68 -19.58,0.79 -27.38,-5 -0.5,-0.37 -1,-0.74 -1.4,-1.08l-9.29 -8.05c-0.93,-0.81 -1.7,-1.57 -2.64,-2.32 -0.44,-0.35 -0.83,-0.72 -1.26,-1.08 -2.85,-2.34 -6.23,-5.59 -9.26,-8.07 -3.15,-2.58 -7.58,-6.81 -10.6,-9.21 -11.85,-9.45 -15.61,-28.1 -5.86,-42.26 2.11,-3.06 26.86,-31.21 27.43,-31.87l34.51 -39.64c3.93,-4.38 8.47,-7.66 15.07,-9.56 5.75,-1.65 11.67,-1.59 17.43,0.03 5.57,1.57 9.24,4.22 12.68,7.13l7.93 6.93c0.9,0.78 1.78,1.51 2.67,2.29 1.78,1.56 3.49,3.01 5.22,4.55l12.59 10.94c0.26,0.22 0.38,0.39 0.64,0.6 4.76,3.93 8.31,7.23 11.28,13.49 2.22,4.69 3.42,11.02 2.66,16.86zm-88.75 97.44l-4.12 0c-0.58,-0.21 -2.67,-0.31 -3.51,-0.44 -3.22,-0.52 -6.23,-1.55 -9.06,-2.92 -4.55,-2.2 -9.54,-6.82 -13.48,-10.33 -1.38,-1.23 -2.76,-2.41 -4.19,-3.65 -6.95,-5.98 -14.23,-12.52 -21.2,-18.42 -8.4,-7.12 -12.61,-15.75 -12.25,-27.4 1.01,-10.06 4.09,-15.02 8.97,-20.64 2.35,-2.72 4.63,-5.2 6.93,-7.93l6.89 -7.97c1.22,-1.37 2.31,-2.58 3.46,-3.96l3.46 -3.97c0.57,-0.71 1.14,-1.27 1.73,-1.98l3.44 -3.99c3.19,-3.38 7.13,-8.37 10.37,-11.91 0.59,-0.65 1.09,-1.31 1.73,-1.99 1.16,-1.24 2.29,-2.73 3.45,-3.98l13.83 -15.89c2.9,-3.05 3.3,-4.33 7.23,-7.63 2.47,-2.08 5.73,-4 9.47,-5.39 9.89,-3.66 21.07,-2.03 29.48,3.69 3.34,2.28 10.47,9.13 12.11,10.18 0.08,-2.17 0.24,-4.05 1.39,-5.54 0.68,-0.88 2.86,-3.04 3.15,-3.7 -0.73,-1.39 -1.59,-2.69 -2.34,-4.24 -2.29,-4.76 -3.74,-9.78 -4.29,-15.23 -2.1,-20.84 10.72,-40.76 30.66,-47.22 15.59,-5.05 30.45,-1.21 41.09,6.66 8.95,6.62 15.47,16.89 17.42,28.27 0.19,1.09 0.5,5.26 0.72,5.78l0 4.69c-0.02,0.04 -0.03,0.09 -0.04,0.12 -0.01,0.03 -0.03,0.08 -0.04,0.13 -0.24,0.99 0.11,-0.69 -0.06,0.26l-0.26 2.62c-1.66,12.86 -8.61,24.01 -19.15,31.36 -10.65,7.43 -24.83,9.91 -37.72,6.25 -6.62,-1.88 -3.9,-2.64 -7.12,-0.05 -0.68,0.55 -1.41,1.08 -2.12,1.6 -0.77,0.56 -1.4,1 -2.22,1.5 -1.4,0.85 -2.07,0.95 -2.47,1.18l8.01 7.06c11.72,10.21 14.33,29.39 4.14,43.28l-41.86 48.26c-1.17,1.31 -2.31,2.77 -3.5,4.06 -1.18,1.28 -2.3,2.66 -3.45,3.99 -2.38,2.75 -4.73,5.32 -7.05,8.08 -1.18,1.4 -2.32,2.63 -3.52,4.04 -2.37,2.76 -4.54,5.22 -7.62,7.38 -4.01,2.8 -8.21,4.6 -13.21,5.48 -1.02,0.18 -2.45,0.13 -3.28,0.48zm55.72 -145.55c-0.19,-2.41 0.15,-4.8 1.39,-6.26l7.44 -7.97c1.18,-1.15 2.45,-2.62 4.39,-3.3 5,-1.75 8.65,0.21 11.09,2.96 1.48,1.67 5.67,6.32 6.24,9.17 0.38,1.93 -0.73,3.61 -1.79,5.47 -0.97,1.7 -1.97,3.1 -3.13,4.58 -2.18,2.79 -5,4.96 -8.37,7.05 -0.49,0.3 -2.07,1.18 -2.81,0.81 -0.39,-0.2 -13.11,-11.63 -14.46,-12.5zm28.38 2.56c1.05,-2.66 4.43,-5.31 2.59,-9.62 -1.29,-3.04 -6.51,-9.34 -9.33,-10.89 -3.23,-1.78 -7.83,-1.52 -10.56,0.46 -1.13,0.82 -3.02,2.85 -3.63,3.14 -0.33,-0.83 -1,-1.86 -1.46,-2.82 -3.52,-7.36 -4.36,-18.06 -2.51,-25.84 2.25,-9.47 7.92,-16.8 13.2,-21.32 5.7,-4.88 14.37,-9.94 25.03,-9.55 30.8,1.13 48.22,33.81 33.28,59.63 -6.51,11.25 -18.62,18.97 -32.32,19.62 -2.86,0.14 -5.08,-0.04 -7.78,-0.68 -1.33,-0.31 -5.66,-1.56 -6.52,-2.14zm-21.57 -16.1c-0.27,0.4 -2.22,2.44 -2.51,2.59 -0.88,-0.93 -2.73,-4.94 -3.33,-6.41 -5.38,-13.04 -4.15,-27.56 3.02,-39.57 4.86,-8.14 12.31,-14.44 21.12,-18.09 25.16,-10.42 54.27,4.78 59.88,31.96 2.48,12.02 -0.34,23.37 -5.61,31.98 -9.56,15.62 -28.08,23.95 -46.64,20.13 -1.59,-0.33 -6.45,-1.59 -7.53,-2.35 0.23,-0.5 1.9,-2.47 2.48,-3.24 0.61,0.02 2.57,0.83 3.29,1.07 3.98,1.33 7.06,1.94 11.43,1.79 14.03,-0.46 26.66,-8.55 33.32,-19.96 7.36,-12.63 7.59,-28.5 -0.28,-41.61 -4.37,-7.29 -11.1,-13.03 -18.97,-16.38 -14.36,-6.11 -29.7,-2.95 -40.35,6.62 -6.48,5.83 -11.41,12.73 -13.55,21.93 -1.9,8.18 -1,18.74 2.69,26.53 0.32,0.68 1.44,2.5 1.55,3.03z"/>
   <path class="fil0 str0" d="M10.48 164.37c2.68,-6.25 78.29,-91.11 78.6,-91.29 20.28,17.02 40.24,34.63 60.28,51.91 -2.38,5.65 -68.88,80.03 -78.51,91.19 -20.05,-17.17 -40.09,-34.97 -60.37,-51.81zm147.18 -35.97c0.76,-5.85 -0.43,-12.17 -2.66,-16.86 -2.97,-6.26 -6.52,-9.56 -11.28,-13.49 -9.7,-8.01 -19.5,-16.95 -29.05,-25.3 -3.44,-2.91 -7.11,-5.57 -12.68,-7.13 -5.76,-1.62 -11.68,-1.68 -17.43,-0.03 -6.6,1.89 -11.14,5.17 -15.07,9.56l-34.51 39.64c-0.58,0.67 -25.33,28.81 -27.43,31.87 -9.74,14.16 -5.99,32.81 5.86,42.26 11.29,9.01 22.99,21.31 34.44,29.81 7.8,5.79 17.88,7.68 27.38,5 2.55,-0.72 4.91,-1.73 6.99,-2.91 2.48,-1.41 3.92,-2.62 5.64,-4.12 1.7,-1.49 1.29,-1.33 2.46,-2.49 19.96,-22.88 39.85,-45.82 59.78,-68.73 3.9,-4.25 6.71,-10.57 7.55,-17.06z"/>
   <path class="fil0 str0" d="M131.43 66.75c-0.11,-0.53 -1.22,-2.34 -1.55,-3.03 -3.69,-7.79 -4.59,-18.35 -2.69,-26.53 2.14,-9.19 7.07,-16.1 13.55,-21.93 10.65,-9.57 25.99,-12.73 40.35,-6.62 7.88,3.35 14.6,9.09 18.97,16.38 7.86,13.11 7.64,28.97 0.28,41.61 -6.65,11.42 -19.28,19.5 -33.32,19.96 -4.37,0.14 -7.46,-0.47 -11.43,-1.79 -0.71,-0.24 -2.67,-1.04 -3.29,-1.07 -0.57,0.77 -2.25,2.74 -2.48,3.24 1.08,0.76 5.95,2.02 7.53,2.35 18.56,3.82 37.09,-4.51 46.64,-20.13 5.27,-8.61 8.09,-19.96 5.61,-31.98 -5.61,-27.17 -34.72,-42.38 -59.88,-31.96 -8.81,3.65 -16.26,9.95 -21.12,18.09 -7.17,12.01 -8.39,26.52 -3.02,39.57 0.61,1.47 2.46,5.48 3.33,6.41 0.29,-0.15 2.24,-2.19 2.51,-2.59z"/>
   <path class="fil0 str0" d="M124.62 80.29c1.35,0.87 14.08,12.3 14.46,12.5 0.74,0.38 2.32,-0.5 2.81,-0.81 3.36,-2.09 6.19,-4.26 8.37,-7.05 1.16,-1.48 2.16,-2.88 3.13,-4.58 1.06,-1.86 2.17,-3.54 1.79,-5.47 -0.57,-2.85 -4.76,-7.51 -6.24,-9.17 -2.44,-2.75 -6.09,-4.71 -11.09,-2.96 -1.94,0.68 -3.21,2.15 -4.39,3.3l-7.44 7.97c-1.24,1.46 -1.58,3.86 -1.39,6.26z"/>
  </g>
 </g>
</svg>
