<?xml version="1.0" encoding="UTF-8"?>
<!DOCTYPE svg PUBLIC "-//W3C//DTD SVG 1.1//EN" "http://www.w3.org/Graphics/SVG/1.1/DTD/svg11.dtd">
<!-- Creator: CorelDRAW 2017 -->
<svg xmlns="http://www.w3.org/2000/svg" xml:space="preserve" width="71.4726mm" height="42.1017mm" version="1.1" style="shape-rendering:geometricPrecision; text-rendering:geometricPrecision; image-rendering:optimizeQuality; fill-rule:evenodd; clip-rule:evenodd"
viewBox="0 0 265.94 156.65"
 xmlns:xlink="http://www.w3.org/1999/xlink">
 <defs>
  <style type="text/css">
   <![CDATA[
    .str0 {stroke:white;stroke-width:1.31;stroke-linejoin:round;stroke-miterlimit:22.9256}
    .fil0 {fill:none}
    .fil1 {fill:#FEFEFE}
   ]]>
  </style>
 </defs>
 <g id="projekty">
  <metadata id="CorelCorpID_0Corel-Layer"/>
  <g>
   <path class="fil0 str0" d="M64.4 111.5c-1.51,1.74 -8.8,7.09 -13.48,12.28 -4.09,4.53 -8.22,8.82 -12.41,13.24 -2.87,3.03 -9.47,9.63 -13.8,11.79 -28.05,13.97 -23.05,-14.92 -11.3,-27.12l7.97 -5.07c6.02,-3.09 11.68,-5.29 19.23,-6.26 5.25,-0.68 16.87,-0.82 22.28,0.58l1.51 0.57zm-31.66 -3.73c17.72,-12.29 20.71,-18.24 40.36,-24.18 17.34,-5.24 39.67,-6.68 59.13,-4.15 27.39,3.56 52.35,11.32 77.82,20.08 7.97,2.74 16.27,5.57 22.65,9.92 -1.52,1.46 -5.44,7.67 -7.1,10.04 -2.32,3.32 -4.96,7.09 -7.41,10.31 -4.92,6.49 -10.22,13.09 -18.76,17.12 -17.24,8.13 -42.54,-3.5 -56.48,-9.67 -16.34,-7.23 -32.65,-15.21 -50.11,-21.71 -8.78,-3.27 -18.1,-6.22 -27.95,-7.9 -5.14,-0.88 -11,-1.51 -16.47,-1.41l-12.34 1.31c-1.31,0.28 -2.43,0.81 -3.35,0.23zm27.6 -23.68c0.74,-4.65 10.92,-23.39 13.72,-28.55l14.47 -27c4.39,-6.44 14.92,-14.19 23.05,-18.41 12.79,-6.64 19.32,-6.45 35.52,-5.71 25.44,1.16 49.81,4.07 60,22.98 5.05,9.38 7.27,21.04 8.67,32.79 1.41,11.87 3.27,26.51 3.53,38.48 -3.01,-0.5 -6.62,-2 -9.66,-3.04 -2.93,-1.01 -5.96,-2.05 -9.05,-3.06 -32.93,-10.75 -65.97,-20.1 -101.35,-17.41 -6.99,0.53 -13.84,1.91 -20.48,3.31 -6.55,1.38 -12.62,4.23 -18.41,5.6zm133.77 -74.19c5.39,-1.94 26.93,10.23 30.99,13.01 18.88,12.87 31.11,32.59 33.67,56.44 0.79,7.38 1.07,13.11 1.07,20.98 -0,6.23 0.98,14.57 1.57,21l-38.36 -21.28c-1.99,-3.98 -0.21,-52.82 -13.74,-75.82 -4.65,-7.9 -8.8,-9.83 -15.2,-14.33zm69.32 86.69c0.02,-29.78 -10.06,-59.15 -34.37,-75.31 -5.52,-3.67 -10.25,-6.46 -17.52,-9.92 -10.31,-4.92 -11.05,-4.22 -21.23,-5.67 -17.06,-2.43 -31.61,-4.66 -49.6,-4.93 -10.87,-0.16 -15.06,-0.44 -24.13,3.18 -6.24,2.49 -12.87,6.37 -17.63,9.91 -14.49,10.78 -12.39,12.02 -18.48,22.5 -7.27,12.51 -17.79,32.67 -23.09,44.94 -2.5,5.79 -0.61,4.78 -5.72,8.3 -8.67,5.98 -25.69,19.43 -31.66,22.88 -3.15,1.82 -5.4,3.1 -7.92,5.58 -12,11.83 -16.14,33.1 -4.67,37.26 6.66,2.42 17.24,-1.92 21.34,-4.74 11.43,-7.89 23.18,-24.76 34.84,-33.67 2.78,-2.12 4.71,-4.99 9.32,-3.87 7.21,1.75 13.75,3.95 20.57,6.53 22.06,8.35 58.1,27.27 77.27,31.78 42.73,10.06 49.9,-24.26 65.03,-39.84 4.6,1.04 24.78,14.59 28.17,15.51 1.27,-3.01 1.65,-1.66 1.01,-5.94 -0.93,-6.27 -1.54,-17.68 -1.54,-24.47z"/>
   <path id="1" class="fil1" d="M64.4 111.5c-1.51,1.74 -8.8,7.09 -13.48,12.28 -4.09,4.53 -8.22,8.82 -12.41,13.24 -2.87,3.03 -9.47,9.63 -13.8,11.79 -28.05,13.97 -23.05,-14.92 -11.3,-27.12l7.97 -5.07c6.02,-3.09 11.68,-5.29 19.23,-6.26 5.25,-0.68 16.87,-0.82 22.28,0.58l1.51 0.57zm-31.66 -3.73c17.72,-12.29 20.71,-18.24 40.36,-24.18 17.34,-5.24 39.67,-6.68 59.13,-4.15 27.39,3.56 52.35,11.32 77.82,20.08 7.97,2.74 16.27,5.57 22.65,9.92 -1.52,1.46 -5.44,7.67 -7.1,10.04 -2.32,3.32 -4.96,7.09 -7.41,10.31 -4.92,6.49 -10.22,13.09 -18.76,17.12 -17.24,8.13 -42.54,-3.5 -56.48,-9.67 -16.34,-7.23 -32.65,-15.21 -50.11,-21.71 -8.78,-3.27 -18.1,-6.22 -27.95,-7.9 -5.14,-0.88 -11,-1.51 -16.47,-1.41l-12.34 1.31c-1.31,0.28 -2.43,0.81 -3.35,0.23zm27.6 -23.68c0.74,-4.65 10.92,-23.39 13.72,-28.55l14.47 -27c4.39,-6.44 14.92,-14.19 23.05,-18.41 12.79,-6.64 19.32,-6.45 35.52,-5.71 25.44,1.16 49.81,4.07 60,22.98 5.05,9.38 7.27,21.04 8.67,32.79 1.41,11.87 3.27,26.51 3.53,38.48 -3.01,-0.5 -6.62,-2 -9.66,-3.04 -2.93,-1.01 -5.96,-2.05 -9.05,-3.06 -32.93,-10.75 -65.97,-20.1 -101.35,-17.41 -6.99,0.53 -13.84,1.91 -20.48,3.31 -6.55,1.38 -12.62,4.23 -18.41,5.6zm133.77 -74.19c5.39,-1.94 26.93,10.23 30.99,13.01 18.88,12.87 31.11,32.59 33.67,56.44 0.79,7.38 1.07,13.11 1.07,20.98 -0,6.23 0.98,14.57 1.57,21l-38.36 -21.28c-1.99,-3.98 -0.21,-52.82 -13.74,-75.82 -4.65,-7.9 -8.8,-9.83 -15.2,-14.33zm69.32 86.69c0.02,-29.78 -10.06,-59.15 -34.37,-75.31 -5.52,-3.67 -10.25,-6.46 -17.52,-9.92 -10.31,-4.92 -11.05,-4.22 -21.23,-5.67 -17.06,-2.43 -31.61,-4.66 -49.6,-4.93 -10.87,-0.16 -15.06,-0.44 -24.13,3.18 -6.24,2.49 -12.87,6.37 -17.63,9.91 -14.49,10.78 -12.39,12.02 -18.48,22.5 -7.27,12.51 -17.79,32.67 -23.09,44.94 -2.5,5.79 -0.61,4.78 -5.72,8.3 -8.67,5.98 -25.69,19.43 -31.66,22.88 -3.15,1.82 -5.4,3.1 -7.92,5.58 -12,11.83 -16.14,33.1 -4.67,37.26 6.66,2.42 17.24,-1.92 21.34,-4.74 11.43,-7.89 23.18,-24.76 34.84,-33.67 2.78,-2.12 4.71,-4.99 9.32,-3.87 7.21,1.75 13.75,3.95 20.57,6.53 22.06,8.35 58.1,27.27 77.27,31.78 42.73,10.06 49.9,-24.26 65.03,-39.84 4.6,1.04 24.78,14.59 28.17,15.51 1.27,-3.01 1.65,-1.66 1.01,-5.94 -0.93,-6.27 -1.54,-17.68 -1.54,-24.47z"/>
  </g>
 </g>
</svg>
