<?xml version="1.0" encoding="UTF-8"?>
<!DOCTYPE svg PUBLIC "-//W3C//DTD SVG 1.1//EN" "http://www.w3.org/Graphics/SVG/1.1/DTD/svg11.dtd">
<!-- Creator: CorelDRAW 2017 -->
<svg xmlns="http://www.w3.org/2000/svg" xml:space="preserve" width="37.6381mm" height="68.1352mm" version="1.1" style="shape-rendering:geometricPrecision; text-rendering:geometricPrecision; image-rendering:optimizeQuality; fill-rule:evenodd; clip-rule:evenodd"
viewBox="0 0 92.43 167.32"
 xmlns:xlink="http://www.w3.org/1999/xlink">
 <defs>
  <style type="text/css">
   <![CDATA[
    .str0 {stroke:#FEFEFE;stroke-width:1.73;stroke-miterlimit:22.9256}
    .fil0 {fill:none}
   ]]>
  </style>
 </defs>
 <g id="projekty">
  <metadata id="CorelCorpID_0Corel-Layer"/>
  <g id="_2882685678192">
   <path class="fil0 str0" d="M46.26 23.05c-0.1,0.61 -0.27,1.17 -0.48,1.69 2.98,3.09 7.92,7.47 6.82,9.17 -3.06,4.76 -0.47,4.18 1.18,4.29 0.08,-0.63 0.49,-1.58 1.4,-3.01 1.57,-2.44 -9.24,-10.36 -8.94,-12.14zm-22.37 36.26c0.34,0.35 0.79,0.69 1.36,1.03 0.25,0.15 0.58,0.21 0.92,0.24 0.09,-1.39 -1.14,-1.23 -2.28,-1.26zm-3.94 13.28c0.25,0.57 1.71,1.17 5.3,1.95 -0.18,-0.5 -0.75,-0.89 -1.83,-1.12 -1.44,-0.3 -2.58,-0.57 -3.47,-0.83zm-14.47 37.61c0.34,1.83 4.51,1.34 8.05,0.78 6.96,-3.94 -3.01,-0.54 -8.05,-0.78zm2.73 12.33c0.7,0.89 2.25,1.48 5.11,1.48 1.99,0 3.51,0.02 4.67,0.05 1.13,-0.97 2.39,-1.33 -7.26,-1.33 -0.99,0 -1.83,-0.07 -2.53,-0.2zm12.39 4.94c0.51,0.39 1.33,0.82 2.61,1.29 2.03,0.75 3.36,0.31 4.29,-0.24 -0.1,-0.26 -0.18,-0.54 -0.24,-0.84 -0.8,-3.95 -1.53,1.68 -6.64,-0.2l-0.02 -0.01zm1.3 37.19c0.35,0.79 0.8,1.26 1.38,1.26 6.11,0 54.18,2.53 54.18,-3.45 0,-2.44 0.28,-18.57 -1.73,-18.49 -0.6,0.02 -1.17,0.06 -1.71,0.09 1.04,3.94 0.84,15.12 0.84,17.12 0,5.68 -43.41,3.68 -52.97,3.47zm43.84 -21.43c-0.44,-0.69 -0.78,-1.71 -1.09,-3.22 -0.95,-4.65 -8.44,-2.1 -0.27,-8.92 2.19,-1.83 1.27,-4.51 3.47,-3.91 -5.51,-3.39 -3.28,0.32 -6.06,2.63 -8.17,6.82 -0.68,4.27 0.27,8.92 0.72,3.52 1.59,4.43 3.67,4.5zm4.18 -15.08c0.36,0.21 0.75,0.45 1.18,0.73 4.18,2.69 5.09,-5.11 5.59,-5.11 6.8,0 4.36,0.01 10.62,-0.76 5.62,-0.69 2.72,-8.01 -3.04,-9.79 3.89,2.74 5.14,7.93 0.45,8.51 -6.27,0.77 -3.82,0.76 -10.62,0.76 -0.44,0 -1.19,6 -4.18,5.66zm11.13 -16.39c-0.73,-1.22 0.38,-2.97 4.79,-3.51 2.84,-0.35 7.39,-2.58 5.11,-6.12 -2.89,-4.5 -5.53,0.07 -0.59,-6.16 5.04,-6.36 -11.67,-8.29 -11.67,-14.36 0,-1.58 -2.51,-2.59 -4.8,-3.71 1.26,0.7 2.21,1.46 2.21,2.43 0,6.08 16.71,8 11.67,14.36 -4.94,6.23 -2.3,1.66 0.59,6.16 2.28,3.55 -2.27,5.77 -5.11,6.12 -6.45,0.79 -5.84,4.18 -2.73,4.68 0.18,0.03 0.36,0.07 0.53,0.11zm-8.38 -34.49c-2.66,-1.47 -4.18,-3.28 0.91,-6.72 1.6,-1.08 -9.37,-9.69 -9.16,-10.27 1.77,-4.98 9.11,0.42 7.09,-6.6 -1.54,-5.32 -3.83,-6.55 -6.3,-7.43 1.44,1.04 2.73,2.76 3.71,6.15 2.03,7.02 -5.32,1.62 -7.09,6.6 -0.21,0.58 10.76,9.19 9.16,10.27 -6.63,4.49 -2.04,6.2 1.68,8zm-11.67 -32.87c-1.26,-0.87 -2.47,-2.19 -3.56,-4.49 -0.26,-0.54 -1.28,-0.43 -2.18,-0.47 1.74,3.2 3.75,4.23 5.74,4.96z"/>
   <path class="fil0 str0" d="M43.67 21.77c-1.28,7.46 -11.21,7.82 -9.47,16.38 0.55,2.68 -3.81,3 -5.94,9.14 -0.55,1.6 -12.93,7.44 -5.61,11.77 1.72,1.02 6.54,-2.04 0.74,7.52 -2.2,3.63 -12.5,4.23 0.02,6.84 7.85,1.63 -11.18,11.88 -11.18,12.33 0,1.3 1.19,4.04 0,3.94 -0.01,0.07 -16.61,3.07 -9.7,11.18 4.07,4.78 0.32,3.94 0.33,7.81 0.02,4.86 22.98,-4.07 7.95,3.76 -2.62,1.37 -11.24,10.29 -0.08,10.29 17.04,0 0.03,1.12 9.88,4.75 5.11,1.88 5.83,-3.74 6.64,0.2 1.12,5.5 9.09,5.23 4.42,12.57 -3.59,5.63 -13.27,2.34 -13.27,4.66 0,3.27 -1.16,19.72 2.28,19.72 6.11,0 54.18,2.53 54.18,-3.45 0,-2.44 0.28,-18.57 -1.73,-18.49 -8.05,0.32 -9.81,2.26 -11.07,-3.97 -0.95,-4.65 -8.44,-2.1 -0.27,-8.92 2.88,-2.41 0.37,-6.31 6.72,-2.22 4.18,2.69 5.09,-5.11 5.59,-5.11 6.8,0 4.36,0.01 10.62,-0.76 5.99,-0.74 2.3,-9 -4.21,-10.07 -3.1,-0.51 -3.71,-3.89 2.73,-4.68 2.84,-0.35 7.39,-2.58 5.11,-6.12 -2.89,-4.5 -5.53,0.07 -0.59,-6.16 5.04,-6.36 -11.67,-8.29 -11.67,-14.36 0,-3.85 -14.98,-4.37 -5.11,-11.05 1.6,-1.08 -9.37,-9.69 -9.16,-10.27 1.77,-4.98 9.11,0.42 7.09,-6.6 -3.18,-11.03 -9.62,-4.45 -14.05,-13.77 -0.65,-1.37 -6.21,1.46 -2.24,-4.73 1.57,-2.44 -9.24,-10.36 -8.94,-12.14z"/>
   <path class="fil0 str0" d="M74.73 161.73c0.7,1.19 1.16,1.14 2.12,1.52"/>
   <path class="fil0 str0" d="M73.77 143.34c0.73,-0.01 2.25,1.35 2.57,1.25"/>
   <path class="fil0 str0" d="M46.55 23.87c-0.35,-0.26 -2.47,-1.52 -2.85,-1.59"/>
   <path class="fil0 str0" d="M57.28 39.72c-0.65,0.03 -2.34,-1.34 -3.07,-1.7"/>
   <path class="fil0 str0" d="M73.57 70.55c0.24,-0.94 -2.15,-1.99 -2.96,-1.99"/>
   <path class="fil0 str0" d="M6.14 111.41c-0.43,-0.02 -2.76,-1.35 -2.8,-1.54"/>
   <path class="fil0 str0" d="M23.15 166.23c-0.34,-0.42 -1.99,-1.05 -2.75,-1.62 -0.08,-0.06 -0.48,-0.26 -0.48,-0.29"/>
   <path class="fil0 str0" d="M71.54 56.91c-0.42,0.03 -2.23,-1.69 -2.43,-1.6"/>
   <circle class="fil0 str0" cx="43.74" cy="30.15" r="2.28"/>
   <path class="fil0 str0" d="M45.74 29.05c-0.54,0.22 -2.97,0.12 -3.25,-0.12 -1.99,-1.69 -5.78,-3.08 -6.56,-7.41 -0.7,-3.87 0.13,-5.3 1.13,-8.89 1.05,-3.79 0.8,-3.25 2.62,-6.57 0.36,-0.65 2,-2.73 2.83,-2.66 1.79,0.15 1.46,-3.85 -1.79,-2.07 -1.28,0.7 2.12,3.15 2.6,2.71 1.68,-1.55 0.59,-3.57 -0.95,-1.93 -1.15,1.23 3.48,6.83 4.09,8.48 1.09,2.97 4.73,9.11 4.91,11.8 0.15,2.21 1.19,3.69 -0.32,5.59 -0.06,0.07 -0.05,0.05 -0.04,0.14"/>
  </g>
 </g>
</svg>
