<?xml version="1.0" encoding="UTF-8"?>
<!DOCTYPE svg PUBLIC "-//W3C//DTD SVG 1.1//EN" "http://www.w3.org/Graphics/SVG/1.1/DTD/svg11.dtd">
<!-- Creator: CorelDRAW 2017 -->
<svg xmlns="http://www.w3.org/2000/svg" xml:space="preserve" width="53.6042mm" height="73.3651mm" version="1.1" style="shape-rendering:geometricPrecision; text-rendering:geometricPrecision; image-rendering:optimizeQuality; fill-rule:evenodd; clip-rule:evenodd"
viewBox="0 0 184.21 252.11"
 xmlns:xlink="http://www.w3.org/1999/xlink">
 <defs>
  <style type="text/css">
   <![CDATA[
    .str0 {stroke:white;stroke-width:0.61;stroke-linejoin:round;stroke-miterlimit:22.9256}
    .fil0 {fill:none}
    .fil1 {fill:#FEFEFE}
   ]]>
  </style>
 </defs>
 <g id="projekty">
  <metadata id="CorelCorpID_0Corel-Layer"/>
  <g id="_2882709920688">
   <g>
    <g>
     <path class="fil0 str0" d="M52.08 85.58c-1.39,0.47 -1.72,0.94 -3.74,0.74 -3.37,-0.33 -8.32,-3.19 -10.56,-3.23 -3.19,-0.06 -5.43,8.53 -9.44,8.86 -0.64,-4.43 3.53,-4.83 4.69,-8.43 0.55,-1.72 -0.04,-2.4 -0.99,-3.11 -3.69,-2.78 -9.08,-3.25 -10.29,-7.42l6.93 2.81c2.56,0.99 4.57,1.93 6.96,3.03 3.44,-1.47 6.04,-10.96 7.96,-13.01 1.8,1.47 -0.46,5.98 -1.24,7.28 -0.63,1.05 -1.24,1.93 -1.96,2.93 -1.22,1.68 -1.89,1.95 -1.37,2.88 2.22,4 12,3.04 13.05,6.66zm-31.96 -12.45c0.59,2.97 2.55,4.7 4.75,5.89 1.96,1.06 5.39,2.29 7.71,2.83 -1.32,3.43 -8.76,5.06 -6.05,11.42 0.5,0.1 0.56,0.07 0.96,0.27 0.59,0.31 0,0.37 1.13,0.27 4.15,-0.9 5.13,-3.24 6.75,-6.43 0.49,-0.96 1.1,-2.14 1.54,-3.05 1.71,0.32 5.3,2.35 7.24,3.1 2.27,0.89 6.39,2.01 8.64,0.38 0.28,-0.97 0.26,-2.17 0.23,-3.21 -0.09,-2.83 -0.31,-1.96 -0.74,-2.59 -3.2,-1.05 -1.91,-0.81 -5.67,-1.63 -2.56,-0.56 -3.42,-0.92 -5.34,-1.99 0.46,-1.15 6.63,-7.46 5.52,-12.9 -0.11,-0.56 -0.27,-0.49 -0.61,-0.83 -0.72,-0.01 -1.38,-0.43 -2.38,-0.36 -0.9,0.07 -1.59,0.48 -2.09,0.95 -2.93,2.73 -3.31,8.86 -6.51,11.69 -1.69,-0.21 -9.31,-5.8 -15.38,-5.88l0.3 2.07z"/>
     <path id="1" class="fil1" d="M52.08 85.58c-1.39,0.47 -1.72,0.94 -3.74,0.74 -3.37,-0.33 -8.32,-3.19 -10.56,-3.23 -3.19,-0.06 -5.43,8.53 -9.44,8.86 -0.64,-4.43 3.53,-4.83 4.69,-8.43 0.55,-1.72 -0.04,-2.4 -0.99,-3.11 -3.69,-2.78 -9.08,-3.25 -10.29,-7.42l6.93 2.81c2.56,0.99 4.57,1.93 6.96,3.03 3.44,-1.47 6.04,-10.96 7.96,-13.01 1.8,1.47 -0.46,5.98 -1.24,7.28 -0.63,1.05 -1.24,1.93 -1.96,2.93 -1.22,1.68 -1.89,1.95 -1.37,2.88 2.22,4 12,3.04 13.05,6.66zm-31.96 -12.45c0.59,2.97 2.55,4.7 4.75,5.89 1.96,1.06 5.39,2.29 7.71,2.83 -1.32,3.43 -8.76,5.06 -6.05,11.42 0.5,0.1 0.56,0.07 0.96,0.27 0.59,0.31 0,0.37 1.13,0.27 4.15,-0.9 5.13,-3.24 6.75,-6.43 0.49,-0.96 1.1,-2.14 1.54,-3.05 1.71,0.32 5.3,2.35 7.24,3.1 2.27,0.89 6.39,2.01 8.64,0.38 0.28,-0.97 0.26,-2.17 0.23,-3.21 -0.09,-2.83 -0.31,-1.96 -0.74,-2.59 -3.2,-1.05 -1.91,-0.81 -5.67,-1.63 -2.56,-0.56 -3.42,-0.92 -5.34,-1.99 0.46,-1.15 6.63,-7.46 5.52,-12.9 -0.11,-0.56 -0.27,-0.49 -0.61,-0.83 -0.72,-0.01 -1.38,-0.43 -2.38,-0.36 -0.9,0.07 -1.59,0.48 -2.09,0.95 -2.93,2.73 -3.31,8.86 -6.51,11.69 -1.69,-0.21 -9.31,-5.8 -15.38,-5.88l0.3 2.07z"/>
    </g>
    <g>
     <path class="fil0 str0" d="M86.55 111.18c0.52,1 5.14,3.9 5.79,4.13 -0.75,2.98 -7.35,7.05 -7.86,13.95 4.88,1 7.71,-1.14 9.84,-3.58 1.13,-1.29 4.11,-5.72 5.43,-6.96 0.19,-0.18 0.29,-0.23 0.5,-0.41l0.49 -0.54 0.06 -0.06c0,-0.01 0.02,-0.04 0.02,-0.05l0 -0.15c-0.1,-0.42 -0,-0.18 -0.3,-0.46 0.4,-0.08 0.22,-0.07 0.4,-0.25l0.21 -0.36c0.04,0.03 0.09,0.07 0.12,0.09l0.56 0.02c0.01,-0.02 0.02,-0.06 0.02,-0.08 0.01,-0.01 0.03,-0.05 0.03,-0.06 0.21,-0.25 0.31,-0.09 0.35,-0.22 0.02,-0.06 0.1,-0.04 0.13,-0.1l-0.91 0.18c0.05,-0.04 0.1,-0.07 0.15,-0.1l0.61 -0.51c-0.55,-0.07 -0.58,-0.25 -0.68,-0.29l0.34 -0.1c-0.83,-0.88 -1.63,-0 -2.28,0.52 -3.17,2.53 -5.62,7.01 -7.31,8.6 -1.22,1.15 -3.2,3.13 -5.22,3.54 0.6,-2.27 2.73,-5.13 3.86,-6.73 0.96,-1.36 4.15,-4.91 4.55,-5.89 -0.68,-0.48 -0.87,-0.9 -1.69,-1.47 -1.28,-0.89 -2.84,-1.57 -4,-2.42l-1.61 -1.34c-0.01,-0.05 -0.06,-0.05 -0.1,-0.08l-1.36 0.83c-0.03,0.12 0.08,0.14 -0.15,0.35z"/>
     <path id="1" class="fil1" d="M86.55 111.18c0.52,1 5.14,3.9 5.79,4.13 -0.75,2.98 -7.35,7.05 -7.86,13.95 4.88,1 7.71,-1.14 9.84,-3.58 1.13,-1.29 4.11,-5.72 5.43,-6.96 0.19,-0.18 0.29,-0.23 0.5,-0.41l0.49 -0.54 0.06 -0.06c0,-0.01 0.02,-0.04 0.02,-0.05l0 -0.15c-0.1,-0.42 -0,-0.18 -0.3,-0.46 0.4,-0.08 0.22,-0.07 0.4,-0.25l0.21 -0.36c0.04,0.03 0.09,0.07 0.12,0.09l0.56 0.02c0.01,-0.02 0.02,-0.06 0.02,-0.08 0.01,-0.01 0.03,-0.05 0.03,-0.06 0.21,-0.25 0.31,-0.09 0.35,-0.22 0.02,-0.06 0.1,-0.04 0.13,-0.1l-0.91 0.18c0.05,-0.04 0.1,-0.07 0.15,-0.1l0.61 -0.51c-0.55,-0.07 -0.58,-0.25 -0.68,-0.29l0.34 -0.1c-0.83,-0.88 -1.63,-0 -2.28,0.52 -3.17,2.53 -5.62,7.01 -7.31,8.6 -1.22,1.15 -3.2,3.13 -5.22,3.54 0.6,-2.27 2.73,-5.13 3.86,-6.73 0.96,-1.36 4.15,-4.91 4.55,-5.89 -0.68,-0.48 -0.87,-0.9 -1.69,-1.47 -1.28,-0.89 -2.84,-1.57 -4,-2.42l-1.61 -1.34c-0.01,-0.05 -0.06,-0.05 -0.1,-0.08l-1.36 0.83c-0.03,0.12 0.08,0.14 -0.15,0.35z"/>
    </g>
   </g>
   <g>
    <g>
     <path class="fil0 str0" d="M82.65 209.03c-1.16,0.4 -10.37,5.43 -11.64,6.1 -5.58,2.97 -11.88,6.59 -17.39,9.39l-17.79 8.94c0.51,-1.23 1.68,-2.29 2.56,-3.21l3.07 -2.9c3.38,-3.48 2.18,-6.62 2.27,-9.33 1.95,-1.29 15.8,-7.93 18.6,-9.42 4.49,-2.38 9.58,-4.64 14.02,-7.1 0.8,-0.44 1.51,-0.78 2.3,-1.22 0.92,-0.51 1.43,-1.09 2.55,-0.6 -0.09,0.62 -0.31,0.68 -0.76,1.01 -1.76,1.29 -1.75,1.84 -0.44,3.26 1.37,1.48 2.69,1.91 2.64,5.07zm4.86 -14.32c1.58,0.31 2.59,0.76 4.48,0.94 1.67,0.16 3.35,0.22 5.02,0.35 2.06,0.15 7.1,0.86 7.44,3.28 -1.09,-0.57 -2.81,-0.55 -4.23,-0.53 -0.73,0.01 -4.54,0.02 -4.89,0.17 -0.69,0.31 -1.69,1.78 -2.04,2.85 -0.47,1.44 -0.46,3.1 -0.3,4.71 -0.82,-0.38 -0.51,-0.5 -0.95,-1.24 -0.26,-0.43 -0.77,-0.75 -1.49,-0.41 -0.82,0.38 -0.6,2.04 -1.14,2.95l-1.12 0.09c-0.42,-1.32 0.92,-2.7 -0.15,-4.21 -2.38,-0.23 -1.62,2.16 -4.15,2.36 0.31,-1.29 2.47,-3.32 2.21,-4.24 -1.92,-0.28 -2.12,0.7 -4.03,0.64 0.91,-1.72 4.14,-3.41 6.24,-4.31 0.64,-0.28 1.09,-0.32 1.1,-1.02 0.01,-1.53 -1.9,-0.41 -1.98,-2.36zm-4.23 -21.82c-0.48,-1.96 0.61,-9.06 1.09,-11.09 0.81,-3.39 1.86,-6.27 3.19,-9.21 1.18,-2.62 2.97,-5.74 4.51,-7.73 2.94,-3.81 2.49,-3.29 5.84,-6.55 4.08,-3.97 10.81,-7.3 16.99,-7.62 5.44,-0.28 10.29,1.26 14.68,3.81 1.79,1.04 1.27,0.9 2.56,3.72 7.63,16.74 15.71,35.2 20.69,53.21 1.88,6.79 3.11,13.18 4.51,20.27 1.33,6.7 3.81,13.3 4.4,20.24 0.72,8.57 -3.12,12.67 -9.02,15.32 -6.06,2.72 -14.41,2.81 -20.85,0.46 -3.43,-1.25 -5.1,-2.52 -7.55,-4.84 -0.46,-0.44 -2.18,-2.73 -2.47,-3.66 -0.8,-2.54 2.76,-21.45 -13.97,-41.55l-5.84 -6.41c-1.03,-1.03 -2.09,-2 -3.05,-3.07 -1.13,-1.26 -2.19,-1.95 -3.22,-3.06 -0.65,-0.7 -0.92,-0.95 -1.55,-1.5 -0.6,-0.52 -0.95,-0.92 -1.55,-1.51l-3.24 -3.03c-0.82,-0.77 -5.98,-5.62 -6.13,-6.21zm-2.51 -11.02c-0.93,-1.36 -1.01,-5.29 -1.85,-7.78 -0.32,-0.94 -0.8,-1.46 -1.05,-2.18 2.32,-1.63 1.83,-1.32 4.58,-2.46 1.11,-0.46 3.86,-1.61 4.35,-2.64 0.14,1.72 -2.52,5.67 -3.29,7.07 -1.68,3.02 -2.06,4.13 -2.73,7.98zm80.06 -10.92c2.28,0.99 3.69,-1.87 7.15,-1.32 -0.7,1.98 -4.44,1.84 -4.11,4.16 1.76,1.79 4.75,-1.73 4.76,1.8 -2.01,-0.11 -4.14,0.1 -5.4,1.23 0.27,0.51 0.86,0.68 1.4,0.9 0.62,0.25 1.1,0.37 1.4,0.9 -6.4,0.25 -10.88,2.54 -14.02,7.47 -0.73,1.15 -1.92,3.48 -2.21,5.03 -3.98,-2.65 0.81,-9.05 2.19,-11.47 1.42,-2.49 0.56,-3.03 1.18,-7.22 0.24,-1.61 1.18,-5.36 2.11,-6.26 1.49,1.34 -0.52,3.26 -0.68,5.25 2.66,-0.51 5.38,-3.73 7.1,-5 2.58,-1.9 2.58,-0.06 1.65,1.19 -0.58,0.78 -2.64,2.29 -2.53,3.35zm-0.84 -7.29c-0.35,0.92 -0.32,1.52 -0.57,2.29 -1.6,-0.02 -1.21,-1.37 -2.68,-2.9 -1.14,0.13 -1.62,1.24 -3.36,0.69 -1.14,-0.36 -1.59,-1.21 -2.37,-1.85 -1.25,0.79 -4.72,9.15 -5.55,9.32 -0.63,-3.6 2.36,-7.55 1.88,-11.2 -1.7,-0.49 -7.79,-0.76 -6.16,-3.39l0.24 -0.07c1.05,-0.15 -0.84,0.01 0.25,-0.03 0.13,-0 0.51,0.05 0.65,0.08 3.92,0.69 5.12,3 6.98,0.31 1.55,-2.25 1.24,-7.02 2.94,-8.74 2.5,1.46 0.36,5.42 -0.66,7.5 -0.59,1.21 -0.76,1.39 0.06,2.34 1.05,1.2 2.37,2.27 3.86,3.17 0.71,0.42 1.46,0.87 2.26,1.26 0.62,0.3 1.74,0.81 2.24,1.24zm-90.69 -44.37c4.56,-3.79 16.8,-8.2 22.27,-10.02 7.65,-2.54 13.36,-4.4 20.59,-7.72 0.79,-0.36 1.99,-1.12 2.74,-1.37 0.68,1.13 3.07,18.69 3.51,21.57 0.55,3.57 1.16,7.14 1.89,10.65 0.35,1.71 0.73,3.44 1.16,5.12 0.42,1.66 1.04,3.41 1.4,5.02 -0.1,0.1 -0.08,0.09 -0.24,0.22l-0.95 0.57c-3.28,1.78 -5.87,3.23 -9.36,4.87 -7.57,3.56 -14.98,6.65 -22.98,9.46 -1.67,0.59 -11.15,4.01 -12.11,4.08 -1.25,-10.1 -1.33,-11.34 -3.75,-21.35 -1.2,-4.97 -4.09,-16.41 -4.15,-21.09zm-66.51 -51.52c2.52,-0.13 5.3,1.99 6.94,3.53l3.52 3.67c0.68,0.68 0.67,1.69 0.86,2.8 0.37,2.08 0.73,4.07 1.08,6.12 1.39,8.09 2.83,16.27 4.2,24.41 2.76,16.32 5.46,32.73 8.12,49.1 3.97,24.42 7.9,49.17 12.43,73.41 0.74,3.93 1.48,8.93 0.51,12.94 -0.83,3.44 -3.51,6.88 -6.51,7.9 -0.51,-0.89 -7.83,-43.56 -8.17,-45.56 -2.56,-15.34 -5.32,-30.67 -7.86,-45.99 -2.54,-15.35 -5.05,-30.7 -7.64,-46.07 -2.6,-15.4 -4.86,-30.88 -7.5,-46.26zm111.54 20.06c0.31,0.66 0.72,1.61 1.31,1.97 0.74,-9.54 -2.36,-16.65 -3.15,-25.65 -0.32,-3.68 -0.01,-5.69 0.63,-9.03 3.75,0.19 3.88,3.48 3.74,6.94 -0.36,8.31 2.15,19.43 4.18,27.2 3.97,0.27 9.08,-2.7 11.91,-4.25 2.46,-1.35 8.92,-4.65 12.38,-2.91 -0.29,1.06 -1.87,2.36 -2.7,2.96 -3.07,2.2 -8.18,3.82 -11.75,5.24 -2.64,1.05 -5.7,2.47 -7.29,4.03 -2.34,2.28 -2.15,5.34 -1.8,9.34 0.88,10.06 5.21,22.06 6.72,33.06 0.24,1.77 0.28,3.56 0.52,5.31 8.69,-0.54 15.61,-6.22 23.66,-8.34 -0.16,2.12 -2.63,4.54 -4.45,5.61 -2.15,1.26 -4.72,2.05 -7.37,2.88 -2.71,0.85 -4.97,1.53 -7.26,2.84 -1.18,0.67 -1.28,1 -1.46,3.63 -0.13,1.98 0.16,2.94 0.83,4.48 -2.42,-0.99 -2.89,-1.7 -6.84,-3.02 -2.63,-0.88 -5.5,-1.49 -8.52,-1.49 0.7,-1.04 6.79,-3.39 7.13,-4.86 -0.77,-7.93 -2.18,-15.43 -3.63,-23.05 -1.11,-5.83 -3.33,-17.44 -3.66,-23.02 -0.92,0.13 -10.93,4.04 -12.87,4.71 -8.61,3 -23.44,8.54 -31.67,12.24 -1.2,0.54 -5.28,2.27 -6.09,2.8 -0.08,3.49 3.5,20.11 4.26,23.59 1.69,7.7 3.5,15.22 4.83,23.18 4.99,0.37 11.05,-4.85 15.89,-5.35 0.2,2.07 -0.65,3.29 -2.21,4.44 -4.08,3.01 -10.8,4.9 -13.03,6.92 0.15,1.65 0.65,3.57 0.89,5.3 0.26,1.8 0.5,3.74 0.69,5.57 0.38,3.57 0.76,7.47 1.46,10.93 1.04,5.16 7.09,14.37 2.4,18.86 -4.23,-7.91 -4.99,-18.69 -6.9,-27.82 -0.51,-2.43 -1.03,-4.55 -1.81,-6.92 -0.3,-0.92 -0.81,-1.46 -0.85,-2.15 1.12,-0.42 1.78,-0.5 1.7,-1.94 -3.79,-0.12 -11.38,3 -14.63,4.32 -4.51,1.84 -9.61,3.99 -15.26,4.02 0.46,-5.14 6.84,-6.17 11.42,-7.71 2.87,-0.96 12.45,-3.57 14.12,-4.89 0.44,-1.81 0.42,-1.45 1.87,-2.37 0.96,-14.07 -7.25,-29.81 -7.54,-41.72 -0.08,-3.29 -0.31,-3.4 -1.51,-5.69 -7.31,1.26 -21.98,9.82 -31,11.32 0.8,-1.52 -0.55,-1.09 -1.93,-1.18 2.81,-6.14 21.18,-9.6 29.73,-13.87 0.67,-0.33 1.26,-0.76 1.9,-1.01 0.61,-15.07 -7.44,-27.9 -6.1,-42.54 3.07,1.79 4.32,5.57 4.98,10.18 1.43,10.02 1.89,15.99 4.38,26.22 0.26,1.07 0.48,2.01 0.77,3.06 0.2,0.74 0.23,0.75 0.89,0.95 2.81,0.83 4.61,-1.43 6.82,-2.49 6.84,-3.29 22.73,-6.55 33.85,-12.05 3.1,-1.53 7.33,-4.1 9.18,-6.1l-2.12 0.79c-0.61,0.91 -42.25,16.69 -47.08,18.26 -0.04,-0.17 -0.48,-5.91 -0.84,-8 -0.84,-4.9 -2.41,-10.34 -3.04,-15.04 -0.59,-4.42 -0.76,-15.31 -4.96,-17.37 -1.18,-0.58 -2.7,-0.47 -3.61,0.23 -3.75,2.87 -0.52,13.4 -0.66,15.04 0.6,0.71 1.56,7 1.82,8.45 0.51,2.88 1.29,5.88 1.72,8.64l2.72 10.57 -8.3 3.4c-7.56,2.94 -17.9,6.54 -24.03,10.94 0,3.61 2.07,3.49 3.57,5.4 1.17,-0.24 2.76,-0.95 3.9,-1.38 1.25,-0.47 2.49,-0.93 3.75,-1.45 2.92,-1.19 21.26,-8.37 22.97,-8.46 0.07,7.73 1.72,15.18 3.45,22.26 0.84,3.43 1.75,6.84 2.52,10.32 0.34,1.54 2.09,9.86 1.87,10.94 -0.32,1.56 -6.25,4.22 -7.99,4.88 -5.86,2.2 -16.11,4.01 -20.26,8.67 -0.54,0.6 -0.11,1.47 0.29,2.22 0.7,1.33 2.07,2.75 3.04,3.54 1.47,-0.18 4.99,-1.48 6.54,-2.03l12.74 -4.4c1.63,-0.52 5.27,-1.71 6.88,-1.85 0.57,1.05 3.51,17.21 4,19.73 0.89,4.53 2.02,10.08 3.25,14.5 0.38,1.36 1.05,3.34 1.3,4.68 2.01,0.01 2.38,-0.39 3.57,-1.21 0.31,-0.21 0.11,-0.13 0.44,-0.26 0.49,-1.2 2.76,-3.41 2.8,-4.51 0.03,-0.65 -0.12,-1.68 -0.24,-2.3 -0.53,-2.75 -1.87,-4.89 -2.18,-7.76 1.67,0.69 5.13,4.01 6.61,5.47 1.14,1.12 1.79,1.86 2.83,3.13 0.94,1.15 1.63,2.28 2.52,3.58 -0.13,0.3 0.21,-0.01 -0.52,0.41 -0.03,0.02 -0.08,0.03 -0.12,0.06 0.54,0.16 1.01,0.43 1.51,0.67 1.09,0.52 3.05,0.59 4.06,2.68 -2.06,2.12 -5.74,0.59 -8.31,0.03 0.27,-0.54 0.43,-0.45 0.56,-0.86 -1.41,-0.2 -3.73,-0.24 -4.95,-0.55 -1.85,-0.47 -1.65,-0.8 -2.83,1.33l-0.28 0.42c-0,1.69 -2.39,2.35 -4.58,3.43 -10.78,5.35 -21.58,11.09 -32.39,16.28 -1.87,0.9 -3.67,1.87 -5.53,2.63 -0.1,-0.17 -0,0.14 -0.16,-0.35l-5.03 -30.63c-1.52,-9.09 -15.89,-91.45 -15.6,-92.78l-0.34 -1.3c-0.96,-6.43 -2.51,-14.3 -3.19,-20.35l-2.65 -17.62c2.05,-0.44 4.34,-1.26 6.4,-1.86 9.79,-2.82 22.08,-6.71 31.68,-9.93 4.14,-1.39 8.37,-2.8 12.57,-4.1 8.29,-2.56 16.64,-5.48 24.99,-8.21 2.97,-0.97 24.13,-8.02 25.32,-7.95l0.54 -0.29c0.13,-0.05 0.35,-0.11 0.47,-0.15l14.58 -4.39c1.69,-0.49 14.3,-4.18 15.78,-4.41l1.85 9.66c0.3,0.89 1.32,5.94 1.2,6.69 0.11,0.17 0.04,-0 0.17,0.35l17.14 89.83c1.36,7.21 2.75,15.27 4.72,22.2 0.43,1.5 1.65,6.19 0.67,7.61 -0.21,0.85 -0.42,1.24 -0.92,1.85 -0.68,0.84 -0.46,0.82 -0.48,2.18 2.22,-0.44 6.94,-2.4 9.74,1.04 -0.2,0.19 -0.38,0.44 -0.63,0.66l-4.16 3.19c-0.66,0.47 -1.18,0.75 -1.85,1.21 -2.38,1.63 -4.97,2.9 -7.62,4.32l-16.03 7.88c0.15,-1.22 1.3,-2.95 2.09,-4.24 3,-4.94 6.8,-6.16 12.96,-5.79l2.01 -2.65c0.74,-0.9 1.3,-1.52 1.79,-2.8 0.25,-0.65 0.31,-1.14 0.49,-1.82 0.4,-1.56 -0.02,-0.57 -0.01,-1.66 0.01,-0.85 0.47,-0.92 -0.06,-1.93 -0.36,-0.69 -0.78,-0.75 -1.1,-1.39 -0.44,-0.09 -0.77,-0.37 -1.18,-0.62 -1.6,-0.97 -2.43,-1.39 -2.5,-3.42 -2.91,-0.87 -10.16,-5.31 -12.69,-7.08 0.94,-1.88 1.86,-2.64 2.24,-5.92 0.69,-6.01 -4.26,-8.93 -6.49,-1.9 -0.32,1.01 -0.57,2.2 -0.83,3.29 -0.3,1.24 -0.71,2.2 -1.04,3.25 -2.12,-0.35 -5.18,-2.25 -7.5,-1.55 -2.75,0.83 -3.17,5.32 5.53,6.94 -0.43,1.9 -3.61,6.29 -2.89,9.62 0.68,3.16 3.03,2.76 4.87,1.2 2.18,-1.86 2.73,-6.28 5.31,-7.61 -0.16,1.44 -1.9,8.42 -2.37,10.09 -0.59,2.09 -2.48,7.63 -3.62,8.74l-6.84 -14.85c-2.27,-5.25 -4.14,-10.53 -5.3,-16.58 -0.15,-0.79 -0.82,-3.95 -0.53,-4.47 1.12,-2.03 9.22,-4.32 11.34,-5.03 3.59,-1.19 8.71,-2.86 9.37,-6.98 0.31,-1.96 -0.25,-3.1 -0.68,-4.69 -8.96,0.92 -17.29,8.21 -23.2,8.36 -1.17,-8.78 -1.85,-12.73 -3.74,-21.36 -1.04,-4.75 -3.66,-17.37 -3.54,-21.73 1.82,-1.7 8.75,-4.69 11.71,-5.76 2.33,-0.84 6.93,-2.78 9.17,-3.99 1.04,-0.56 1.87,-1.1 2.83,-1.6 0.14,-2.65 -0.45,-6.02 -3.02,-6.14 -2.75,-0.14 -5.25,0.84 -7.4,1.83 -3.63,1.69 -8.68,5.27 -13.12,5.4 -1.34,-0.3 -4.38,-16.48 -4.5,-17.23 -1.42,-9.24 0.83,-16.16 -6.21,-15.71 -1.38,0.41 -2.26,0.97 -2.67,2.41 -0.77,2.72 0.66,10.5 0.96,14.15 0.52,6.13 0.83,12.75 2.98,17.97zm37.91 -63.6c0.78,2.81 1.37,5.91 2.06,8.83 4.81,20.47 9.19,43.39 13.12,63.98 2.36,12.36 4.6,24.71 6.95,37.11 1.17,6.2 2.33,12.33 3.48,18.56 0.89,4.81 3.02,14.63 3.55,18.66 -6.58,-0.57 -6.94,-9.1 -7.84,-14.97 -0.99,-6.42 -2.38,-12.85 -3.61,-19.2 -2.46,-12.73 -4.87,-25.51 -7.34,-38.25l-11.31 -57.08c-0.64,-3.11 -1.26,-6.27 -1.97,-9.37 -0.32,-1.39 0.4,-1.42 1.43,-3.88 0.43,-1.03 1.09,-3.75 1.48,-4.39zm-146.73 42.22c0.86,-0.44 7.28,-2.45 8.79,-2.94 8.86,-2.87 17.95,-5.8 26.91,-8.43 12.07,-3.55 24.05,-7.3 36.18,-10.79 17.55,-5.05 36.69,-10.75 54.13,-16.4l13.28 -4.32c1.14,-0.36 3.4,-1.28 4.38,-1.39 0.46,0.46 1.01,0.81 1.07,1.8 0.11,1.85 -1.71,3.47 -2.36,5.9 -6.08,2.02 -12.2,3.69 -18.26,5.61 -6.05,1.91 -12.12,3.81 -18.19,5.68 -12.1,3.74 -24.06,7.79 -36.04,11.54 -5.99,1.87 -12.03,3.89 -18,5.87 -5.97,1.98 -11.99,3.86 -18,5.87l-22.47 7.37c-0.76,0.25 -1.71,0.77 -2.4,0.37 -1.99,-1.15 -3.56,-4.96 -9.02,-5.73zm72.39 -24.47c-0.35,0.28 -0.8,0.36 -1.25,0.5l-3.64 1.1c-1.62,0.5 -3.31,1 -4.93,1.5 -19.65,5.96 -38.73,12.09 -58.25,18.25 -1.67,0.53 -3.18,1.05 -4.84,1.59 -1.01,0.33 -3.93,1.14 -4.69,1.59l0.9 5.81 4.14 25.27c1.39,8.52 2.82,16.96 4.26,25.41 2.88,16.91 5.76,33.67 8.67,50.54 2.91,16.87 5.81,33.66 8.73,50.49 0.73,4.19 1.49,8.36 2.03,12.64 0.52,4.19 1,8.89 2.02,12.84 2.22,8.64 6.04,5.94 12.64,1.73 1.56,-0.99 2.94,-1.79 4.73,-2.73l9.46 -4.81c9.97,-4.89 16.18,-8.23 25.52,-13.8 0.78,-0.47 1.46,-0.99 2.3,-1.38 0.89,0.99 1.59,1.73 3.6,1.3 2,-0.42 2.29,-0.75 4.4,-0.24 1.19,-3.8 2.49,-7.87 6.3,-8.79 7.62,-1.83 13.4,9.18 15.47,14.53 1.78,4.6 1.72,7.73 2.39,12.79 0.3,6.16 1,12.14 4.33,15.83 3.43,3.81 7.63,5.96 12.93,7.11 12.16,2.62 24.42,-1.76 27.83,-10.71 3.09,-8.1 -1.66,-25.9 -3.73,-34.19 -1.33,-5.31 -2.76,-10.56 -4.23,-15.82 -0.48,-1.73 -4.14,-15.4 -3.92,-16.08 0.23,-0.7 6.9,-4.5 7.91,-5.05 7.12,-3.87 17.89,-8 24.01,-13.32 0.47,-0.41 0.43,-0.49 0.92,-0.73l-5.56 -28.58c-3.75,-19.06 -7.25,-38.41 -10.89,-57.49 -0.92,-4.81 -1.81,-9.6 -2.73,-14.42 -0.46,-2.37 -0.9,-4.82 -1.37,-7.21 -0.26,-1.31 -1.36,-6.29 -1.27,-7.27 -0.49,-0.63 -3.68,-18.35 -4.16,-20.81 -0.67,-3.47 -1.06,-7.17 -1.83,-10.54 -0.92,-4.04 -1.65,-5.47 -3.8,-8.54l-0.47 0c-1.11,0.62 -3.32,1.04 -4.72,1.45l-32.35 9.42c-1.49,0.44 -36.31,10.85 -36.85,10.82z"/>
     <path id="1" class="fil1" d="M82.65 209.03c-1.16,0.4 -10.37,5.43 -11.64,6.1 -5.58,2.97 -11.88,6.59 -17.39,9.39l-17.79 8.94c0.51,-1.23 1.68,-2.29 2.56,-3.21l3.07 -2.9c3.38,-3.48 2.18,-6.62 2.27,-9.33 1.95,-1.29 15.8,-7.93 18.6,-9.42 4.49,-2.38 9.58,-4.64 14.02,-7.1 0.8,-0.44 1.51,-0.78 2.3,-1.22 0.92,-0.51 1.43,-1.09 2.55,-0.6 -0.09,0.62 -0.31,0.68 -0.76,1.01 -1.76,1.29 -1.75,1.84 -0.44,3.26 1.37,1.48 2.69,1.91 2.64,5.07zm4.86 -14.32c1.58,0.31 2.59,0.76 4.48,0.94 1.67,0.16 3.35,0.22 5.02,0.35 2.06,0.15 7.1,0.86 7.44,3.28 -1.09,-0.57 -2.81,-0.55 -4.23,-0.53 -0.73,0.01 -4.54,0.02 -4.89,0.17 -0.69,0.31 -1.69,1.78 -2.04,2.85 -0.47,1.44 -0.46,3.1 -0.3,4.71 -0.82,-0.38 -0.51,-0.5 -0.95,-1.24 -0.26,-0.43 -0.77,-0.75 -1.49,-0.41 -0.82,0.38 -0.6,2.04 -1.14,2.95l-1.12 0.09c-0.42,-1.32 0.92,-2.7 -0.15,-4.21 -2.38,-0.23 -1.62,2.16 -4.15,2.36 0.31,-1.29 2.47,-3.32 2.21,-4.24 -1.92,-0.28 -2.12,0.7 -4.03,0.64 0.91,-1.72 4.14,-3.41 6.24,-4.31 0.64,-0.28 1.09,-0.32 1.1,-1.02 0.01,-1.53 -1.9,-0.41 -1.98,-2.36zm-4.23 -21.82c-0.48,-1.96 0.61,-9.06 1.09,-11.09 0.81,-3.39 1.86,-6.27 3.19,-9.21 1.18,-2.62 2.97,-5.74 4.51,-7.73 2.94,-3.81 2.49,-3.29 5.84,-6.55 4.08,-3.97 10.81,-7.3 16.99,-7.62 5.44,-0.28 10.29,1.26 14.68,3.81 1.79,1.04 1.27,0.9 2.56,3.72 7.63,16.74 15.71,35.2 20.69,53.21 1.88,6.79 3.11,13.18 4.51,20.27 1.33,6.7 3.81,13.3 4.4,20.24 0.72,8.57 -3.12,12.67 -9.02,15.32 -6.06,2.72 -14.41,2.81 -20.85,0.46 -3.43,-1.25 -5.1,-2.52 -7.55,-4.84 -0.46,-0.44 -2.18,-2.73 -2.47,-3.66 -0.8,-2.54 2.76,-21.45 -13.97,-41.55l-5.84 -6.41c-1.03,-1.03 -2.09,-2 -3.05,-3.07 -1.13,-1.26 -2.19,-1.95 -3.22,-3.06 -0.65,-0.7 -0.92,-0.95 -1.55,-1.5 -0.6,-0.52 -0.95,-0.92 -1.55,-1.51l-3.24 -3.03c-0.82,-0.77 -5.98,-5.62 -6.13,-6.21zm-2.51 -11.02c-0.93,-1.36 -1.01,-5.29 -1.85,-7.78 -0.32,-0.94 -0.8,-1.46 -1.05,-2.18 2.32,-1.63 1.83,-1.32 4.58,-2.46 1.11,-0.46 3.86,-1.61 4.35,-2.64 0.14,1.72 -2.52,5.67 -3.29,7.07 -1.68,3.02 -2.06,4.13 -2.73,7.98zm80.06 -10.92c2.28,0.99 3.69,-1.87 7.15,-1.32 -0.7,1.98 -4.44,1.84 -4.11,4.16 1.76,1.79 4.75,-1.73 4.76,1.8 -2.01,-0.11 -4.14,0.1 -5.4,1.23 0.27,0.51 0.86,0.68 1.4,0.9 0.62,0.25 1.1,0.37 1.4,0.9 -6.4,0.25 -10.88,2.54 -14.02,7.47 -0.73,1.15 -1.92,3.48 -2.21,5.03 -3.98,-2.65 0.81,-9.05 2.19,-11.47 1.42,-2.49 0.56,-3.03 1.18,-7.22 0.24,-1.61 1.18,-5.36 2.11,-6.26 1.49,1.34 -0.52,3.26 -0.68,5.25 2.66,-0.51 5.38,-3.73 7.1,-5 2.58,-1.9 2.58,-0.06 1.65,1.19 -0.58,0.78 -2.64,2.29 -2.53,3.35zm-0.84 -7.29c-0.35,0.92 -0.32,1.52 -0.57,2.29 -1.6,-0.02 -1.21,-1.37 -2.68,-2.9 -1.14,0.13 -1.62,1.24 -3.36,0.69 -1.14,-0.36 -1.59,-1.21 -2.37,-1.85 -1.25,0.79 -4.72,9.15 -5.55,9.32 -0.63,-3.6 2.36,-7.55 1.88,-11.2 -1.7,-0.49 -7.79,-0.76 -6.16,-3.39l0.24 -0.07c1.05,-0.15 -0.84,0.01 0.25,-0.03 0.13,-0 0.51,0.05 0.65,0.08 3.92,0.69 5.12,3 6.98,0.31 1.55,-2.25 1.24,-7.02 2.94,-8.74 2.5,1.46 0.36,5.42 -0.66,7.5 -0.59,1.21 -0.76,1.39 0.06,2.34 1.05,1.2 2.37,2.27 3.86,3.17 0.71,0.42 1.46,0.87 2.26,1.26 0.62,0.3 1.74,0.81 2.24,1.24zm-90.69 -44.37c4.56,-3.79 16.8,-8.2 22.27,-10.02 7.65,-2.54 13.36,-4.4 20.59,-7.72 0.79,-0.36 1.99,-1.12 2.74,-1.37 0.68,1.13 3.07,18.69 3.51,21.57 0.55,3.57 1.16,7.14 1.89,10.65 0.35,1.71 0.73,3.44 1.16,5.12 0.42,1.66 1.04,3.41 1.4,5.02 -0.1,0.1 -0.08,0.09 -0.24,0.22l-0.95 0.57c-3.28,1.78 -5.87,3.23 -9.36,4.87 -7.57,3.56 -14.98,6.65 -22.98,9.46 -1.67,0.59 -11.15,4.01 -12.11,4.08 -1.25,-10.1 -1.33,-11.34 -3.75,-21.35 -1.2,-4.97 -4.09,-16.41 -4.15,-21.09zm-66.51 -51.52c2.52,-0.13 5.3,1.99 6.94,3.53l3.52 3.67c0.68,0.68 0.67,1.69 0.86,2.8 0.37,2.08 0.73,4.07 1.08,6.12 1.39,8.09 2.83,16.27 4.2,24.41 2.76,16.32 5.46,32.73 8.12,49.1 3.97,24.42 7.9,49.17 12.43,73.41 0.74,3.93 1.48,8.93 0.51,12.94 -0.83,3.44 -3.51,6.88 -6.51,7.9 -0.51,-0.89 -7.83,-43.56 -8.17,-45.56 -2.56,-15.34 -5.32,-30.67 -7.86,-45.99 -2.54,-15.35 -5.05,-30.7 -7.64,-46.07 -2.6,-15.4 -4.86,-30.88 -7.5,-46.26zm111.54 20.06c0.31,0.66 0.72,1.61 1.31,1.97 0.74,-9.54 -2.36,-16.65 -3.15,-25.65 -0.32,-3.68 -0.01,-5.69 0.63,-9.03 3.75,0.19 3.88,3.48 3.74,6.94 -0.36,8.31 2.15,19.43 4.18,27.2 3.97,0.27 9.08,-2.7 11.91,-4.25 2.46,-1.35 8.92,-4.65 12.38,-2.91 -0.29,1.06 -1.87,2.36 -2.7,2.96 -3.07,2.2 -8.18,3.82 -11.75,5.24 -2.64,1.05 -5.7,2.47 -7.29,4.03 -2.34,2.28 -2.15,5.34 -1.8,9.34 0.88,10.06 5.21,22.06 6.72,33.06 0.24,1.77 0.28,3.56 0.52,5.31 8.69,-0.54 15.61,-6.22 23.66,-8.34 -0.16,2.12 -2.63,4.54 -4.45,5.61 -2.15,1.26 -4.72,2.05 -7.37,2.88 -2.71,0.85 -4.97,1.53 -7.26,2.84 -1.18,0.67 -1.28,1 -1.46,3.63 -0.13,1.98 0.16,2.94 0.83,4.48 -2.42,-0.99 -2.89,-1.7 -6.84,-3.02 -2.63,-0.88 -5.5,-1.49 -8.52,-1.49 0.7,-1.04 6.79,-3.39 7.13,-4.86 -0.77,-7.93 -2.18,-15.43 -3.63,-23.05 -1.11,-5.83 -3.33,-17.44 -3.66,-23.02 -0.92,0.13 -10.93,4.04 -12.87,4.71 -8.61,3 -23.44,8.54 -31.67,12.24 -1.2,0.54 -5.28,2.27 -6.09,2.8 -0.08,3.49 3.5,20.11 4.26,23.59 1.69,7.7 3.5,15.22 4.83,23.18 4.99,0.37 11.05,-4.85 15.89,-5.35 0.2,2.07 -0.65,3.29 -2.21,4.44 -4.08,3.01 -10.8,4.9 -13.03,6.92 0.15,1.65 0.65,3.57 0.89,5.3 0.26,1.8 0.5,3.74 0.69,5.57 0.38,3.57 0.76,7.47 1.46,10.93 1.04,5.16 7.09,14.37 2.4,18.86 -4.23,-7.91 -4.99,-18.69 -6.9,-27.82 -0.51,-2.43 -1.03,-4.55 -1.81,-6.92 -0.3,-0.92 -0.81,-1.46 -0.85,-2.15 1.12,-0.42 1.78,-0.5 1.7,-1.94 -3.79,-0.12 -11.38,3 -14.63,4.32 -4.51,1.84 -9.61,3.99 -15.26,4.02 0.46,-5.14 6.84,-6.17 11.42,-7.71 2.87,-0.96 12.45,-3.57 14.12,-4.89 0.44,-1.81 0.42,-1.45 1.87,-2.37 0.96,-14.07 -7.25,-29.81 -7.54,-41.72 -0.08,-3.29 -0.31,-3.4 -1.51,-5.69 -7.31,1.26 -21.98,9.82 -31,11.32 0.8,-1.52 -0.55,-1.09 -1.93,-1.18 2.81,-6.14 21.18,-9.6 29.73,-13.87 0.67,-0.33 1.26,-0.76 1.9,-1.01 0.61,-15.07 -7.44,-27.9 -6.1,-42.54 3.07,1.79 4.32,5.57 4.98,10.18 1.43,10.02 1.89,15.99 4.38,26.22 0.26,1.07 0.48,2.01 0.77,3.06 0.2,0.74 0.23,0.75 0.89,0.95 2.81,0.83 4.61,-1.43 6.82,-2.49 6.84,-3.29 22.73,-6.55 33.85,-12.05 3.1,-1.53 7.33,-4.1 9.18,-6.1l-2.12 0.79c-0.61,0.91 -42.25,16.69 -47.08,18.26 -0.04,-0.17 -0.48,-5.91 -0.84,-8 -0.84,-4.9 -2.41,-10.34 -3.04,-15.04 -0.59,-4.42 -0.76,-15.31 -4.96,-17.37 -1.18,-0.58 -2.7,-0.47 -3.61,0.23 -3.75,2.87 -0.52,13.4 -0.66,15.04 0.6,0.71 1.56,7 1.82,8.45 0.51,2.88 1.29,5.88 1.72,8.64l2.72 10.57 -8.3 3.4c-7.56,2.94 -17.9,6.54 -24.03,10.94 0,3.61 2.07,3.49 3.57,5.4 1.17,-0.24 2.76,-0.95 3.9,-1.38 1.25,-0.47 2.49,-0.93 3.75,-1.45 2.92,-1.19 21.26,-8.37 22.97,-8.46 0.07,7.73 1.72,15.18 3.45,22.26 0.84,3.43 1.75,6.84 2.52,10.32 0.34,1.54 2.09,9.86 1.87,10.94 -0.32,1.56 -6.25,4.22 -7.99,4.88 -5.86,2.2 -16.11,4.01 -20.26,8.67 -0.54,0.6 -0.11,1.47 0.29,2.22 0.7,1.33 2.07,2.75 3.04,3.54 1.47,-0.18 4.99,-1.48 6.54,-2.03l12.74 -4.4c1.63,-0.52 5.27,-1.71 6.88,-1.85 0.57,1.05 3.51,17.21 4,19.73 0.89,4.53 2.02,10.08 3.25,14.5 0.38,1.36 1.05,3.34 1.3,4.68 2.01,0.01 2.38,-0.39 3.57,-1.21 0.31,-0.21 0.11,-0.13 0.44,-0.26 0.49,-1.2 2.76,-3.41 2.8,-4.51 0.03,-0.65 -0.12,-1.68 -0.24,-2.3 -0.53,-2.75 -1.87,-4.89 -2.18,-7.76 1.67,0.69 5.13,4.01 6.61,5.47 1.14,1.12 1.79,1.86 2.83,3.13 0.94,1.15 1.63,2.28 2.52,3.58 -0.13,0.3 0.21,-0.01 -0.52,0.41 -0.03,0.02 -0.08,0.03 -0.12,0.06 0.54,0.16 1.01,0.43 1.51,0.67 1.09,0.52 3.05,0.59 4.06,2.68 -2.06,2.12 -5.74,0.59 -8.31,0.03 0.27,-0.54 0.43,-0.45 0.56,-0.86 -1.41,-0.2 -3.73,-0.24 -4.95,-0.55 -1.85,-0.47 -1.65,-0.8 -2.83,1.33l-0.28 0.42c-0,1.69 -2.39,2.35 -4.58,3.43 -10.78,5.35 -21.58,11.09 -32.39,16.28 -1.87,0.9 -3.67,1.87 -5.53,2.63 -0.1,-0.17 -0,0.14 -0.16,-0.35l-5.03 -30.63c-1.52,-9.09 -15.89,-91.45 -15.6,-92.78l-0.34 -1.3c-0.96,-6.43 -2.51,-14.3 -3.19,-20.35l-2.65 -17.62c2.05,-0.44 4.34,-1.26 6.4,-1.86 9.79,-2.82 22.08,-6.71 31.68,-9.93 4.14,-1.39 8.37,-2.8 12.57,-4.1 8.29,-2.56 16.64,-5.48 24.99,-8.21 2.97,-0.97 24.13,-8.02 25.32,-7.95l0.54 -0.29c0.13,-0.05 0.35,-0.11 0.47,-0.15l14.58 -4.39c1.69,-0.49 14.3,-4.18 15.78,-4.41l1.85 9.66c0.3,0.89 1.32,5.94 1.2,6.69 0.11,0.17 0.04,-0 0.17,0.35l17.14 89.83c1.36,7.21 2.75,15.27 4.72,22.2 0.43,1.5 1.65,6.19 0.67,7.61 -0.21,0.85 -0.42,1.24 -0.92,1.85 -0.68,0.84 -0.46,0.82 -0.48,2.18 2.22,-0.44 6.94,-2.4 9.74,1.04 -0.2,0.19 -0.38,0.44 -0.63,0.66l-4.16 3.19c-0.66,0.47 -1.18,0.75 -1.85,1.21 -2.38,1.63 -4.97,2.9 -7.62,4.32l-16.03 7.88c0.15,-1.22 1.3,-2.95 2.09,-4.24 3,-4.94 6.8,-6.16 12.96,-5.79l2.01 -2.65c0.74,-0.9 1.3,-1.52 1.79,-2.8 0.25,-0.65 0.31,-1.14 0.49,-1.82 0.4,-1.56 -0.02,-0.57 -0.01,-1.66 0.01,-0.85 0.47,-0.92 -0.06,-1.93 -0.36,-0.69 -0.78,-0.75 -1.1,-1.39 -0.44,-0.09 -0.77,-0.37 -1.18,-0.62 -1.6,-0.97 -2.43,-1.39 -2.5,-3.42 -2.91,-0.87 -10.16,-5.31 -12.69,-7.08 0.94,-1.88 1.86,-2.64 2.24,-5.92 0.69,-6.01 -4.26,-8.93 -6.49,-1.9 -0.32,1.01 -0.57,2.2 -0.83,3.29 -0.3,1.24 -0.71,2.2 -1.04,3.25 -2.12,-0.35 -5.18,-2.25 -7.5,-1.55 -2.75,0.83 -3.17,5.32 5.53,6.94 -0.43,1.9 -3.61,6.29 -2.89,9.62 0.68,3.16 3.03,2.76 4.87,1.2 2.18,-1.86 2.73,-6.28 5.31,-7.61 -0.16,1.44 -1.9,8.42 -2.37,10.09 -0.59,2.09 -2.48,7.63 -3.62,8.74l-6.84 -14.85c-2.27,-5.25 -4.14,-10.53 -5.3,-16.58 -0.15,-0.79 -0.82,-3.95 -0.53,-4.47 1.12,-2.03 9.22,-4.32 11.34,-5.03 3.59,-1.19 8.71,-2.86 9.37,-6.98 0.31,-1.96 -0.25,-3.1 -0.68,-4.69 -8.96,0.92 -17.29,8.21 -23.2,8.36 -1.17,-8.78 -1.85,-12.73 -3.74,-21.36 -1.04,-4.75 -3.66,-17.37 -3.54,-21.73 1.82,-1.7 8.75,-4.69 11.71,-5.76 2.33,-0.84 6.93,-2.78 9.17,-3.99 1.04,-0.56 1.87,-1.1 2.83,-1.6 0.14,-2.65 -0.45,-6.02 -3.02,-6.14 -2.75,-0.14 -5.25,0.84 -7.4,1.83 -3.63,1.69 -8.68,5.27 -13.12,5.4 -1.34,-0.3 -4.38,-16.48 -4.5,-17.23 -1.42,-9.24 0.83,-16.16 -6.21,-15.71 -1.38,0.41 -2.26,0.97 -2.67,2.41 -0.77,2.72 0.66,10.5 0.96,14.15 0.52,6.13 0.83,12.75 2.98,17.97zm37.91 -63.6c0.78,2.81 1.37,5.91 2.06,8.83 4.81,20.47 9.19,43.39 13.12,63.98 2.36,12.36 4.6,24.71 6.95,37.11 1.17,6.2 2.33,12.33 3.48,18.56 0.89,4.81 3.02,14.63 3.55,18.66 -6.58,-0.57 -6.94,-9.1 -7.84,-14.97 -0.99,-6.42 -2.38,-12.85 -3.61,-19.2 -2.46,-12.73 -4.87,-25.51 -7.34,-38.25l-11.31 -57.08c-0.64,-3.11 -1.26,-6.27 -1.97,-9.37 -0.32,-1.39 0.4,-1.42 1.43,-3.88 0.43,-1.03 1.09,-3.75 1.48,-4.39zm-146.73 42.22c0.86,-0.44 7.28,-2.45 8.79,-2.94 8.86,-2.87 17.95,-5.8 26.91,-8.43 12.07,-3.55 24.05,-7.3 36.18,-10.79 17.55,-5.05 36.69,-10.75 54.13,-16.4l13.28 -4.32c1.14,-0.36 3.4,-1.28 4.38,-1.39 0.46,0.46 1.01,0.81 1.07,1.8 0.11,1.85 -1.71,3.47 -2.36,5.9 -6.08,2.02 -12.2,3.69 -18.26,5.61 -6.05,1.91 -12.12,3.81 -18.19,5.68 -12.1,3.74 -24.06,7.79 -36.04,11.54 -5.99,1.87 -12.03,3.89 -18,5.87 -5.97,1.98 -11.99,3.86 -18,5.87l-22.47 7.37c-0.76,0.25 -1.71,0.77 -2.4,0.37 -1.99,-1.15 -3.56,-4.96 -9.02,-5.73zm72.39 -24.47c-0.35,0.28 -0.8,0.36 -1.25,0.5l-3.64 1.1c-1.62,0.5 -3.31,1 -4.93,1.5 -19.65,5.96 -38.73,12.09 -58.25,18.25 -1.67,0.53 -3.18,1.05 -4.84,1.59 -1.01,0.33 -3.93,1.14 -4.69,1.59l0.9 5.81 4.14 25.27c1.39,8.52 2.82,16.96 4.26,25.41 2.88,16.91 5.76,33.67 8.67,50.54 2.91,16.87 5.81,33.66 8.73,50.49 0.73,4.19 1.49,8.36 2.03,12.64 0.52,4.19 1,8.89 2.02,12.84 2.22,8.64 6.04,5.94 12.64,1.73 1.56,-0.99 2.94,-1.79 4.73,-2.73l9.46 -4.81c9.97,-4.89 16.18,-8.23 25.52,-13.8 0.78,-0.47 1.46,-0.99 2.3,-1.38 0.89,0.99 1.59,1.73 3.6,1.3 2,-0.42 2.29,-0.75 4.4,-0.24 1.19,-3.8 2.49,-7.87 6.3,-8.79 7.62,-1.83 13.4,9.18 15.47,14.53 1.78,4.6 1.72,7.73 2.39,12.79 0.3,6.16 1,12.14 4.33,15.83 3.43,3.81 7.63,5.96 12.93,7.11 12.16,2.62 24.42,-1.76 27.83,-10.71 3.09,-8.1 -1.66,-25.9 -3.73,-34.19 -1.33,-5.31 -2.76,-10.56 -4.23,-15.82 -0.48,-1.73 -4.14,-15.4 -3.92,-16.08 0.23,-0.7 6.9,-4.5 7.91,-5.05 7.12,-3.87 17.89,-8 24.01,-13.32 0.47,-0.41 0.43,-0.49 0.92,-0.73l-5.56 -28.58c-3.75,-19.06 -7.25,-38.41 -10.89,-57.49 -0.92,-4.81 -1.81,-9.6 -2.73,-14.42 -0.46,-2.37 -0.9,-4.82 -1.37,-7.21 -0.26,-1.31 -1.36,-6.29 -1.27,-7.27 -0.49,-0.63 -3.68,-18.35 -4.16,-20.81 -0.67,-3.47 -1.06,-7.17 -1.83,-10.54 -0.92,-4.04 -1.65,-5.47 -3.8,-8.54l-0.47 0c-1.11,0.62 -3.32,1.04 -4.72,1.45l-32.35 9.42c-1.49,0.44 -36.31,10.85 -36.85,10.82z"/>
    </g>
    <g>
     <path class="fil0 str0" d="M104.91 167.78c5.2,1.29 9.03,7.65 10.27,12.49 0.4,1.57 0.95,5.52 0.36,7 -0.21,0.23 -10.73,1.26 -15.06,-9.15 -0.69,-1.66 -1.68,-4.63 -1.83,-6.54l0.2 0.17c0.73,0.73 1.43,2.59 2.35,3.66 2.21,2.57 6.73,3.55 5.56,-2.96 -0.5,-2.75 -1.21,-3.11 -1.86,-4.67zm-8.89 5.26c0.63,9.21 9.69,17.64 19.45,15.55 1.86,-0.4 2.43,-0.36 2.83,-3.14 1.02,-7.18 -4.31,-16.63 -9.59,-19.98 -6.85,-4.35 -13.27,-0.99 -12.69,7.57z"/>
     <path id="1" class="fil1" d="M104.91 167.78c5.2,1.29 9.03,7.65 10.27,12.49 0.4,1.57 0.95,5.52 0.36,7 -0.21,0.23 -10.73,1.26 -15.06,-9.15 -0.69,-1.66 -1.68,-4.63 -1.83,-6.54l0.2 0.17c0.73,0.73 1.43,2.59 2.35,3.66 2.21,2.57 6.73,3.55 5.56,-2.96 -0.5,-2.75 -1.21,-3.11 -1.86,-4.67zm-8.89 5.26c0.63,9.21 9.69,17.64 19.45,15.55 1.86,-0.4 2.43,-0.36 2.83,-3.14 1.02,-7.18 -4.31,-16.63 -9.59,-19.98 -6.85,-4.35 -13.27,-0.99 -12.69,7.57z"/>
    </g>
    <g>
     <path class="fil0 str0" d="M132.13 154.59c2.68,1.01 4.46,6.97 4.8,10.04 0.25,2.23 0.2,4.57 -0.34,6.68 -0.47,1.85 -1.58,4.01 -2.72,4.63 -1.65,-0.65 -3.24,-2.26 -4.15,-3.35 -1.04,-1.23 -1.99,-2.96 -2.7,-4.8 -1.46,-3.79 -2.13,-8.61 -2.22,-13.03 1.46,1.33 0.92,6.78 4.71,7.48 5.82,1.07 2.79,-5.77 2.61,-7.65zm-3.15 -5.27c-9.31,0 -6.43,16.35 -2.53,23.79 1.4,2.67 2.91,4.97 6.2,4.97 10.96,0 7.49,-28.76 -3.67,-28.76z"/>
     <path id="1" class="fil1" d="M132.13 154.59c2.68,1.01 4.46,6.97 4.8,10.04 0.25,2.23 0.2,4.57 -0.34,6.68 -0.47,1.85 -1.58,4.01 -2.72,4.63 -1.65,-0.65 -3.24,-2.26 -4.15,-3.35 -1.04,-1.23 -1.99,-2.96 -2.7,-4.8 -1.46,-3.79 -2.13,-8.61 -2.22,-13.03 1.46,1.33 0.92,6.78 4.71,7.48 5.82,1.07 2.79,-5.77 2.61,-7.65zm-3.15 -5.27c-9.31,0 -6.43,16.35 -2.53,23.79 1.4,2.67 2.91,4.97 6.2,4.97 10.96,0 7.49,-28.76 -3.67,-28.76z"/>
    </g>
    <g>
     <path class="fil0 str0" d="M69.52 186.81c-2.32,17.74 -24.1,14.7 -23,-1.69 1.08,-16.1 25.35,-16.26 23,1.69zm-25.66 -0.15c1.12,7.62 6.76,14.07 15.2,13.96 9.33,-0.12 13.38,-7.66 13.28,-15.8 -0.06,-4.58 -1.71,-8.26 -3.96,-10.68 -2.41,-2.59 -6.38,-3.6 -11.17,-3.11 -9.15,0.95 -14.57,7.21 -13.34,15.63z"/>
     <path id="1" class="fil1" d="M69.52 186.81c-2.32,17.74 -24.1,14.7 -23,-1.69 1.08,-16.1 25.35,-16.26 23,1.69zm-25.66 -0.15c1.12,7.62 6.76,14.07 15.2,13.96 9.33,-0.12 13.38,-7.66 13.28,-15.8 -0.06,-4.58 -1.71,-8.26 -3.96,-10.68 -2.41,-2.59 -6.38,-3.6 -11.17,-3.11 -9.15,0.95 -14.57,7.21 -13.34,15.63z"/>
    </g>
    <g>
     <path class="fil0 str0" d="M86.87 47.04c5.25,-0.62 11.15,1.98 12.69,6.7 2.86,8.8 -2.44,17.5 -11.94,18.7 -8.1,1.03 -13.92,-4.44 -13.56,-12.32 0.34,-7.17 5.94,-12.26 12.81,-13.08zm0.45 -2.46c-21.24,1.49 -19.08,31.51 0.65,30.51 5.49,-0.28 8.98,-2.68 11.83,-7.26 3.89,-6.25 4.82,-14.39 -1.04,-19.4 -2.54,-2.17 -6.79,-4.17 -11.44,-3.84z"/>
     <path id="1" class="fil1" d="M86.87 47.04c5.25,-0.62 11.15,1.98 12.69,6.7 2.86,8.8 -2.44,17.5 -11.94,18.7 -8.1,1.03 -13.92,-4.44 -13.56,-12.32 0.34,-7.17 5.94,-12.26 12.81,-13.08zm0.45 -2.46c-21.24,1.49 -19.08,31.51 0.65,30.51 5.49,-0.28 8.98,-2.68 11.83,-7.26 3.89,-6.25 4.82,-14.39 -1.04,-19.4 -2.54,-2.17 -6.79,-4.17 -11.44,-3.84z"/>
    </g>
    <g>
     <path class="fil0 str0" d="M123.6 41.02c2.34,-0.52 3.48,0.91 4.77,1.97 0.46,0.38 1.5,1.27 2.29,0.93 2.15,-0.93 2.95,-5.14 3.54,-7.03 0.26,-0.84 0.65,-1.77 1.1,-2.42 0.52,-0.75 1,-1.44 2.09,-0.94 1.25,3.38 -4.33,9.21 -3.23,11.02 1.15,1.89 4.28,2.5 6.46,2.55l0 3.55c-2.17,-0.26 -3.99,-0.96 -5.54,-2.26 -0.53,-0.45 -0.69,-0.8 -1.19,-1.27 -2.64,1.16 -3.4,8.14 -7.19,8.86 0.94,-2.27 1.26,-4.37 2.04,-6.51 0.79,-2.16 2.31,-1.8 -2.69,-4.61 -1.29,-0.72 -2.63,-1.82 -2.44,-3.85zm10.59 -8.58c-0.89,1.98 -1.04,1.49 -2.04,4.55 -0.38,1.17 -1.3,3.95 -1.95,4.59 -1.66,-0.69 -4.42,-3.26 -7.17,-2.4 -0.76,0.24 -1.74,0.87 -1.94,1.43 -0.7,1.99 0.92,3.89 1.89,4.56 1.39,0.96 3.17,1.47 4.13,2.57 -0.71,2.79 -2.75,6.05 -2.34,9.57 4.26,2.03 6.19,-1.46 7.54,-4.25 0.48,-1 1.12,-2.06 1.51,-2.89 1.07,0.38 1.67,1.14 4.09,1.79 1.41,0.38 3.84,0.7 5.11,-0.09 0.21,-2.15 0.58,-4.79 0.08,-6.58 -4,0.03 -4.36,0.02 -7.27,-1.63 0.24,-0.57 4.99,-4.55 3.95,-10.25 -0.12,-0.69 -0.33,-1.31 -0.62,-1.83 -0.54,-0.98 -0.69,-1.13 -1.31,-1.28 -3.16,0.84 -3.08,2 -3.66,2.14z"/>
     <path id="1" class="fil1" d="M123.6 41.02c2.34,-0.52 3.48,0.91 4.77,1.97 0.46,0.38 1.5,1.27 2.29,0.93 2.15,-0.93 2.95,-5.14 3.54,-7.03 0.26,-0.84 0.65,-1.77 1.1,-2.42 0.52,-0.75 1,-1.44 2.09,-0.94 1.25,3.38 -4.33,9.21 -3.23,11.02 1.15,1.89 4.28,2.5 6.46,2.55l0 3.55c-2.17,-0.26 -3.99,-0.96 -5.54,-2.26 -0.53,-0.45 -0.69,-0.8 -1.19,-1.27 -2.64,1.16 -3.4,8.14 -7.19,8.86 0.94,-2.27 1.26,-4.37 2.04,-6.51 0.79,-2.16 2.31,-1.8 -2.69,-4.61 -1.29,-0.72 -2.63,-1.82 -2.44,-3.85zm10.59 -8.58c-0.89,1.98 -1.04,1.49 -2.04,4.55 -0.38,1.17 -1.3,3.95 -1.95,4.59 -1.66,-0.69 -4.42,-3.26 -7.17,-2.4 -0.76,0.24 -1.74,0.87 -1.94,1.43 -0.7,1.99 0.92,3.89 1.89,4.56 1.39,0.96 3.17,1.47 4.13,2.57 -0.71,2.79 -2.75,6.05 -2.34,9.57 4.26,2.03 6.19,-1.46 7.54,-4.25 0.48,-1 1.12,-2.06 1.51,-2.89 1.07,0.38 1.67,1.14 4.09,1.79 1.41,0.38 3.84,0.7 5.11,-0.09 0.21,-2.15 0.58,-4.79 0.08,-6.58 -4,0.03 -4.36,0.02 -7.27,-1.63 0.24,-0.57 4.99,-4.55 3.95,-10.25 -0.12,-0.69 -0.33,-1.31 -0.62,-1.83 -0.54,-0.98 -0.69,-1.13 -1.31,-1.28 -3.16,0.84 -3.08,2 -3.66,2.14z"/>
    </g>
    <g>
     <path class="fil0 str0" d="M150.9 91.34c-1.5,14.37 -19.57,13.2 -18.28,-0.16 1.29,-13.31 19.75,-13.93 18.28,0.16zm-21.27 1.53c0.38,6.94 6.19,11.57 13.81,10.48 7.25,-1.03 11.42,-6.35 10.6,-13.84 -0.76,-6.92 -5.92,-11.67 -13.73,-10.39 -6.75,1.11 -11.1,6.03 -10.68,13.74z"/>
     <path id="1" class="fil1" d="M150.9 91.34c-1.5,14.37 -19.57,13.2 -18.28,-0.16 1.29,-13.31 19.75,-13.93 18.28,0.16zm-21.27 1.53c0.38,6.94 6.19,11.57 13.81,10.48 7.25,-1.03 11.42,-6.35 10.6,-13.84 -0.76,-6.92 -5.92,-11.67 -13.73,-10.39 -6.75,1.11 -11.1,6.03 -10.68,13.74z"/>
    </g>
    <g>
     <path class="fil0 str0" d="M86.55 111.18c0.23,-0.21 0.12,-0.23 0.15,-0.35l1.36 -0.83c-0.09,-0.44 -0.4,-0.74 -0.68,-1.4 -0.25,-0.6 -0.38,-1.23 -0.37,-1.94 1.09,0.6 2.47,2.26 5.15,2.83 2.47,0.53 4.89,-0.54 6.14,-1.71 1.47,-1.38 2.33,-2.47 3.46,-4.5 1.14,-2.05 2.01,-5.16 2.28,-5.62 0.85,0.7 1.1,2.31 0.96,3.62 -0.3,2.89 -3.98,8.46 -3.43,10.55 1.34,2.38 5.65,1.61 8.56,1.87 -0.02,1.43 -0.3,2.06 -1.34,3.5 -1.3,0.07 -2.66,-0.24 -3.77,-0.68 -0.83,-0.33 -2.45,-1.24 -3.16,-1.25l-0.34 0.1c0.1,0.04 0.13,0.22 0.68,0.29l-0.61 0.51c-0.05,0.04 -0.1,0.07 -0.15,0.1l0.91 -0.18c-0.03,0.06 -0.11,0.03 -0.13,0.1 -0.04,0.12 -0.15,-0.04 -0.35,0.22 -0.01,0.01 -0.03,0.04 -0.03,0.06 -0.01,0.02 -0.02,0.06 -0.02,0.08l-0.56 -0.02c-0.03,-0.02 -0.08,-0.06 -0.12,-0.09l-0.21 0.36c-0.18,0.19 -0,0.17 -0.4,0.25 0.29,0.28 0.2,0.04 0.3,0.46l-0 0.15c-0,0.01 -0.02,0.04 -0.02,0.05l-0.06 0.06c0.35,-0.11 0.45,-0.27 0.86,-0.43 1.82,0.87 2.81,1.78 5.92,1.47 3.49,-0.35 6.17,-2.65 5.23,-5.87 -0.18,-0.61 -0.27,-0.68 -0.97,-0.87 -2.67,-0.76 -6.3,0.57 -8.3,-1.32 0.5,-0.98 1.33,-1.98 1.98,-3.15 1.35,-2.45 2.49,-5.37 2.08,-8.27 -0.27,-1.9 -0.94,-2.49 -1.62,-3.69 -6.92,0.01 -5.95,5.93 -8.32,10.69 -0.97,1.96 -1.53,2.01 -2.83,1.79 -1.34,-0.23 -2.41,-0.65 -3.54,-1.18 -2.08,-0.97 -4.41,-2.5 -7.34,-2.23 0.05,2.18 0.83,5.02 2.35,6.31 0.23,0.2 0.1,0.13 0.33,0.19z"/>
     <path id="1" class="fil1" d="M86.55 111.18c0.23,-0.21 0.12,-0.23 0.15,-0.35l1.36 -0.83c-0.09,-0.44 -0.4,-0.74 -0.68,-1.4 -0.25,-0.6 -0.38,-1.23 -0.37,-1.94 1.09,0.6 2.47,2.26 5.15,2.83 2.47,0.53 4.89,-0.54 6.14,-1.71 1.47,-1.38 2.33,-2.47 3.46,-4.5 1.14,-2.05 2.01,-5.16 2.28,-5.62 0.85,0.7 1.1,2.31 0.96,3.62 -0.3,2.89 -3.98,8.46 -3.43,10.55 1.34,2.38 5.65,1.61 8.56,1.87 -0.02,1.43 -0.3,2.06 -1.34,3.5 -1.3,0.07 -2.66,-0.24 -3.77,-0.68 -0.83,-0.33 -2.45,-1.24 -3.16,-1.25l-0.34 0.1c0.1,0.04 0.13,0.22 0.68,0.29l-0.61 0.51c-0.05,0.04 -0.1,0.07 -0.15,0.1l0.91 -0.18c-0.03,0.06 -0.11,0.03 -0.13,0.1 -0.04,0.12 -0.15,-0.04 -0.35,0.22 -0.01,0.01 -0.03,0.04 -0.03,0.06 -0.01,0.02 -0.02,0.06 -0.02,0.08l-0.56 -0.02c-0.03,-0.02 -0.08,-0.06 -0.12,-0.09l-0.21 0.36c-0.18,0.19 -0,0.17 -0.4,0.25 0.29,0.28 0.2,0.04 0.3,0.46l-0 0.15c-0,0.01 -0.02,0.04 -0.02,0.05l-0.06 0.06c0.35,-0.11 0.45,-0.27 0.86,-0.43 1.82,0.87 2.81,1.78 5.92,1.47 3.49,-0.35 6.17,-2.65 5.23,-5.87 -0.18,-0.61 -0.27,-0.68 -0.97,-0.87 -2.67,-0.76 -6.3,0.57 -8.3,-1.32 0.5,-0.98 1.33,-1.98 1.98,-3.15 1.35,-2.45 2.49,-5.37 2.08,-8.27 -0.27,-1.9 -0.94,-2.49 -1.62,-3.69 -6.92,0.01 -5.95,5.93 -8.32,10.69 -0.97,1.96 -1.53,2.01 -2.83,1.79 -1.34,-0.23 -2.41,-0.65 -3.54,-1.18 -2.08,-0.97 -4.41,-2.5 -7.34,-2.23 0.05,2.18 0.83,5.02 2.35,6.31 0.23,0.2 0.1,0.13 0.33,0.19z"/>
    </g>
    <g>
     <path class="fil0 str0" d="M140.61 185.6c1.48,2.76 1.57,6.7 0.31,9.63 -2.32,5.36 -9.03,9.2 -14.91,8 -2.72,-0.55 -5.87,-2.84 -6.65,-4.99l-0.95 3.7c-0.32,2.7 -0.67,2.42 -0.91,3.5 2.45,-0.06 1.83,-1.42 3.5,-2.38 0.55,0.23 1.14,0.72 1.81,1.09 8.63,4.69 21.03,-1.74 20.89,-13.98 -0.01,-1.24 0.27,-1.25 0.95,-1.91 0.62,-0.61 0.91,-0.82 0.83,-2.04 -2.75,0.78 -2.32,-0.47 -4.88,-0.61z"/>
     <path id="1" class="fil1" d="M140.61 185.6c1.48,2.76 1.57,6.7 0.31,9.63 -2.32,5.36 -9.03,9.2 -14.91,8 -2.72,-0.55 -5.87,-2.84 -6.65,-4.99l-0.95 3.7c-0.32,2.7 -0.67,2.42 -0.91,3.5 2.45,-0.06 1.83,-1.42 3.5,-2.38 0.55,0.23 1.14,0.72 1.81,1.09 8.63,4.69 21.03,-1.74 20.89,-13.98 -0.01,-1.24 0.27,-1.25 0.95,-1.91 0.62,-0.61 0.91,-0.82 0.83,-2.04 -2.75,0.78 -2.32,-0.47 -4.88,-0.61z"/>
    </g>
    <g>
     <path class="fil0 str0" d="M87.27 54.74c6.76,-1.03 5.73,9.94 -0.09,10.39 -6.79,0.53 -6.44,-9.4 0.09,-10.39zm-0.4 -1.88c-4.03,0.59 -7.19,3.06 -7.15,7.42 0.04,4.18 3.19,7.38 7.5,7.21 9.08,-0.36 9.92,-16.14 -0.35,-14.63z"/>
     <path id="1" class="fil1" d="M87.27 54.74c6.76,-1.03 5.73,9.94 -0.09,10.39 -6.79,0.53 -6.44,-9.4 0.09,-10.39zm-0.4 -1.88c-4.03,0.59 -7.19,3.06 -7.15,7.42 0.04,4.18 3.19,7.38 7.5,7.21 9.08,-0.36 9.92,-16.14 -0.35,-14.63z"/>
    </g>
    <g>
     <path class="fil0 str0" d="M56.28 190.34c-0.61,-0.89 -1.48,-1.47 -1.51,-3.23 -0.07,-3.63 4.21,-6.97 7.76,-5.03 0.14,2.3 0.05,4.58 -1.14,6.15 -0.98,1.29 -2.88,2.23 -5.11,2.11zm1.76 -10.61c-8.87,1.56 -6.01,14.7 1.71,12.97 6.52,-1.46 8,-14.68 -1.71,-12.97z"/>
     <path id="1" class="fil1" d="M56.28 190.34c-0.61,-0.89 -1.48,-1.47 -1.51,-3.23 -0.07,-3.63 4.21,-6.97 7.76,-5.03 0.14,2.3 0.05,4.58 -1.14,6.15 -0.98,1.29 -2.88,2.23 -5.11,2.11zm1.76 -10.61c-8.87,1.56 -6.01,14.7 1.71,12.97 6.52,-1.46 8,-14.68 -1.71,-12.97z"/>
    </g>
    <g>
     <path class="fil0 str0" d="M146 91.64c-0.48,2.99 -3.71,5.84 -6.45,3.66 -0.94,-0.75 -0.85,-1.47 -0.57,-3 0.81,-4.47 5.46,-5.26 6.42,-3.77 0.57,0.88 0.79,1.94 0.61,3.11zm-4.13 -5.4c-7.93,1.52 -7.36,13.37 1.16,11.94 4.42,-0.74 6.6,-4.85 5.09,-9.31 -0.51,-1.5 -3.72,-3.12 -6.25,-2.63z"/>
     <path id="1" class="fil1" d="M146 91.64c-0.48,2.99 -3.71,5.84 -6.45,3.66 -0.94,-0.75 -0.85,-1.47 -0.57,-3 0.81,-4.47 5.46,-5.26 6.42,-3.77 0.57,0.88 0.79,1.94 0.61,3.11zm-4.13 -5.4c-7.93,1.52 -7.36,13.37 1.16,11.94 4.42,-0.74 6.6,-4.85 5.09,-9.31 -0.51,-1.5 -3.72,-3.12 -6.25,-2.63z"/>
    </g>
   </g>
  </g>
 </g>
</svg>
