<?xml version="1.0" encoding="UTF-8"?>
<!DOCTYPE svg PUBLIC "-//W3C//DTD SVG 1.1//EN" "http://www.w3.org/Graphics/SVG/1.1/DTD/svg11.dtd">
<!-- Creator: CorelDRAW 2017 -->
<svg xmlns="http://www.w3.org/2000/svg" xml:space="preserve" width="53.4439mm" height="60.5471mm" version="1.1" style="shape-rendering:geometricPrecision; text-rendering:geometricPrecision; image-rendering:optimizeQuality; fill-rule:evenodd; clip-rule:evenodd"
viewBox="0 0 149.52 169.39"
 xmlns:xlink="http://www.w3.org/1999/xlink">
 <defs>
  <style type="text/css">
   <![CDATA[
    .str0 {stroke:white;stroke-width:1.48;stroke-miterlimit:22.9256}
    .fil0 {fill:#FEFEFE}
   ]]>
  </style>
 </defs>
 <g id="projekty">
  <metadata id="CorelCorpID_0Corel-Layer"/>
  <g id="_2882709922672">
   <path class="fil0 str0" d="M62.25 56.64c2.28,-1.23 3.11,0.1 4.25,1.49l55.99 68.04c4.52,5.34 20.48,24.05 22.78,29.17 3.94,8.8 2.76,14.39 -7.88,10.52 -3.42,-1.25 -5.83,-3.47 -7.75,-5.49 -8.96,-9.49 -19.95,-20.57 -28.49,-30.34l-50.89 -59.97c-1.47,-3.54 3.33,-5.96 4.99,-7.59 1.29,-1.27 5.5,-5.03 7,-5.83zm-27.13 6.18l0.56 1.85c-2.05,-0.23 -1.02,-0.16 -1.54,-0.75 -2.27,-1.17 -24.91,-32.04 -27.32,-35.16 -2.6,-3.38 -8.24,-8.32 -0.86,-12.3 5.76,7.96 -4.95,0.67 3.96,12.9l18.88 25.65c4.09,5.82 5.36,0.14 6.32,7.82zm22.08 -16.6c3.82,4.81 6.81,6.6 3.89,9.33l-12.25 10.66c-2.51,1.6 -3.28,-0.51 -4.46,-1.89 -1.32,-1.55 -2.54,-2.52 -3.83,-4.11 -1.31,-1.59 -2.01,-2.24 -3.55,-3.87 -12.02,-12.76 -24.86,-28.86 -31.56,-45.33 -1.03,-2.53 -1.58,-3.17 0.01,-5.23 1.34,-1.74 2.1,-2.26 4.38,-3.24 2.77,-1.2 15.64,9.33 18.2,11.35 6.01,4.73 10.67,9.43 15.36,15.39 2.32,2.95 4.55,5.39 6.97,8.4 2.37,2.95 4.52,5.6 6.84,8.53zm-52.07 -31.45c-1.42,1.78 -4.84,4.03 -4.35,7.28 0.43,2.89 21.28,29.21 24.45,33.34 3.91,5.09 7.27,11.51 11.4,10.21 0.44,-2.28 -0.36,-6.33 -1.49,-7.91 -1.73,-2.42 -2.6,-0.1 -5.29,-3.73l-15.73 -21.38c-2.89,-3.92 -7.13,-7.96 -5.91,-10.8 1.02,0.47 7.43,10.74 8.81,12.67 5.42,7.61 18.35,22.56 24.97,29.64 3.33,3.56 3.39,4.23 6.36,4.25 0.55,4.35 11.77,15.41 14.5,18.88l15.22 18.19c8.22,9.55 38.91,45.21 47.45,52.73 3.17,2.79 4.56,5.58 9.01,7.96 14.16,7.56 20.65,-2.34 5.79,-20.64l-29.97 -36.29c-5.11,-5.99 -9.85,-12.12 -15.08,-18.31 -5.05,-5.98 -9.82,-11.96 -15.08,-18.31l-11.2 -13.72c-0.51,-0.65 -1.41,-1.72 -1.96,-2.27 -1.15,-1.15 -1.16,-0.79 -2.12,-1.58 -2.17,-1.78 -0.26,0.15 -1.41,-2.82 -0.68,-1.74 -11.38,-14.64 -12.8,-16.39 -10.15,-12.49 -12.47,-16 -24.92,-25.44 -3.04,-2.31 -6.12,-4.61 -9.62,-6.81 -4.48,-2.82 -6.15,-4.42 -10.49,-0.17 -5.08,4.99 -1.58,5.39 -0.53,11.43z"/>
   <path class="fil0 str0" d="M34.14 63.92c0.53,0.59 -0.5,0.52 1.54,0.75l-0.56 -1.85 0.08 1.41 -1.07 -0.31z"/>
  </g>
 </g>
</svg>
