<?xml version="1.0" encoding="UTF-8"?>
<!DOCTYPE svg PUBLIC "-//W3C//DTD SVG 1.1//EN" "http://www.w3.org/Graphics/SVG/1.1/DTD/svg11.dtd">
<!-- Creator: CorelDRAW 2017 -->
<svg xmlns="http://www.w3.org/2000/svg" xml:space="preserve" width="57.3238mm" height="64.7876mm" version="1.1" style="shape-rendering:geometricPrecision; text-rendering:geometricPrecision; image-rendering:optimizeQuality; fill-rule:evenodd; clip-rule:evenodd"
viewBox="0 0 146.7 165.8"
 xmlns:xlink="http://www.w3.org/1999/xlink">
 <defs>
  <style type="text/css">
   <![CDATA[
    .str0 {stroke:#FEFEFE;stroke-width:1.81;stroke-miterlimit:22.9256}
    .fil1 {fill:none}
    .fil0 {fill:#FEFEFE}
   ]]>
  </style>
 </defs>
 <g id="projekty">
  <metadata id="CorelCorpID_0Corel-Layer"/>
  <g id="_2882814694736">
   <path class="fil0" d="M106.68 111.25c-1.69,4.18 -11.39,7.82 -17.33,8.65 -2.07,1.02 -13.47,2.27 -16.98,2.48 -3.15,0.19 -6.22,0.33 -9.47,0.35 -3,0.02 -7.15,-0.36 -9.9,-0.15 -1.06,0.01 -1.9,-0.09 -2.94,-0.15l-1.57 -0.1c-0.65,-0.15 -0.73,-0.27 -0.85,-0.32l-6.09 -0.57c-0.66,-0.05 -1.1,-0.11 -1.75,-0.22 -0.29,-0.05 -0.49,-0.04 -0.77,-0.13 -1.07,-0.31 -0.59,-0.22 -0.92,-0.47 -2.34,-0.01 -11.58,-2.58 -12.72,-3.44 -1.95,-0.54 -4.64,-1.62 -5.53,-3.06l-0.23 -0.1c-1.09,-0.39 -0.49,-0 -1.4,-0.92 -0.07,-0.07 -0.44,-0.47 -0.45,-0.47 -0.45,-0.58 -0.21,-0.19 -0.53,-0.93 -1.77,-1.51 -0.88,-8.23 -0.88,-11.17 -0.03,-29.22 0.23,-58.86 -0,-87.97 3.02,0.87 3.1,1.74 9.62,3.15 3.68,0.8 7.32,1.31 11.17,1.75 14.93,1.69 34.18,1.71 49.12,0.03 3.81,-0.43 7.53,-0.93 11.17,-1.73 6.61,-1.45 6.46,-2.18 9.84,-3.12l0.01 74.44c-0,3.22 0.69,23.29 -0.59,24.17zm31.12 -46.41c-0.07,0.54 0.04,0.43 -0.11,0.95 -0.48,1.75 0.02,0.2 -0.45,0.95 -1.86,8.57 -10.17,16.27 -18.24,18.34 -3.62,0.93 -7.78,0.37 -9.25,-2.33 -0.74,-1.37 -0.34,-30.7 -0.34,-36.36 0,-3.08 -0.97,-9.82 1.23,-11.13 0.56,-1.5 2.86,-3.66 4.68,-4.28 1.88,-1.92 6.97,-1.26 9.71,-0.25 2.44,0.91 6.4,3.44 6.92,5.14 0.6,0.39 0.23,0.05 0.78,0.64 0.14,0.15 0.39,0.51 0.52,0.7 0.52,0.76 0.66,1.04 1.01,1.98 1.52,1.43 3.12,8.51 3.55,11.46 0.78,5.38 0.62,8.85 -0,14.18zm-6.69 -37.1c2.2,0.97 6.83,5.44 7.93,7.94 0.8,0.47 2.22,3.54 2.51,4.77 2.86,3.52 3.72,19.93 2.09,25.21 -0.36,2.72 -1.51,6.12 -2.48,8.49 -0.55,1.34 -1.07,2.41 -1.78,3.75l-1.45 2.53c-0.03,0.05 -0.09,0.13 -0.12,0.17 -0.03,0.04 -0.09,0.11 -0.12,0.15 -0.57,0.67 -0.12,0.18 -0.39,0.37 -0.85,2.09 -4.51,6 -6.29,6.98 -0.68,1.61 -14.18,10.47 -21.47,4.8l-0.1 -6.97c3.66,1.35 4.07,2.37 10.06,1.3 10.94,-3.67 11.86,-7.63 14.85,-9.58 0.22,-1.29 0.32,-0.64 1.58,-2.59 1.37,-2.12 3.5,-6.61 3.69,-9.02 0.09,-0.57 0.13,-1.15 0.24,-1.67 0.01,-0.06 0.21,-0.79 0.22,-0.8 0.32,-0.69 0.05,-0.2 0.52,-0.71 -0.23,-0.57 -0.16,-8.18 -0.32,-9.74 -0.33,-3.2 -0.79,-5.76 -1.57,-8.85 -0.26,-0.44 -0.03,0.41 -0.38,-0.74 -0.16,-0.5 -0.09,-0.43 -0.18,-0.92 -0.26,-1.12 -0.85,-2.35 -1.34,-3.4 -0.28,-0.59 -0.54,-1.1 -0.83,-1.61 -0.58,-1.03 -0.58,-0.7 -0.71,-1.64l-5.66 -5.58c-1.45,-0.22 -10.54,-6.55 -18.2,0.58 -0.74,0.69 -0.9,1.26 -1.93,1.66l-0.02 -7.84c2.89,-0.96 8.97,-1.25 12.31,-0.72 2.46,0.39 8.57,2 9.38,3.71zm-114.58 -18.37c4.84,-9.66 86.25,-9.48 90.56,0 -4.92,9.57 -86.07,9.51 -90.56,0zm14.95 -7.54c-0.58,0.79 -2.74,0.8 -3.78,0.92l-1.7 0.17 -2.52 0.79 -1.18 0.1c-0.31,0.23 0.18,0.07 -0.87,0.52 -0.32,0.13 -0.7,0.2 -1.02,0.3 -1.84,0.16 -4.65,1.92 -5.44,3.01 -1.29,1.76 -0.77,5.13 -0.77,7.54l0 84.13c0,6.03 -0.93,11.76 2.03,14.84 1.52,1.58 2.73,2.45 4.97,3.59 1.44,0.74 4.21,2.09 5.79,2.34l1.63 0.58 9.34 2.19c0.59,0.05 1.27,0.08 1.76,0.16 0.11,0.02 0.73,0.16 0.8,0.19 1.11,0.41 0.12,-0.01 0.66,0.38 2.63,-0.12 8.03,0.79 11.19,1.01 6.86,0.49 16.4,0.34 23.28,-0.33 2.58,-0.25 8.55,-1.4 10.6,-1.26 1.1,-0.85 5,-1.26 6.64,-1.71 4.34,-1.19 11.25,-3.61 14.25,-6.81 0.49,-0.53 0.62,-0.73 0.94,-1.19 0.01,-0.02 0.37,-0.55 0.38,-0.56l0.7 -0.74c-0.08,-0.98 0.27,-2.51 0.27,-3.82l0.02 -12.5c1.62,0.21 2.96,1.05 5.14,1.16 5.14,0.26 10.33,-1.79 14.32,-4.33 15.78,-10.05 20.95,-31.56 15.95,-49.47 -0.37,-1.32 -1.4,-3.45 -1.41,-4.56l-1.25 -1.95c-1.55,-2.98 -3.16,-4.31 -4.18,-6.14 -0.51,-0.04 -0.35,0.12 -0.38,-0.43 -1.09,-0.49 -0.57,-0.24 -1.49,-1.16 -0.56,-0.57 -0.85,-0.73 -1.5,-1.26 -0.87,-0.7 -2.27,-1.56 -2.83,-2.43 -1.36,-0.14 -3.15,-1.38 -4.71,-1.92 -7.6,-2.65 -11.25,-1.19 -17.62,-0.77 -0.38,-3.32 0.59,-12.08 -0.63,-14.36 -1.17,-2.2 -6.69,-4.39 -10.12,-4.74l-2.63 -0.74 -3.6 -0.39c-0.84,-0.07 -1.63,-0.23 -2.49,-0.33 -0.36,-0.04 -0.77,-0.05 -1.13,-0.14 -1.58,-0.4 -0.27,0.05 -0.87,-0.45 -2.23,0.18 -4.8,-0.35 -7.01,-0.53 -10.94,-0.92 -25.31,-0.96 -36.17,-0.17 -3.63,0.26 -10.32,1.42 -13.35,1.28z"/>
   <path class="fil0" d="M88.39 12.68l-6.23 0.8c-3.42,-0.33 -9.86,0.4 -13.77,0.49 -4.78,0.11 -9.6,0.09 -14.38,-0.03 -4.66,-0.12 -9.13,-0.35 -13.77,-0.69 -4.17,-0.3 -8.65,-1.24 -12.44,-1.41l-2.54 -0.74c-1.48,-0.08 -3.73,-0.83 -4.48,-1.73 4.82,-6.25 73.33,-5.86 81.3,-0.65 1.06,0.69 0.18,-0 0.69,0.65 -1.7,2.11 -12.48,3.42 -14.39,3.31zm5.52 -7.56l-2.58 -0.32c-0.07,-0.02 -0.22,-0 -0.27,-0.11 -0.05,-0.12 -0.18,-0.09 -0.27,-0.13 -2.55,-0.06 -6,-0.6 -8.65,-0.79 -14.63,-1.03 -42.37,-1.07 -56.28,1.93 -2.67,0.58 -5.71,1.23 -6.76,3.37 -1.11,6.49 40.24,6.56 42.58,6.56 10.08,0.02 24.5,-0.5 34.53,-2.31 3.08,-0.56 7.95,-1.12 8.34,-4.25 -0.4,-2.44 -8.43,-3.92 -10.62,-3.95z"/>
  </g>
  <g id="_2882814693840">
   <ellipse class="fil1 str0" cx="62.07" cy="144.16" rx="61.17" ry="15.58"/>
   <path class="fil1 str0" d="M122.4 146.74c0.55,0.84 0.84,1.7 0.84,2.58 0,8.61 -27.38,15.58 -61.17,15.58 -33.78,0 -61.17,-6.98 -61.17,-15.58 0,-0.88 0.29,-1.74 0.84,-2.58 4.82,7.38 29.99,13.01 60.33,13.01 30.33,0 55.51,-5.63 60.33,-13.01z"/>
  </g>
 </g>
</svg>
