<?xml version="1.0" encoding="UTF-8"?>
<!DOCTYPE svg PUBLIC "-//W3C//DTD SVG 1.1//EN" "http://www.w3.org/Graphics/SVG/1.1/DTD/svg11.dtd">
<!-- Creator: CorelDRAW 2017 -->
<svg xmlns="http://www.w3.org/2000/svg" xml:space="preserve" width="68.1075mm" height="50.8474mm" version="1.1" style="shape-rendering:geometricPrecision; text-rendering:geometricPrecision; image-rendering:optimizeQuality; fill-rule:evenodd; clip-rule:evenodd"
viewBox="0 0 206.57 154.22"
 xmlns:xlink="http://www.w3.org/1999/xlink">
 <defs>
  <style type="text/css">
   <![CDATA[
    .str0 {stroke:white;stroke-width:1.07;stroke-miterlimit:22.9256}
    .fil0 {fill:#FEFEFE}
   ]]>
  </style>
 </defs>
 <g id="projekty">
  <metadata id="CorelCorpID_0Corel-Layer"/>
  <g id="_2882820103328">
   <path class="fil0 str0" d="M18.61 133.21c16.19,10.21 32.62,14.81 52.32,7.36 6.2,-2.35 10.02,-5 15.03,-7.77 4.76,-2.63 54.34,-31.73 57.48,-32.58 0.86,2.5 3.22,4.72 4.5,7.55l-15.23 8.59c-13.15,7.75 -33.14,19.48 -45.85,26.14 -17.71,9.28 -37.26,13.92 -55.7,2.23 -4.99,-3.16 -9.92,-7.34 -12.54,-11.52zm141.83 -43.03l4.16 7.83 -14.62 8.27c-1.54,-1.6 -4.3,-5.24 -5.07,-7.34l15.53 -8.76zm-9.32 -16.09l8.05 14.17 -15.57 8.83 -8.05 -14.33 15.57 -8.68zm-89.22 -6.66c-4.73,3.92 -20.79,10.07 -27.23,19.28 -2.8,4 -3.13,5.67 -4.14,11.09 -2.97,-8.8 0.39,-20.08 6.77,-26.08 7.03,-6.61 15.57,-10.88 23.76,-15.59l8.58 -4.88c5.31,-2.99 31.23,-18.45 34.21,-19.52l5.8 8.39 -47.76 27.32zm43.93 -36.86c2.41,-1.99 12.01,-7.25 15.02,-8.65l5.03 8.65 -14.23 8.23c-1.13,-1 -5.15,-6.72 -5.82,-8.23zm-33.89 16.59c-0.95,1.27 -24.12,14.07 -27.81,16.37 -8.22,5.13 -16.63,13.41 -16.77,27.64 0.39,8.25 2.65,10.7 4.63,17.09l5.04 7.27c12.09,16.7 28.59,7.58 43.48,-0.6 2.43,-1.33 13.65,-8.72 15.79,-8.98 0.62,-0.94 32.35,-19.94 37.1,-21.9l8.58 14.4c-3.32,1.28 -39.72,22.54 -45.69,26.05 -2.61,1.53 -4.83,2.83 -7.55,4.35 -8.05,4.49 -14.1,8.78 -23.4,11.32 -6.52,1.78 -13.55,2.33 -20.57,1.37 -9.89,-1.35 -25.96,-8.62 -30.64,-14.98 -2.86,-1.86 -6.94,-11.86 -8.06,-16.75 -2.24,-3.76 -2.86,-15.09 -2.07,-20.1 0.98,-6.21 3.85,-12.34 6.85,-16.48 7.03,-9.72 14.23,-14.81 25.02,-22.11 7.21,-4.88 57.85,-33.92 59.58,-33.98 1.2,4.31 5.83,8.42 7.07,13.05 -5.8,1.98 -25.19,15.32 -30.58,16.97zm40.63 -40.28l7.32 12.99 -15.61 8.69 -7.19 -12.97 15.48 -8.71zm-12.01 4.31l-59.83 34.44c-12.63,7.28 -22.19,13.71 -29.95,23.92 -14.13,18.57 -11.23,30.52 -5.64,44.04 2.08,5.02 4.91,11.18 7.64,15.91l3.86 4.89c11.7,14.65 26.73,21.15 46.83,18.85 5.69,-1.61 9.6,-2.28 15.06,-4.54 17.49,-7.22 82.84,-47.53 88.69,-49.55 -0.27,-3.23 -12.69,-23.09 -15.12,-27.65 -2.53,0.23 -53.47,30.12 -57.36,32.28 -23.11,12.85 -43.46,31.31 -58.13,6.99 -3.14,-5.21 -5.06,-11.22 -2.56,-17.94 2.24,-6.02 6.05,-9.16 10.09,-12.2 3.69,-2.78 9.51,-5.97 13.86,-8.41 4.84,-2.72 9.42,-5.34 14.16,-8.12 9.51,-5.59 18.74,-10.72 28.27,-16.28l28.18 -16.31c-0.11,-1.7 -14.07,-25.95 -15.4,-27.15 -2.56,0.47 -9.7,5.08 -12.64,6.82z"/>
   <path class="fil0 str0" d="M180.01 80.47c3.64,-1.33 8.93,-4.67 12.28,-6.56l10.76 -6.79c-6.37,1.87 -12.52,5.89 -18.43,7.87l2.55 -8.19c-4.72,1.91 -15.3,8.71 -19.37,11.94l14.8 -6.54 -2.6 8.27z"/>
   <path class="fil0 str0" d="M145.11 2.76l-7.43 4.62c-2.75,1.58 -5.63,3.13 -7.42,5.29l14.21 -6.19 -2.55 8.04c5.62,-1.67 21.38,-12.39 22.92,-12.79 -1.41,-1.02 -15.66,6.53 -18.25,7.42l2.51 -8.17 -3.98 1.79z"/>
  </g>
 </g>
</svg>
