<?xml version="1.0" encoding="UTF-8"?>
<!DOCTYPE svg PUBLIC "-//W3C//DTD SVG 1.1//EN" "http://www.w3.org/Graphics/SVG/1.1/DTD/svg11.dtd">
<!-- Creator: CorelDRAW 2017 -->
<svg xmlns="http://www.w3.org/2000/svg" xml:space="preserve" width="74.4376mm" height="61.0516mm" version="1.1" style="shape-rendering:geometricPrecision; text-rendering:geometricPrecision; image-rendering:optimizeQuality; fill-rule:evenodd; clip-rule:evenodd"
viewBox="0 0 245.38 201.26"
 xmlns:xlink="http://www.w3.org/1999/xlink">
 <defs>
  <style type="text/css">
   <![CDATA[
    .str0 {stroke:white;stroke-width:1.74;stroke-linejoin:round;stroke-miterlimit:22.9256}
    .fil1 {fill:none}
    .fil0 {fill:#FEFEFE}
   ]]>
  </style>
 </defs>
 <g id="projekty">
  <metadata id="CorelCorpID_0Corel-Layer"/>
  <path class="fil0" d="M12.16 152.57c-10.88,-6.87 -8.34,-8.27 -1.88,-18.5 3.7,-5.86 7.38,-11.43 10.91,-17.31 5.35,2.25 13.95,8.89 19.65,12.24 -0.3,1.13 -14.2,23.87 -16.68,26.02 -4.12,3.55 -8.4,-0.17 -12,-2.44zm34.77 -35.53c0.79,2.78 -2.19,6.36 -3.23,7.81 -4.09,-1.81 -15.26,-9.58 -19.65,-12.28 0.77,-2.18 2.89,-5.96 5.31,-6.42 2.72,-0.53 16.94,8.67 17.57,10.89zm19.58 -47.41c-2.42,-2.15 -1.06,-3.23 0.35,-5.41 1.19,-1.84 2.03,-3.65 3.49,-5.16l3.41 2.26c-1.32,1.48 -2.06,2.95 -3.06,4.55 -1.09,1.74 -1.47,3.59 -4.2,3.77zm-6.95 -52.94c5.58,4.69 19.47,7.2 27.48,11.16 3.77,1.86 5.29,3.67 8.13,5.14 5.62,3.91 10.23,10.87 15.29,15.61 4.99,4.69 14.41,6.68 19.1,8.89 4.69,2.21 2.5,12.11 0.53,15.27 -2.28,3.65 -6.75,10.02 -11.93,7.8 -7.17,-3.08 -8.88,-11.19 -18.43,-14.98 -2.61,-0.91 -19.35,-6.19 -21.63,-8 -2.28,-1.81 -10.47,-6.19 -12.98,-9.74 -1.97,-1.03 -8.49,-9.19 -10.74,-11.13 -2.6,-2.24 -5.9,-4.2 -9.87,-5.01 -1.51,-0.38 -3.7,-0.78 -4.55,-1.54 -3.09,-0.39 -8.01,-2.73 -8.27,-7.32 -0.27,-4.68 6.94,-16.1 11.56,-17.61 6.51,-2.12 11.84,7.68 16.33,11.46zm-32.32 9.04c1.64,4.48 3.72,5.43 7.17,8.05 16.48,2.54 21.18,11.9 31.87,22.12 -0.84,3.51 -5.14,6.81 -5.82,10.56 -0.68,3.72 1.77,3.91 0.34,6.47 -1.05,1.88 -2.36,3.18 -3.27,5.42 -1.06,2.63 -0.24,4.6 -0.79,6.58 -1.18,4.23 -9.52,-0.05 -10.77,6.91 -0.67,3.7 2.28,5.99 1.06,7.45 -1.4,1.67 -3.6,-1.77 -9.55,5.09 -11.25,-10.14 -17.43,5.04 -22.7,13.29l-12.02 19.1c-2.96,5.21 -4.58,10.9 0.58,15.46 2.36,2.09 6.9,5.1 9.61,6.57 11.6,6.29 15.01,0.3 21.64,-10.17 3.22,-5.09 6.18,-9.78 9.39,-14.87 2.32,-3.68 7.82,-10.66 7.97,-15.81l-1.08 -4.74c-1.53,-1.01 -0.59,-0.98 -4.6,-3.44 -1.67,-1.03 -3.54,-1.49 -3.49,-4.63 3.23,-1.32 5.61,0.42 8.27,-3.01 2.85,-3.68 -0.21,-5.49 -0.2,-9.55 1.74,-1.2 9.05,0.13 10.64,-6.62 1.28,-5.45 -1.92,-2.12 2.57,-8.99 0.62,-0.95 0.97,-1.51 1.48,-2.49 4.59,-0.26 6.01,-0.65 7.9,-4.14 1.27,-2.36 2.9,-4.71 4.32,-6.92 11.33,1.65 23.53,7.75 31.42,16.44 3.99,4.39 8.43,6.87 14.61,5.46 5.88,-2.43 10.59,-9.23 13.05,-14.95 2,-4.67 2.72,-7.42 0.26,-13.1 -6.65,-7.93 -23.13,-7.15 -25.8,-15.16 -4.17,-4.55 -8.38,-9.31 -13.27,-12.96 -12.24,-9.71 -23.88,-8.85 -31.65,-13.81 -5.59,-3.57 -4.88,-3.53 -9.28,-8.4 -3.46,-3.83 -7.04,-6.59 -12.19,-6.93 -7.64,1.28 -10.4,6.03 -13.13,10.23 -2.55,3.92 -5.76,8.57 -4.52,15.5z"/>
  <g id="_2882709916944">
   <g>
    <path class="fil1 str0" d="M183.12 34.9c20.17,-1.87 43.24,18.96 50.35,28.22 5.88,7.66 10.36,17.85 5.75,30.03 -3.74,9.87 -10.11,15.4 -20.53,18.77 -17.44,5.65 -22.66,-0.99 -35,3.28 -9.15,3.17 -15,11.46 -20.6,18.68 -11.44,14.76 -22.54,29.98 -33.94,44.8 -1.72,2.24 -11.47,15.09 -13.1,16.59 -1.8,1.66 -5.03,2.12 -7.55,0.65 -1.63,-0.95 -9.26,-6.66 -11.49,-8.24 -1.24,-0.89 -4.72,-3.3 -5.59,-4.18 -1.59,-1.6 -2.51,-4.49 -1.32,-7.25 0.86,-1.98 11.38,-14.05 13.27,-16.43 1.43,-1.8 2.9,-3.57 4.42,-5.35 6,-7.06 11.75,-14.37 17.8,-21.48 1.56,-1.84 2.91,-3.51 4.52,-5.44l11.23 -13.48c6.61,-7.7 13.51,-16.83 14.06,-29.99 0.27,-6.46 -1.35,-12.17 -0.8,-18.6 1.43,-16.86 11.19,-28.97 28.51,-30.58zm-32.17 36.34c0.5,7.12 1.64,11.6 -0.02,18.89 -1.25,5.49 -3.69,10.13 -6.37,14.12 -2.4,3.59 -6.38,8.19 -9.2,11.5 -9.37,10.99 -18.68,22.59 -28,33.69l-13.97 16.87c-3.54,4.35 -7.6,7.69 -7.47,12.98 0.08,3.18 1.59,5.51 3.21,7.08 0.86,0.84 1.93,1.47 2.95,2.22l11.96 8.53c3.62,2.63 7.11,4.42 11.8,2.37 2.66,-1.17 3.85,-2.94 5.4,-4.94l13.48 -17.37c11.8,-15.58 23.55,-31.41 35.5,-46.69 3.03,-3.88 6.05,-7.26 10.46,-10.03 4.42,-2.78 10.97,-3.88 17.26,-3.05 16.48,2.18 34.88,-3.94 42.53,-18.38 5.74,-10.85 5.15,-22.01 -0.48,-32.48 -4.62,-8.59 -12.47,-15.31 -19.96,-21.23 -6.52,-5.16 -17.13,-11.57 -27.74,-13.43 -18.09,-3.17 -33.21,6.1 -38.71,21.64 -1.83,5.16 -3.08,11.6 -2.65,17.72z"/>
    <path id="1" class="fil0" d="M183.12 34.9c20.17,-1.87 43.24,18.96 50.35,28.22 5.88,7.66 10.36,17.85 5.75,30.03 -3.74,9.87 -10.11,15.4 -20.53,18.77 -17.44,5.65 -22.66,-0.99 -35,3.28 -9.15,3.17 -15,11.46 -20.6,18.68 -11.44,14.76 -22.54,29.98 -33.94,44.8 -1.72,2.24 -11.47,15.09 -13.1,16.59 -1.8,1.66 -5.03,2.12 -7.55,0.65 -1.63,-0.95 -9.26,-6.66 -11.49,-8.24 -1.24,-0.89 -4.72,-3.3 -5.59,-4.18 -1.59,-1.6 -2.51,-4.49 -1.32,-7.25 0.86,-1.98 11.38,-14.05 13.27,-16.43 1.43,-1.8 2.9,-3.57 4.42,-5.35 6,-7.06 11.75,-14.37 17.8,-21.48 1.56,-1.84 2.91,-3.51 4.52,-5.44l11.23 -13.48c6.61,-7.7 13.51,-16.83 14.06,-29.99 0.27,-6.46 -1.35,-12.17 -0.8,-18.6 1.43,-16.86 11.19,-28.97 28.51,-30.58zm-32.17 36.34c0.5,7.12 1.64,11.6 -0.02,18.89 -1.25,5.49 -3.69,10.13 -6.37,14.12 -2.4,3.59 -6.38,8.19 -9.2,11.5 -9.37,10.99 -18.68,22.59 -28,33.69l-13.97 16.87c-3.54,4.35 -7.6,7.69 -7.47,12.98 0.08,3.18 1.59,5.51 3.21,7.08 0.86,0.84 1.93,1.47 2.95,2.22l11.96 8.53c3.62,2.63 7.11,4.42 11.8,2.37 2.66,-1.17 3.85,-2.94 5.4,-4.94l13.48 -17.37c11.8,-15.58 23.55,-31.41 35.5,-46.69 3.03,-3.88 6.05,-7.26 10.46,-10.03 4.42,-2.78 10.97,-3.88 17.26,-3.05 16.48,2.18 34.88,-3.94 42.53,-18.38 5.74,-10.85 5.15,-22.01 -0.48,-32.48 -4.62,-8.59 -12.47,-15.31 -19.96,-21.23 -6.52,-5.16 -17.13,-11.57 -27.74,-13.43 -18.09,-3.17 -33.21,6.1 -38.71,21.64 -1.83,5.16 -3.08,11.6 -2.65,17.72z"/>
   </g>
   <g>
    <path class="fil1 str0" d="M172.25 77.01c2.31,0.82 4.17,3.41 5.59,4.95 1.85,1.99 3.47,3.43 5.59,5.14 4.97,3.98 11.05,5.82 12.63,8.7 -3.33,0.67 -5.3,4.03 -8.98,2.01l-13.69 -10.84c-0.96,-0.81 -1.79,-2.66 -1.39,-4.48 0.65,-2.92 0.39,-2.61 0.23,-5.47zm11.59 -24.95c4.19,-0.76 7.46,-0.05 9.98,2.04 4.55,3.78 3.81,6.36 12.45,12.46 6.38,4.51 12.3,3.52 15.64,9.26 1.42,2.43 2.57,6.84 1.99,10.27 -0.61,3.64 -2.74,5.87 -4.64,7.8 -1.84,1.86 -5.61,2.99 -9.05,3.29 -3.39,0.3 -5.48,0.13 -8.7,-0.4 -1.47,-0.25 -1.08,-0.23 -1.57,-1.49 -1.94,-5.02 -8.48,-6.32 -14.14,-10.77 -4.21,-3.31 -8.41,-8.42 -9.56,-9.21 -2.87,-1.95 -5.61,-2.46 -5.9,-3.51 -0.2,-0.73 -0.24,-1.96 -0.3,-2.77 -0.55,-8.3 5.2,-15.42 13.79,-16.98zm-17.1 18.03c0.35,2.31 0.72,3.84 1.53,5.92 1.07,2.75 1.49,2.41 0.73,5.7 -1.14,4.92 1.93,7.36 4.66,9.6l12.21 9.63c5.49,3.13 9.41,-1.55 11.31,-1.64 1.52,-0.07 9.67,3.4 19.28,0.22 7.14,-2.36 12.47,-9.41 11.47,-17.44 -1.12,-9.03 -5.92,-12.88 -13.9,-15.41 -3.88,-1.23 -8.39,-4.71 -10.89,-7.33 -3.65,-3.83 -4.35,-6.61 -9.04,-9.35 -10.77,-6.28 -29.77,4.19 -27.36,20.1z"/>
    <path id="1" class="fil0" d="M172.25 77.01c2.31,0.82 4.17,3.41 5.59,4.95 1.85,1.99 3.47,3.43 5.59,5.14 4.97,3.98 11.05,5.82 12.63,8.7 -3.33,0.67 -5.3,4.03 -8.98,2.01l-13.69 -10.84c-0.96,-0.81 -1.79,-2.66 -1.39,-4.48 0.65,-2.92 0.39,-2.61 0.23,-5.47zm11.59 -24.95c4.19,-0.76 7.46,-0.05 9.98,2.04 4.55,3.78 3.81,6.36 12.45,12.46 6.38,4.51 12.3,3.52 15.64,9.26 1.42,2.43 2.57,6.84 1.99,10.27 -0.61,3.64 -2.74,5.87 -4.64,7.8 -1.84,1.86 -5.61,2.99 -9.05,3.29 -3.39,0.3 -5.48,0.13 -8.7,-0.4 -1.47,-0.25 -1.08,-0.23 -1.57,-1.49 -1.94,-5.02 -8.48,-6.32 -14.14,-10.77 -4.21,-3.31 -8.41,-8.42 -9.56,-9.21 -2.87,-1.95 -5.61,-2.46 -5.9,-3.51 -0.2,-0.73 -0.24,-1.96 -0.3,-2.77 -0.55,-8.3 5.2,-15.42 13.79,-16.98zm-17.1 18.03c0.35,2.31 0.72,3.84 1.53,5.92 1.07,2.75 1.49,2.41 0.73,5.7 -1.14,4.92 1.93,7.36 4.66,9.6l12.21 9.63c5.49,3.13 9.41,-1.55 11.31,-1.64 1.52,-0.07 9.67,3.4 19.28,0.22 7.14,-2.36 12.47,-9.41 11.47,-17.44 -1.12,-9.03 -5.92,-12.88 -13.9,-15.41 -3.88,-1.23 -8.39,-4.71 -10.89,-7.33 -3.65,-3.83 -4.35,-6.61 -9.04,-9.35 -10.77,-6.28 -29.77,4.19 -27.36,20.1z"/>
   </g>
  </g>
 </g>
</svg>
