<?xml version="1.0" encoding="UTF-8"?>
<!DOCTYPE svg PUBLIC "-//W3C//DTD SVG 1.1//EN" "http://www.w3.org/Graphics/SVG/1.1/DTD/svg11.dtd">
<!-- Creator: CorelDRAW 2017 -->
<svg xmlns="http://www.w3.org/2000/svg" xml:space="preserve" width="63.3559mm" height="66.1066mm" version="1.1" style="shape-rendering:geometricPrecision; text-rendering:geometricPrecision; image-rendering:optimizeQuality; fill-rule:evenodd; clip-rule:evenodd"
viewBox="0 0 256.52 267.66"
 xmlns:xlink="http://www.w3.org/1999/xlink">
 <defs>
  <style type="text/css">
   <![CDATA[
    .str0 {stroke:white;stroke-width:2.86;stroke-miterlimit:22.9256}
    .fil0 {fill:#FEFEFE}
   ]]>
  </style>
 </defs>
 <g id="projekty">
  <metadata id="CorelCorpID_0Corel-Layer"/>
  <g id="_2882820123968">
   <path class="fil0 str0" d="M112.02 249.69c1.81,-2.69 0.14,-3.86 4.95,-4.03 0.66,4.68 0.53,7.69 -1.31,11.56 -2.14,-0.43 -6.52,-2.08 -8.04,-3.43 -1.16,-1.03 -1.75,-2.48 -0.66,-3.64 1.43,-1.52 3.33,-0.49 5.07,-0.45zm115.95 -199.61c-2.71,0.44 -6.15,1.93 -8.73,3.18 -5.03,2.44 -3.58,9.31 -0.07,11.91 2.04,1.51 4.84,2.34 7.77,3.11 4.71,1.25 9.6,1.82 11.01,0.8 2.42,-1.75 2.56,-9.88 3.12,-12.53 1.01,-4.75 1.36,-9.39 -0.4,-12.13 -1.8,-2.81 -5.75,-3.63 -8.19,-1.8 -2.61,1.95 -4.05,5.59 -4.52,7.47zm-21.18 210.32l-3.51 -4.66c-1.39,-2.64 -1.55,-4.41 0.54,-6.24 3.01,0.77 1.48,1.67 4.2,2.46 1.91,-0.7 2.2,-2.41 5.29,-2.23 1.88,0.11 1.94,0.25 2.16,1.35 0.32,1.63 -4.7,8.66 -8.67,9.32zm-56.79 -12.54c0,-2.89 -0.37,-10.07 5.96,-9.29 3.37,0.42 4.44,2.83 5.54,5.97 2.46,0.32 9.95,-0.92 9.95,5.42 0,6.51 -14.8,9.64 -18.52,9.89 -1.9,-2.39 -2.94,-8.5 -2.94,-11.98zm-90.66 -1.05c0,-4.25 3.34,-5.77 6.76,-5.4 5.53,0.59 3.67,2.5 8.64,0.13 9.53,-4.53 15.51,4.63 3.47,17.1 -4.82,4.99 -5.46,3.91 -11.37,-0.23 -1.76,-1.24 -2.15,-1.32 -3.4,-2.87 -0.89,-1.1 -2.14,-2.88 -2.62,-3.67 -0.82,-1.31 -1.48,-2.82 -1.48,-5.06zm51.74 1.21c-1.24,0.27 -3.37,-0.38 -4.88,0.8 -4.13,3.21 1.05,8.34 10.02,9.76 2.22,-3.29 3.11,-7.88 2.44,-11.62l-1.31 -2.47c-0.1,-0.11 -0.22,-0.23 -0.31,-0.34l-0.66 -0.71c5.83,0 27.53,-1.19 32.16,0.44 1.08,9.47 -1.01,5.5 2.93,17 5.77,0 11.8,-1.92 16.89,-4.4 4.14,-2.02 6.44,-8.16 1.99,-11.34 -1.82,-1.3 -0.95,0.47 -1.38,-1.18 3.83,-0.28 21.4,1.54 27.09,0.91l20.4 1.31c4.73,0.93 2.3,-0.13 5.72,-0.84 1.53,1.28 2.81,3.04 3.9,4.35 1.48,1.78 1.03,0.68 2.41,1.83 1.83,1.52 0.73,2.6 6.54,6.58 1.59,1.09 3.64,2.68 4.65,4.49l-29.67 -0.85c-1.46,-0.53 -0.68,-0.04 -1.62,-0.93 2.2,-0.99 8.04,-6.49 8.14,-9.32 0.08,-2.28 0.16,-1.06 -0.65,-2.05 -2.37,-3.24 -5.88,0.16 -7.33,1.08 -2.58,-1.21 -2.25,-2.48 -5.81,-2.63 -1.87,2.63 -3.45,4.13 -1.21,8l4.9 5.94c0.08,0.08 0.23,0.22 0.33,0.34 -5.83,0 -11.96,0.09 -17.07,0 -5.87,-0.1 -12.77,-0.17 -17.95,0.37 -3.32,0.35 -6.54,-1.01 -16.18,0.54 -6.01,0.97 -18.21,0.46 -24.34,0.14l-41.24 1.22c-3.05,-0.01 -5.23,-0.63 -7.52,-0.54 -3.05,0.12 -6.07,0.09 -9.14,0.09 0.79,-1.31 3.36,-2.2 4.81,-3.33 4.51,-3.53 8.49,-10.47 8.49,-16.79 9.19,0.51 12.57,0.62 21.45,0.12 2.64,-0.15 5.12,-0.59 7.8,-0.51l-1.18 0.71c-0.11,0.06 -0.27,0.13 -0.39,0.18 -0.86,0.42 -0.57,0.05 -1.41,0.68 -0.82,0.61 -0.42,0.27 -0.92,1.13l-0.87 1.83zm-38.95 15.98c-4.54,-1.5 -26.97,-0.69 -35.04,-1.47 -2.22,-0.22 -7.08,-0.9 -10.28,-1.33 2.25,-4.14 9.62,-8.57 12.96,-13.19 1.06,-1.47 4.71,-5.65 6.38,-6.01 0.97,-0.21 10.27,0.05 12.33,0.17 0.01,3.3 -2.71,6.58 3.38,13.39l7.61 6.57c1.86,0.95 2.09,0.14 2.67,1.88zm-26.69 -30.53c0,9.41 0.73,4.44 -7.54,14.26l-12.07 11.37 -0.92 -23.33c-0.07,-2.26 -0.44,-12.6 0.5,-13.59 0.85,-0.89 2.52,2.15 5.67,4.31 1.86,1.27 4.45,2.5 6.9,3.59 2.44,1.09 5.08,2.48 7.46,3.38zm196.14 -3.49c-3.34,-0.94 -14.01,-6.78 -15.38,-12.87 -0.94,-4.16 0.75,-8.59 3.08,-10.4 4.33,-3.36 6.67,-0.4 9.67,1.37 0.97,0.14 1.56,-0.81 3.14,-1.7 0.02,-0.01 0.83,-0.45 1,-0.55 1.94,-1.08 2.84,-1.42 5.72,-0.85 10.39,2.09 -0.79,19.54 -7.24,24.99zm-206.77 -31.96l1.14 1.05c0.38,0.28 0.79,0.51 1.29,0.85 1.46,1 1.17,1.31 3.34,1.31 0.7,-4.35 5.19,-8.29 10.24,-5.51 4.77,2.62 6.16,4.93 5.22,12.03 -1.55,11.77 -1.14,17.1 -7.09,25.84l-13.49 -6.21c-5.77,-2.96 -12.1,-10.72 -14.65,-15.74 -2.83,-5.57 -0.46,-10.53 4.83,-13.43 3.09,-1.7 6.49,-0.22 9.18,-0.18zm188.62 -23.39c1.62,-0.18 5.6,1.53 7.91,2.08 13.27,3.18 8.6,-4.28 9.09,15.3 0.06,2.22 0.62,11.37 0.33,13.5 -2.91,3.83 -4.52,-3.67 -10.92,-0.33 -5.56,2.9 -9.02,12.36 1.11,20.25 3.27,2.55 5.91,2.9 9.63,6.16 -0.53,2.42 0.18,27.97 -0.11,29.75 -4.66,-2.72 -16.28,-16.59 -18.54,-17.46 0.61,-3.5 -0.3,-20.77 -0.44,-25.94 -0.07,-2.62 0.48,-5.94 0.72,-8.9 0.52,-6.18 -0.3,-11.28 0.45,-17.44l1.06 -13.01c0.04,-2 -0.49,-2.35 -0.3,-3.96zm5.86 -16.7c1.08,-1.28 4.92,-11.49 11.54,-8.02 0.95,0.5 2.85,2.85 3.38,4.06 2.3,5.34 2.95,20.49 -0.8,22.27 -3.1,1.48 -13.25,-0.8 -17.24,-2.05 -2.48,-0.78 -2.95,-1.58 -4.29,-3.16 -6.48,-7.62 0.56,-16.84 7.41,-13.1zm-225.81 -17.61c0,-2.89 2.54,-5.29 4.86,-6.64 3.07,-1.78 6.06,-1.12 9.6,-1.93 3.67,-8.14 2.62,-9.49 13.81,-9.49 14.82,0 9.9,26.62 7.39,35.38 -0.61,2.14 -1.43,2.77 -1.98,4.81 -3.66,-0.62 -8.38,-1.59 -11.9,-2.02 -3.94,-0.48 -2.15,-0.54 -5.1,-1.75 -3.27,-1.33 -10.07,-2.44 -13.26,-7.68 -1.09,-1.78 -3.42,-8.4 -3.42,-10.69zm233.45 -26.25c0.05,1.55 -0.08,0.71 0.35,2.22 3.39,0.21 6.31,-1.83 7.89,1.47 0.77,4.56 -6.02,5.82 -7.12,7.36 3.4,0.51 1.06,-1.01 4.43,-0.91l-0.01 24.29c-4.67,0.24 -4.67,-1.92 -8.19,0.76 -2.43,1.84 -4.3,3.7 -4.76,6.96 -3.95,-0.51 -3.92,-0.09 -7.57,0 0.85,-3.23 1.32,-27.71 1.6,-33.34l0.13 -43.45c0.32,-4.41 -0.5,-7.77 -0.24,-11.29 2.32,0.87 13.48,3.42 15.24,2.12 3.13,-2.3 3.02,-12.25 3.96,-14.42 0.54,-1.26 -0.12,-0.29 0.76,-1.26l-0.5 58.82c-0.35,1.13 -0.66,1.39 -2.5,1.6 -1.97,0.24 -2.3,-0.41 -3.45,-0.94zm-174.37 -78.58c3.75,-1.13 5.1,-1.34 9.61,-1.35 3.59,-0 6.56,-0.82 9.92,-0.9 8.68,-0.2 23.77,1.05 30.35,0.79 2.94,-0.12 6.44,-0.39 9.82,-0.12l19.69 -0.64c5.84,-0.06 13.19,-0.16 18.82,-0.17 6.39,-0.01 34.11,0.83 39.27,1.52 14.21,1.91 22.35,-1.74 20.3,9.46l-0.56 6.77c-0,0 -6.02,2.91 -5.35,9.06 1.01,9.28 7.39,4.44 6.98,13.63 -0.44,9.77 -0.54,37.54 0.05,45.32 0.43,5.64 -1.11,21.38 -0.73,28.07 0.1,1.66 -0.01,4.15 -0.19,6.44 -0.19,2.44 -0.36,3.67 -1.65,5.68 -2.48,3.86 -3.07,6.27 -0.84,10.56 2.38,4.58 4.02,2.45 3.36,9.87 -1.12,12.42 -0.85,14.29 -1.24,24.82 -0.62,16.92 -0.88,23.34 0,40.04l-23.71 -1.29c-2.9,0.33 -21.07,-0.94 -28.34,-0.95 -9.56,-0.02 -7.35,-7.15 -13.41,-6.02 -3.49,0.65 -5.31,4.9 -7.36,5.31 -1.53,0.3 -8.01,-0.19 -10.66,-0.2l-48.28 0.9c-4.38,-0.4 -2.66,-3.63 -8.98,-4.03 -5.23,-0.33 -6.03,3.53 -9.51,2.57 -2.42,-0.67 -2.03,-1.37 -5.13,-1.28 -3.22,0.09 -2.12,1.03 -5.74,1.03 -2.25,-0 -3.95,-0.44 -5.68,-0.35 -2.3,0.12 -3.54,0.48 -6.05,0.13l-0.01 -4.31c7.77,-0.56 9.09,-16.88 9.87,-22.44 0.44,-3.17 1.75,-11.49 0,-14.59 -1.68,-2.98 -5.79,-5.93 -10.38,-5.94 0.74,-4.54 0.09,-22.83 0.32,-24.57l1.55 -63c0.84,-9.12 -0.08,-45.27 -0.08,-58.99 3.47,-1.17 7.82,-2.17 12.04,-2.48 7.32,-0.54 1.75,-4.11 1.93,-8.34zm181.13 8.73c-2.51,-2.1 -4.13,-7.34 -11.39,-3.46 -4.9,2.62 -3.23,6.49 -6.09,8.12 -0.17,0.1 -1.47,0.56 -1.61,0.58l-2.21 -0.41c-0.29,-0.71 -0.3,-10.93 -0.38,-13.11 0.2,-0.72 15.99,-17.07 18.74,-21.28 2.47,-3.78 1.09,-2.38 3.09,-3.08 0,5.9 -0.49,11.08 -0.46,16.48 0.02,4.12 0.61,13.29 0.31,16.16zm-208.88 153.8c-0.44,-0.83 0.16,-0.63 -1.24,-1.25 -0.98,-0.44 -1.56,-0.34 -2.84,-0.36 -2.47,-0.03 -3.73,0.26 -5.75,0.52 -0.46,-12.83 -0.98,-22.39 -0.98,-35.14 9.23,0.13 14.91,5.94 16.15,-4.11 0.99,-8.02 3.24,-7.76 2.61,-22.07 -0.25,-5.68 -0.68,-9.75 -4.63,-12.16 -7.48,-4.56 -6.48,-1.83 -14.04,-2.22 0.9,-3.79 -0.09,-32.37 -0.09,-40.7 -0,-2.52 -0.01,-5.06 -0.3,-7.16l-0.13 -6.51c-0.13,-2.78 0.2,-3.94 0.06,-6.33 -0.56,-9.56 0.46,-15.58 0.35,-21.96l0.95 -24.66c0.13,-1.82 0.39,-2.37 1.28,-3.47 0.58,1.49 6.37,10.42 8.43,11.74 -0.12,0.1 -0.31,0.07 -0.38,0.27 -0.43,1.22 -4.6,0.61 -7.17,5.67 -2.02,3.99 -0.63,14.97 7.1,17.94 4.3,1.65 8.04,0.36 11.96,0.65 0.89,4.84 -0.04,13.45 0.36,18.95 0.68,9.32 -0.07,18.38 0.11,26.34l-0.11 27.18c0.5,4.98 -0.2,24.57 -0.48,31.71 -0.06,1.54 0.3,2.75 0.34,4.62 0.14,6.38 -1.33,12.1 -1.36,18.36 -0.04,6.65 -0.2,13.57 -0.07,19.95l-4.13 4.32c-2.85,3.38 -1.21,0.54 -6,-0.13zm4.41 -178.35c0,-2.74 0.42,-5.4 2.38,-7.49 2.9,-3.08 14.69,-5.63 18.58,10.57 0.98,4.09 -0.15,12.33 0.35,14.8 0.38,1.87 1.01,2.73 1.05,4.55 -10.21,0.49 -3.09,-0.02 -10.54,1.66 -5.92,1.34 -5.61,2.01 -11.93,2.01 -12.03,0 -14.51,-17.42 -7.81,-20.82 2.73,-1.38 6.09,-1.35 9,-2 -0.35,-1.77 -1.08,-2.26 -1.08,-3.3zm134.8 -9.67c1.58,-0.81 4.67,-4 7.59,-3.36 5.42,1.17 6.54,9.72 -1.37,14.11 -2.18,1.21 -8.89,3.75 -11.57,3.12 -4.21,-0.99 -12.22,-24.2 -0.31,-19.13 2.43,1.04 3.72,3.64 5.66,5.26zm-66.86 1.8c-1.48,4.14 -2.12,6.54 -5.12,9.45 -1.72,1.66 -5.93,6.35 -8.45,6.58 -3.96,0.35 -5.61,-3.09 -6.76,-3.96 -1.62,-1.23 -0.56,0.1 -2.09,-1.58 -1.78,-1.97 0.46,-0.05 -1.82,-1.86 -2.46,-1.95 -3.53,-3.42 -4.94,-6.56 -0.93,-2.07 -1.13,-3.89 -0.02,-6.23 1.85,-3.87 4.73,-5.36 8.75,-3.61 4.34,1.89 4.22,3.43 5.95,3.64 2.27,0.28 1.69,-1.4 9.32,-3.84 5.67,-1.82 6.88,3.2 5.18,7.98zm-53.88 -2.14c7.41,-0.61 15.74,0.06 23.01,-0.48 -0.1,6.32 -0.5,5.78 5.52,11.84 7.67,7.74 9.82,11.36 17.04,4.91 4.16,-3.72 9.93,-9.01 10.07,-16.75 3.69,1.03 3.52,0.8 8.05,0.15 3.94,-0.56 28.76,-0.21 35.47,-0.21 1.5,0 1.98,0.29 3.54,0.18 0.97,-0.07 1.1,-0.2 2.18,-0.13 3.93,0.23 0.7,-0.02 4.99,9.17 0.72,1.54 2.92,6.56 4.46,7.15 4.83,-0.02 10.59,-1.82 13.72,-4.16 6.11,-4.57 6.06,-6.49 5.77,-11.19l13.14 -1.37c2.1,-0.16 1.85,0.35 4.08,0.35 1.45,0 0.62,-0.4 2.64,-0.45 2.07,-0.05 1.15,0.45 4.7,0.45 1.38,0 1.42,-0.25 3.32,-0.23 2.45,0.03 5.45,-1.06 11.34,-1.15 7.72,-0.12 12.41,-1.59 16.14,1.53 -0.75,2.08 -3.07,4.88 -4.56,6.72l-11.05 12.55c-7.63,8.89 -3.8,6.3 -8.9,5.41l-63.46 -2.96c-2.56,0.18 -1.73,0.52 -5.25,0.44l-68.74 -0.05 -18.91 2.03c-0.28,-8.64 0.7,-13.02 -4.27,-19.41 -1.64,-2.11 -2.92,-2.46 -4.06,-4.34zm-14.82 12.42c-1.35,0.29 -2.29,0.89 -3.59,-0.85l-7.72 -11.98c3.72,-0.33 16.05,-1.23 18.2,-0.16 -8.32,2.37 -6.51,5.49 -6.89,12.99zm206.74 92.69c0.66,-10.69 0.34,-31.55 0.41,-43.7 0.06,-9.92 -0.49,-42.51 0.32,-49.06 0.23,-1.86 -0.15,-10.16 -0.54,-11.98 -0.8,-3.71 -3.83,-4.69 -7.37,-4.68 -2.48,0.01 -9.75,-0.09 -12.47,0.37 -3.81,0.65 -6.76,1.15 -11.25,1.14 -8.77,-0.02 -13.35,-0.47 -23.05,0.9 -6.46,0.92 -4.29,-1.24 -8.75,-3.03 -3.78,-1.51 -5.17,1.75 -8.6,2.44 -1.14,-0.98 -6.89,-8.68 -12.83,-2.97 -1.66,1.59 -2.14,2.82 -3.44,3.1l-24.11 0c-2.36,-0.06 -4.09,-0.54 -6.32,-0.43 -2.24,0.11 -3.82,0.44 -6.3,0.43 -3.91,-0.02 -7.59,0.62 -10.44,0.24 -2.18,-3.85 -1.99,-6.38 -7.93,-6.11 -6.77,0.31 -3.98,1.88 -9.44,4.07l-4.45 -2.86c-1.83,-1.23 -3.31,-1.28 -5.94,-1.14 -8.25,0.47 -4.58,3.15 -8.29,5.21 -3.54,1.97 -21.45,0.19 -26.43,0.12 -5.02,-0.07 -23.17,-1.69 -24.89,2.68 -0.44,1.12 -1.25,24.13 -1.38,27.43 -0.57,14.11 -0.34,23.37 -0.29,36.6l0.19 17.48c-0.02,1.69 -0.3,4.66 -0.19,6.16 0.27,3.82 0.94,7.24 0.71,11.53 -0.57,10.27 1.66,11.11 -2.01,14.2 -2.53,2.12 -2.98,3.88 -3.72,6.78 -11.37,1.01 -17.83,4.88 -13.82,17.27 2.87,8.88 10.01,12.92 19.18,14.17l0.93 32.16c0.02,1.93 0.02,3.58 -0.87,4.77 -0.17,0.23 -0.92,0.87 -1.33,1.32 -5.16,5.63 -3.92,11.12 0.66,17.08 2.59,3.38 1.4,13.07 1.5,19.86 0.04,3.25 0.37,6.7 0.49,10.47 0.35,10.84 -0.95,15.74 5.51,16.7 3.38,0.5 6.22,0.92 9.89,0.91l21.97 0.49c12.36,1.08 28.23,1.28 41,1.32 4.14,0.01 5.89,-0.34 9.41,-0.44 3.54,-0.1 7.58,0.24 11.03,-0.05 10.55,-0.89 14.78,0.28 20.99,0.07l19.41 -1.4c4.01,0.12 6.98,0.07 11.04,0.03l29.89 -0.11c1.34,-0.03 3.35,-0.44 4.85,-0.49l15.14 0.58c2.33,0.08 2.43,-0.32 4.89,-0.14l10.27 0.53c1.94,-0.2 2.12,-0.77 3.88,-0.47 -0.05,-2.01 0.5,-1.58 0.61,-3.91 0.09,-1.82 -0.06,-3.16 -0.06,-4.77 0.01,-2.46 -0.31,-7.13 -0.47,-10.31 -0.16,-3.22 0.42,-6.42 0.53,-10.07 0.15,-4.94 1.4,-5.26 3.54,-7.74 2.65,-3.07 7.26,-10.21 8.19,-14.37 2.59,-11.66 -7.24,-9.98 -11.57,-9.98 -0.91,-8.3 -0.15,-15.17 -0.15,-24.05 0.59,-1.64 3.06,0.2 4.66,-6.58 0.24,-1.01 0.78,-8.52 0.7,-9.63 -0.12,-1.88 -1.25,-7.94 -1.75,-9.16 -1.91,-4.63 -2.51,-1.51 -2.02,-7.68l0.16 -8.87c-0.65,-10.71 -1.6,-9.7 1.48,-15.47 1.52,-2.85 2.14,-5.39 -0.96,-6.97z"/>
   <path class="fil0 str0" d="M29.35 69.72c7.4,-3.11 5.47,-1.22 8.66,3.52 3.93,-0.19 6.57,-0.95 6.57,3.61 0,3.4 -2.15,4.54 -4.68,5.47 -7.34,2.72 -14.14,6.78 -10.55,-12.61zm-2.21 3.46c0,6.04 1.53,9.55 0.52,11.44 4.49,2 3.41,2.24 12.77,-1.14 3.58,-1.29 5.57,-3.95 5.53,-7.69 -0.04,-3.92 -1.96,-3.21 -7.29,-3.76 -1.61,-2.54 -1.95,-3.13 -3.79,-5.13 -0.09,-0.05 -7.75,-1.47 -7.75,6.28z"/>
   <path class="fil0 str0" d="M210.13 22.92c-0.54,-2.89 -5.93,-8.49 -0.76,-10.81 3.27,-0.49 4.18,2.49 7.9,1.12 2.64,-0.98 2.62,-2.43 6.49,1.63 -0.46,3.09 -2.84,6.65 -5.08,8.12 -3.33,2.2 -4.73,2.99 -6.54,1.53 -0.79,-0.64 0.08,-0.06 -0.81,-0.81 -1.28,-1.08 -0.42,-0.42 -1.21,-0.78zm0 0c0.27,1.58 2.27,3.33 3.66,4.1 2.21,-1.02 6.59,-3.44 8.31,-5.34 5.53,-6.09 1.98,-11.33 -2.96,-10.71 -2.15,0.27 -2.02,1.97 -4.86,0.89 -1.47,-0.56 -2.88,-1.89 -4.91,-1.28 -3.47,1.03 -4.41,4.6 -2.22,8.34l1.85 2.94c0.98,1.27 0.45,0.57 1.12,1.05z"/>
   <path class="fil0 str0" d="M124.09 20.2c2.58,-4.89 6.34,-1.58 6.34,-1.58 0.75,0.46 -0.14,0.2 1.11,0.63 1.38,-2.08 2.42,-3.1 6.27,-2.8 1.27,3.48 1.36,2.47 -0.2,6.23 -2.2,5.3 -0.6,6.5 -10.03,2.86 -2.57,-0.99 -3.28,-2.28 -3.49,-5.34zm6.82 -2.68c-6.66,-2.42 -5.48,-0.23 -8.6,2.9 1.38,6.55 4.52,6.1 8.49,7.71 4.1,1.66 4.77,1.6 7.19,-3.52 0.67,-1.42 1.8,-3.18 1.8,-5.48 0,-2.36 -2.54,-7.03 -8.87,-1.63z"/>
   <path class="fil0 str0" d="M231.07 117.73c0.59,-3.13 0.26,-2.16 1.38,-4.84 1.63,0.05 1.12,-0.16 2.64,0.38l0.69 0.37c1.06,0.46 -0.25,0.06 1.16,0.44 -0.83,-3.28 -3.69,-3.03 -6.18,-1.38 -0.25,1.07 -0.41,1.86 -0.36,3.01l0.44 1.72c0.02,-0.07 0.13,0.23 0.23,0.3z"/>
   <path class="fil0 str0" d="M227.97 50.08c0,0 0,0 0,0z"/>
   <path class="fil0 str0" d="M238.06 125.13l-3.42 0.05c-2.53,-3.84 -1.06,-0.29 -2.64,-5.68l-0.93 -1.77c0.27,3.71 2.03,5.7 2.44,9.06 1.8,-0.1 3.46,-0.16 4.55,-1.67z"/>
  </g>
 </g>
</svg>
