<?xml version="1.0" encoding="UTF-8"?>
<!DOCTYPE svg PUBLIC "-//W3C//DTD SVG 1.1//EN" "http://www.w3.org/Graphics/SVG/1.1/DTD/svg11.dtd">
<!-- Creator: CorelDRAW 2017 -->
<svg xmlns="http://www.w3.org/2000/svg" xml:space="preserve" width="68.8109mm" height="41.6339mm" version="1.1" style="shape-rendering:geometricPrecision; text-rendering:geometricPrecision; image-rendering:optimizeQuality; fill-rule:evenodd; clip-rule:evenodd"
viewBox="0 0 388.41 235.01"
 xmlns:xlink="http://www.w3.org/1999/xlink">
 <defs>
  <style type="text/css">
   <![CDATA[
    .str0 {stroke:white;stroke-width:3.11;stroke-linejoin:round;stroke-miterlimit:22.9256}
    .str1 {stroke:white;stroke-width:3.11;stroke-linejoin:round;stroke-miterlimit:22.9256}
    .fil0 {fill:none}
    .fil1 {fill:#FEFEFE}
   ]]>
  </style>
 </defs>
 <g id="projekty">
  <metadata id="CorelCorpID_0Corel-Layer"/>
  <g id="_2882820121824">
   <g>
    <g>
     <path class="fil0 str0" d="M312.56 208.11c-3.13,7.76 -21.15,14.51 -32.18,16.05 -3.85,1.9 -25.02,4.21 -31.54,4.61 -5.84,0.36 -11.56,0.62 -17.59,0.66 -5.57,0.04 -13.27,-0.66 -18.38,-0.27 -1.96,0.02 -3.53,-0.17 -5.47,-0.27l-2.92 -0.19c-1.21,-0.29 -1.35,-0.49 -1.59,-0.6l-11.31 -1.06c-1.22,-0.09 -2.03,-0.21 -3.25,-0.4 -0.54,-0.09 -0.9,-0.08 -1.43,-0.23 -1.98,-0.58 -1.09,-0.4 -1.7,-0.88 -4.34,-0.02 -21.5,-4.78 -23.61,-6.39 -3.62,-1 -8.62,-3 -10.28,-5.68l-0.43 -0.18c-2.02,-0.72 -0.91,-0 -2.6,-1.71 -0.13,-0.13 -0.82,-0.87 -0.83,-0.87 -0.83,-1.08 -0.4,-0.35 -0.99,-1.73 -3.29,-2.8 -1.63,-15.28 -1.63,-20.74 -0.06,-54.26 0.42,-109.28 -0,-163.33 5.61,1.61 5.75,3.22 17.87,5.85 6.84,1.48 13.59,2.44 20.74,3.25 27.72,3.14 63.46,3.17 91.2,0.05 7.08,-0.8 13.98,-1.74 20.74,-3.22 12.27,-2.7 12,-4.05 18.26,-5.8l0.01 138.21c-0.01,5.98 1.28,43.24 -1.09,44.88zm57.79 -86.17c-0.12,1 0.07,0.8 -0.2,1.77 -0.89,3.25 0.04,0.37 -0.84,1.76 -3.46,15.91 -18.88,30.21 -33.87,34.06 -6.72,1.72 -14.44,0.69 -17.17,-4.33 -1.38,-2.54 -0.63,-57 -0.63,-67.51 0,-5.71 -1.8,-18.24 2.28,-20.67 1.04,-2.79 5.31,-6.79 8.69,-7.95 3.49,-3.56 12.94,-2.35 18.03,-0.45 4.53,1.68 11.88,6.4 12.85,9.55 1.11,0.73 0.43,0.09 1.45,1.19 0.26,0.28 0.72,0.94 0.97,1.3 0.97,1.42 1.22,1.93 1.87,3.68 2.83,2.65 5.79,15.81 6.58,21.28 1.45,10 1.14,16.43 -0,26.34zm-12.42 -68.88c4.08,1.8 12.68,10.11 14.72,14.74 1.49,0.87 4.11,6.57 4.65,8.86 5.31,6.54 6.91,37.01 3.88,46.81 -0.67,5.04 -2.8,11.37 -4.61,15.76 -1.02,2.49 -1.99,4.47 -3.3,6.96l-2.7 4.7c-0.06,0.09 -0.16,0.23 -0.23,0.31 -0.06,0.08 -0.17,0.21 -0.23,0.28 -1.07,1.25 -0.22,0.33 -0.72,0.68 -1.57,3.88 -8.38,11.15 -11.69,12.95 -1.26,3 -26.33,19.45 -39.87,8.9l-0.19 -12.95c6.8,2.51 7.56,4.41 18.69,2.41 20.31,-6.82 22.01,-14.16 27.57,-17.78 0.41,-2.4 0.59,-1.18 2.93,-4.81 2.54,-3.94 6.49,-12.28 6.85,-16.75 0.16,-1.06 0.24,-2.14 0.44,-3.1 0.02,-0.11 0.39,-1.47 0.41,-1.49 0.59,-1.28 0.09,-0.36 0.96,-1.33 -0.43,-1.06 -0.29,-15.18 -0.59,-18.08 -0.61,-5.95 -1.47,-10.7 -2.91,-16.43 -0.48,-0.81 -0.05,0.77 -0.71,-1.38 -0.29,-0.93 -0.17,-0.81 -0.33,-1.72 -0.49,-2.08 -1.57,-4.36 -2.48,-6.31 -0.51,-1.1 -1,-2.04 -1.54,-2.99 -1.08,-1.9 -1.08,-1.31 -1.33,-3.04l-10.51 -10.36c-2.69,-0.4 -19.57,-12.16 -33.8,1.08 -1.37,1.28 -1.67,2.34 -3.58,3.08l-0.04 -14.57c5.36,-1.78 16.65,-2.32 22.86,-1.33 4.56,0.73 15.91,3.72 17.41,6.89zm-212.75 -34.11c8.99,-17.93 160.15,-17.61 168.15,0 -9.14,17.78 -159.81,17.65 -168.15,0zm27.77 -14c-1.07,1.47 -5.08,1.49 -7.02,1.72l-3.16 0.31 -4.68 1.47 -2.19 0.18c-0.57,0.43 0.34,0.14 -1.62,0.96 -0.6,0.25 -1.3,0.38 -1.9,0.56 -3.42,0.3 -8.62,3.57 -10.1,5.59 -2.39,3.26 -1.43,9.53 -1.43,14l0 156.21c0,11.2 -1.73,21.84 3.78,27.56 2.82,2.93 5.06,4.54 9.23,6.67 2.68,1.37 7.82,3.88 10.74,4.34l3.03 1.09 17.34 4.07c1.09,0.1 2.36,0.14 3.28,0.3 0.2,0.04 1.35,0.3 1.49,0.35 2.05,0.77 0.22,-0.02 1.22,0.71 4.88,-0.22 14.91,1.46 20.77,1.88 12.73,0.91 30.45,0.63 43.22,-0.62 4.78,-0.47 15.88,-2.6 19.67,-2.34 2.05,-1.59 9.29,-2.34 12.33,-3.17 8.06,-2.21 20.89,-6.7 26.45,-12.64 0.91,-0.98 1.15,-1.35 1.75,-2.21 0.03,-0.04 0.68,-1.02 0.71,-1.05l1.3 -1.37c-0.15,-1.83 0.5,-4.66 0.51,-7.09l0.04 -23.22c3,0.4 5.5,1.94 9.54,2.15 9.54,0.49 19.18,-3.32 26.59,-8.04 29.3,-18.67 38.91,-58.6 29.62,-91.85 -0.68,-2.44 -2.61,-6.4 -2.62,-8.48l-2.31 -3.63c-2.88,-5.54 -5.87,-8.01 -7.75,-11.4 -0.95,-0.08 -0.65,0.23 -0.71,-0.79 -2.02,-0.9 -1.06,-0.44 -2.76,-2.16 -1.04,-1.06 -1.59,-1.36 -2.79,-2.33 -1.62,-1.31 -4.21,-2.89 -5.26,-4.52 -2.53,-0.26 -5.86,-2.56 -8.74,-3.57 -14.11,-4.91 -20.88,-2.21 -32.71,-1.42 -0.71,-6.16 1.09,-22.42 -1.16,-26.67 -2.18,-4.09 -12.42,-8.16 -18.79,-8.8l-4.88 -1.37 -6.68 -0.72c-1.56,-0.12 -3.02,-0.44 -4.63,-0.62 -0.68,-0.08 -1.43,-0.09 -2.11,-0.26 -2.93,-0.75 -0.5,0.09 -1.62,-0.84 -4.14,0.34 -8.91,-0.64 -13.01,-0.99 -20.31,-1.72 -47,-1.77 -67.16,-0.32 -6.74,0.49 -19.16,2.65 -24.79,2.37z"/>
     <path id="1" class="fil1" d="M312.56 208.11c-3.13,7.76 -21.15,14.51 -32.18,16.05 -3.85,1.9 -25.02,4.21 -31.54,4.61 -5.84,0.36 -11.56,0.62 -17.59,0.66 -5.57,0.04 -13.27,-0.66 -18.38,-0.27 -1.96,0.02 -3.53,-0.17 -5.47,-0.27l-2.92 -0.19c-1.21,-0.29 -1.35,-0.49 -1.59,-0.6l-11.31 -1.06c-1.22,-0.09 -2.03,-0.21 -3.25,-0.4 -0.54,-0.09 -0.9,-0.08 -1.43,-0.23 -1.98,-0.58 -1.09,-0.4 -1.7,-0.88 -4.34,-0.02 -21.5,-4.78 -23.61,-6.39 -3.62,-1 -8.62,-3 -10.28,-5.68l-0.43 -0.18c-2.02,-0.72 -0.91,-0 -2.6,-1.71 -0.13,-0.13 -0.82,-0.87 -0.83,-0.87 -0.83,-1.08 -0.4,-0.35 -0.99,-1.73 -3.29,-2.8 -1.63,-15.28 -1.63,-20.74 -0.06,-54.26 0.42,-109.28 -0,-163.33 5.61,1.61 5.75,3.22 17.87,5.85 6.84,1.48 13.59,2.44 20.74,3.25 27.72,3.14 63.46,3.17 91.2,0.05 7.08,-0.8 13.98,-1.74 20.74,-3.22 12.27,-2.7 12,-4.05 18.26,-5.8l0.01 138.21c-0.01,5.98 1.28,43.24 -1.09,44.88zm57.79 -86.17c-0.12,1 0.07,0.8 -0.2,1.77 -0.89,3.25 0.04,0.37 -0.84,1.76 -3.46,15.91 -18.88,30.21 -33.87,34.06 -6.72,1.72 -14.44,0.69 -17.17,-4.33 -1.38,-2.54 -0.63,-57 -0.63,-67.51 0,-5.71 -1.8,-18.24 2.28,-20.67 1.04,-2.79 5.31,-6.79 8.69,-7.95 3.49,-3.56 12.94,-2.35 18.03,-0.45 4.53,1.68 11.88,6.4 12.85,9.55 1.11,0.73 0.43,0.09 1.45,1.19 0.26,0.28 0.72,0.94 0.97,1.3 0.97,1.42 1.22,1.93 1.87,3.68 2.83,2.65 5.79,15.81 6.58,21.28 1.45,10 1.14,16.43 -0,26.34zm-12.42 -68.88c4.08,1.8 12.68,10.11 14.72,14.74 1.49,0.87 4.11,6.57 4.65,8.86 5.31,6.54 6.91,37.01 3.88,46.81 -0.67,5.04 -2.8,11.37 -4.61,15.76 -1.02,2.49 -1.99,4.47 -3.3,6.96l-2.7 4.7c-0.06,0.09 -0.16,0.23 -0.23,0.31 -0.06,0.08 -0.17,0.21 -0.23,0.28 -1.07,1.25 -0.22,0.33 -0.72,0.68 -1.57,3.88 -8.38,11.15 -11.69,12.95 -1.26,3 -26.33,19.45 -39.87,8.9l-0.19 -12.95c6.8,2.51 7.56,4.41 18.69,2.41 20.31,-6.82 22.01,-14.16 27.57,-17.78 0.41,-2.4 0.59,-1.18 2.93,-4.81 2.54,-3.94 6.49,-12.28 6.85,-16.75 0.16,-1.06 0.24,-2.14 0.44,-3.1 0.02,-0.11 0.39,-1.47 0.41,-1.49 0.59,-1.28 0.09,-0.36 0.96,-1.33 -0.43,-1.06 -0.29,-15.18 -0.59,-18.08 -0.61,-5.95 -1.47,-10.7 -2.91,-16.43 -0.48,-0.81 -0.05,0.77 -0.71,-1.38 -0.29,-0.93 -0.17,-0.81 -0.33,-1.72 -0.49,-2.08 -1.57,-4.36 -2.48,-6.31 -0.51,-1.1 -1,-2.04 -1.54,-2.99 -1.08,-1.9 -1.08,-1.31 -1.33,-3.04l-10.51 -10.36c-2.69,-0.4 -19.57,-12.16 -33.8,1.08 -1.37,1.28 -1.67,2.34 -3.58,3.08l-0.04 -14.57c5.36,-1.78 16.65,-2.32 22.86,-1.33 4.56,0.73 15.91,3.72 17.41,6.89zm-212.75 -34.11c8.99,-17.93 160.15,-17.61 168.15,0 -9.14,17.78 -159.81,17.65 -168.15,0zm27.77 -14c-1.07,1.47 -5.08,1.49 -7.02,1.72l-3.16 0.31 -4.68 1.47 -2.19 0.18c-0.57,0.43 0.34,0.14 -1.62,0.96 -0.6,0.25 -1.3,0.38 -1.9,0.56 -3.42,0.3 -8.62,3.57 -10.1,5.59 -2.39,3.26 -1.43,9.53 -1.43,14l0 156.21c0,11.2 -1.73,21.84 3.78,27.56 2.82,2.93 5.06,4.54 9.23,6.67 2.68,1.37 7.82,3.88 10.74,4.34l3.03 1.09 17.34 4.07c1.09,0.1 2.36,0.14 3.28,0.3 0.2,0.04 1.35,0.3 1.49,0.35 2.05,0.77 0.22,-0.02 1.22,0.71 4.88,-0.22 14.91,1.46 20.77,1.88 12.73,0.91 30.45,0.63 43.22,-0.62 4.78,-0.47 15.88,-2.6 19.67,-2.34 2.05,-1.59 9.29,-2.34 12.33,-3.17 8.06,-2.21 20.89,-6.7 26.45,-12.64 0.91,-0.98 1.15,-1.35 1.75,-2.21 0.03,-0.04 0.68,-1.02 0.71,-1.05l1.3 -1.37c-0.15,-1.83 0.5,-4.66 0.51,-7.09l0.04 -23.22c3,0.4 5.5,1.94 9.54,2.15 9.54,0.49 19.18,-3.32 26.59,-8.04 29.3,-18.67 38.91,-58.6 29.62,-91.85 -0.68,-2.44 -2.61,-6.4 -2.62,-8.48l-2.31 -3.63c-2.88,-5.54 -5.87,-8.01 -7.75,-11.4 -0.95,-0.08 -0.65,0.23 -0.71,-0.79 -2.02,-0.9 -1.06,-0.44 -2.76,-2.16 -1.04,-1.06 -1.59,-1.36 -2.79,-2.33 -1.62,-1.31 -4.21,-2.89 -5.26,-4.52 -2.53,-0.26 -5.86,-2.56 -8.74,-3.57 -14.11,-4.91 -20.88,-2.21 -32.71,-1.42 -0.71,-6.16 1.09,-22.42 -1.16,-26.67 -2.18,-4.09 -12.42,-8.16 -18.79,-8.8l-4.88 -1.37 -6.68 -0.72c-1.56,-0.12 -3.02,-0.44 -4.63,-0.62 -0.68,-0.08 -1.43,-0.09 -2.11,-0.26 -2.93,-0.75 -0.5,0.09 -1.62,-0.84 -4.14,0.34 -8.91,-0.64 -13.01,-0.99 -20.31,-1.72 -47,-1.77 -67.16,-0.32 -6.74,0.49 -19.16,2.65 -24.79,2.37z"/>
    </g>
    <g>
     <path class="fil0 str0" d="M278.6 25.1l-11.56 1.49c-6.35,-0.61 -18.3,0.74 -25.56,0.91 -8.88,0.2 -17.82,0.17 -26.7,-0.05 -8.65,-0.22 -16.96,-0.66 -25.57,-1.28 -7.74,-0.56 -16.05,-2.31 -23.1,-2.62l-4.72 -1.38c-2.75,-0.14 -6.92,-1.53 -8.32,-3.21 8.95,-11.6 136.16,-10.87 150.96,-1.2 1.97,1.29 0.33,-0 1.29,1.2 -3.15,3.92 -23.16,6.34 -26.72,6.15zm10.25 -14.04l-4.8 -0.6c-0.13,-0.04 -0.4,-0 -0.5,-0.21 -0.1,-0.22 -0.34,-0.16 -0.51,-0.24 -4.74,-0.11 -11.14,-1.12 -16.07,-1.46 -27.16,-1.92 -78.66,-1.99 -104.5,3.59 -4.96,1.07 -10.6,2.28 -12.56,6.25 -2.07,12.05 74.71,12.18 79.06,12.18 18.72,0.03 45.49,-0.93 64.11,-4.3 5.72,-1.03 14.75,-2.09 15.49,-7.88 -0.74,-4.53 -15.66,-7.28 -19.73,-7.33z"/>
     <path id="1" class="fil1" d="M278.6 25.1l-11.56 1.49c-6.35,-0.61 -18.3,0.74 -25.56,0.91 -8.88,0.2 -17.82,0.17 -26.7,-0.05 -8.65,-0.22 -16.96,-0.66 -25.57,-1.28 -7.74,-0.56 -16.05,-2.31 -23.1,-2.62l-4.72 -1.38c-2.75,-0.14 -6.92,-1.53 -8.32,-3.21 8.95,-11.6 136.16,-10.87 150.96,-1.2 1.97,1.29 0.33,-0 1.29,1.2 -3.15,3.92 -23.16,6.34 -26.72,6.15zm10.25 -14.04l-4.8 -0.6c-0.13,-0.04 -0.4,-0 -0.5,-0.21 -0.1,-0.22 -0.34,-0.16 -0.51,-0.24 -4.74,-0.11 -11.14,-1.12 -16.07,-1.46 -27.16,-1.92 -78.66,-1.99 -104.5,3.59 -4.96,1.07 -10.6,2.28 -12.56,6.25 -2.07,12.05 74.71,12.18 79.06,12.18 18.72,0.03 45.49,-0.93 64.11,-4.3 5.72,-1.03 14.75,-2.09 15.49,-7.88 -0.74,-4.53 -15.66,-7.28 -19.73,-7.33z"/>
    </g>
   </g>
   <g>
    <g>
     <path class="fil0 str1" d="M65.12 71.97c18.75,0.01 37,0.04 55.66,1.69 -5.97,2.56 -43.61,2.33 -55.1,2.36 -17.1,0 -36.42,0.04 -52.86,-2.06 5.74,-2.19 43.36,-1.99 52.29,-1.98zm-62.8 10.57l0.45 2.84c1.81,1.51 1.46,2.1 2.23,3.96 1.05,-3.72 -0.34,-2.22 0.86,-5.67l0.71 -0.02c0.04,0 0.26,0.02 0.3,0.02l0.48 0.02c0.02,0 0.14,0.02 0.2,-0.02 -0.18,-0.66 -0.48,-1.77 0.06,-3.75l-0.2 -3.71c5.03,-0.13 13.82,1.37 19.72,1.66 19.95,0.98 44.88,1.06 64.63,0.54l15.47 -0.21 17.71 -1.94 1.4 -0.6c0.14,2.15 0.46,1.43 -0.7,2.86l-4.26 24.49c-0.13,0.81 -0.22,1.69 -0.41,2.49 -0.04,0.19 -0.16,0.73 -0.22,0.9 -0.82,2.44 0.03,0.15 -0.64,1.31 -0.47,4.77 -7.04,36.78 -8.81,38.61l-0.11 1.44c-0.57,3.08 -1.46,6.26 -2.48,9.03 -0.95,2.58 -2.66,5.18 -3.03,7.6 0.14,2.32 -0.18,0.58 0.34,2.01l0.75 1.92c1.4,-1.57 0.08,-0.88 2.45,-1.11 3.78,-2.49 8.36,-19.6 9.09,-25.5l0.23 -2.68 0.9 -2.17c0.28,0.52 0.47,0.02 0.47,1.2 -0,1.79 -0.14,0.61 -0.37,1 -0.01,1.99 0.28,2.33 -0.82,3.5 0.5,6.3 -2.46,24.88 -3.35,32.35 -0.63,5.24 -4.05,28.96 -3.11,32.2l0.56 2.45c0.47,-2.34 0.89,-0.84 1.85,-1.73 1.68,-1.55 0.32,0.17 0.51,-2.71 0.17,-2.55 0.44,-1.39 0.69,-3.54 0.27,-2.36 -0.41,-1.67 -0.02,-3.92 1.59,-0.73 -0.46,-2.34 0.93,0.19 1.28,2.32 0.11,1.16 -0.07,1.51 0.22,-1.23 0.18,-1.4 0.39,-2.02 0.07,-0.19 0.3,-0.79 0.39,-0.98l0.62 -1.01c0.1,-0.16 0.22,-0.36 0.36,-0.52 1.33,-5.5 2.26,-30.06 4.15,-32.67l-0.12 -1.92 3.97 -31.3c-0.49,-1.9 -0.13,-4.67 0.28,-6.69 0.87,-8.64 1.83,-16.87 2.85,-25.55 0.66,-5.6 3.17,-20.15 2.44,-25.59 -5.8,-2.9 -12.3,-2.4 -18,-3.51 -3.79,-0.14 -18.28,0.07 -20.37,-1.13l-10.99 0.21c-14.19,-0.14 -28.55,-0.17 -42.67,0.17 -8.77,0.21 -33.81,-0.14 -38.48,4.92l0.77 10.77z"/>
     <path id="1" class="fil1" d="M65.12 71.97c18.75,0.01 37,0.04 55.66,1.69 -5.97,2.56 -43.61,2.33 -55.1,2.36 -17.1,0 -36.42,0.04 -52.86,-2.06 5.74,-2.19 43.36,-1.99 52.29,-1.98zm-62.8 10.57l0.45 2.84c1.81,1.51 1.46,2.1 2.23,3.96 1.05,-3.72 -0.34,-2.22 0.86,-5.67l0.71 -0.02c0.04,0 0.26,0.02 0.3,0.02l0.48 0.02c0.02,0 0.14,0.02 0.2,-0.02 -0.18,-0.66 -0.48,-1.77 0.06,-3.75l-0.2 -3.71c5.03,-0.13 13.82,1.37 19.72,1.66 19.95,0.98 44.88,1.06 64.63,0.54l15.47 -0.21 17.71 -1.94 1.4 -0.6c0.14,2.15 0.46,1.43 -0.7,2.86l-4.26 24.49c-0.13,0.81 -0.22,1.69 -0.41,2.49 -0.04,0.19 -0.16,0.73 -0.22,0.9 -0.82,2.44 0.03,0.15 -0.64,1.31 -0.47,4.77 -7.04,36.78 -8.81,38.61l-0.11 1.44c-0.57,3.08 -1.46,6.26 -2.48,9.03 -0.95,2.58 -2.66,5.18 -3.03,7.6 0.14,2.32 -0.18,0.58 0.34,2.01l0.75 1.92c1.4,-1.57 0.08,-0.88 2.45,-1.11 3.78,-2.49 8.36,-19.6 9.09,-25.5l0.23 -2.68 0.9 -2.17c0.28,0.52 0.47,0.02 0.47,1.2 -0,1.79 -0.14,0.61 -0.37,1 -0.01,1.99 0.28,2.33 -0.82,3.5 0.5,6.3 -2.46,24.88 -3.35,32.35 -0.63,5.24 -4.05,28.96 -3.11,32.2l0.56 2.45c0.47,-2.34 0.89,-0.84 1.85,-1.73 1.68,-1.55 0.32,0.17 0.51,-2.71 0.17,-2.55 0.44,-1.39 0.69,-3.54 0.27,-2.36 -0.41,-1.67 -0.02,-3.92 1.59,-0.73 -0.46,-2.34 0.93,0.19 1.28,2.32 0.11,1.16 -0.07,1.51 0.22,-1.23 0.18,-1.4 0.39,-2.02 0.07,-0.19 0.3,-0.79 0.39,-0.98l0.62 -1.01c0.1,-0.16 0.22,-0.36 0.36,-0.52 1.33,-5.5 2.26,-30.06 4.15,-32.67l-0.12 -1.92 3.97 -31.3c-0.49,-1.9 -0.13,-4.67 0.28,-6.69 0.87,-8.64 1.83,-16.87 2.85,-25.55 0.66,-5.6 3.17,-20.15 2.44,-25.59 -5.8,-2.9 -12.3,-2.4 -18,-3.51 -3.79,-0.14 -18.28,0.07 -20.37,-1.13l-10.99 0.21c-14.19,-0.14 -28.55,-0.17 -42.67,0.17 -8.77,0.21 -33.81,-0.14 -38.48,4.92l0.77 10.77z"/>
    </g>
    <g>
     <path class="fil0 str1" d="M2.78 85.38l-0.22 2.37c1.88,2.89 2.13,18.84 3.33,23.94l0.07 6.07c1.8,2.93 1.98,15.27 2.71,19.79l1.22 10.77 2.12 19.84c0.38,1.82 0.55,3.28 0.22,5.11 1.65,2.75 3.08,22.78 3.52,27.78l-0.12 2.78c1.28,1.99 0.85,6.75 1.7,9.32 2.31,6.98 16.04,8.73 20.69,9.89 1.86,0.46 0.96,0.04 2.22,0.84 2.47,-0.49 21.14,1.1 26.01,1.11 8.61,0.03 17.54,-0.3 25.89,-1.41 7.01,-0.93 16.4,-2.85 20.86,-6.43 3.43,-2.75 3.51,-4.11 4.09,-9.55 0.5,-4.67 1.02,-8.05 1.39,-12.79 -0.14,0.16 -0.27,0.36 -0.36,0.52l-0.62 1.01c-0.09,0.2 -0.33,0.79 -0.39,0.98 -0.21,0.62 -0.17,0.79 -0.39,2.02 0.19,-0.35 1.35,0.81 0.07,-1.51 -1.39,-2.53 0.67,-0.92 -0.93,-0.19 -0.39,2.25 0.3,1.57 0.02,3.92 -0.25,2.14 -0.52,0.99 -0.69,3.54 -0.19,2.88 1.16,1.16 -0.51,2.71 -0.96,0.89 -1.37,-0.61 -1.85,1.73l-0.56 -2.45c-1.83,2.9 1.87,6.08 -11.78,9.49 -12.38,3.09 -54.3,4.89 -58.93,1.21 -2.72,0.21 -6.48,-0.71 -7.49,-1.08 -4.27,-0.69 -10.71,-2.55 -11.7,-5.73 -0.68,-2.18 -1.65,-13.53 -1.85,-16.44l-5.73 -52.27c-0.53,-0.54 -0.47,-0.21 -0.64,-1.33 -0.23,-1.48 -0.09,-0.61 0.03,-1.8 -0.44,-0.58 -0.58,0.9 -0.54,-1.06 0.02,-0.97 0.21,-0.79 0.42,-1.15l0.78 1.74 0.48 2.94c0.83,11.21 7.42,25.91 15.33,34.37 1.06,1.13 3.06,2.86 4.53,3.99 1.73,1.33 3.64,1.95 5.01,3.73 1.88,0.26 6.99,2.72 9.78,3.57 3.9,1.19 8.09,1.82 12.28,2.11l8.51 0.09c5.01,-0.51 8.92,-0.94 13.75,-2.47 2.41,-0.77 10.14,-3.52 11.47,-5.72 0.03,-2.81 -0.73,-1 0.87,-2.33 -1.69,-1.19 -0.04,-0.16 -1.3,-0.49 -0.09,-0.02 -0.26,-0.07 -0.36,-0.09l-2.46 -0.39c-1.83,0.15 -8.09,3.84 -12.6,4.59 -3.31,1.36 -13.24,1.89 -17.87,1.37 -7.88,-0.39 -14.47,-2.38 -20.57,-5.96 -4.72,-2.77 -10.85,-8.5 -13.01,-13.77 -2.87,-1.42 -8.74,-23.97 -9.62,-30.06l-1.29 -5.91 -2.54 -12.11c-0.98,-1.68 -3.07,-13.28 -2.71,-15.32 -1.2,-1.67 -2.12,-8.31 -2.59,-10.72 -0.56,-2.87 -0.68,-8.04 -2.32,-10.16 -0.55,1.99 -0.24,3.09 -0.06,3.75 -0.05,0.04 -0.17,0.02 -0.2,0.02l-0.48 -0.02c-0.05,-0 -0.26,-0.02 -0.3,-0.02l-0.71 0.02c-1.2,3.45 0.19,1.95 -0.86,5.67 -0.78,-1.87 -0.42,-2.45 -2.23,-3.96z"/>
     <path id="1" class="fil1" d="M2.78 85.38l-0.22 2.37c1.88,2.89 2.13,18.84 3.33,23.94l0.07 6.07c1.8,2.93 1.98,15.27 2.71,19.79l1.22 10.77 2.12 19.84c0.38,1.82 0.55,3.28 0.22,5.11 1.65,2.75 3.08,22.78 3.52,27.78l-0.12 2.78c1.28,1.99 0.85,6.75 1.7,9.32 2.31,6.98 16.04,8.73 20.69,9.89 1.86,0.46 0.96,0.04 2.22,0.84 2.47,-0.49 21.14,1.1 26.01,1.11 8.61,0.03 17.54,-0.3 25.89,-1.41 7.01,-0.93 16.4,-2.85 20.86,-6.43 3.43,-2.75 3.51,-4.11 4.09,-9.55 0.5,-4.67 1.02,-8.05 1.39,-12.79 -0.14,0.16 -0.27,0.36 -0.36,0.52l-0.62 1.01c-0.09,0.2 -0.33,0.79 -0.39,0.98 -0.21,0.62 -0.17,0.79 -0.39,2.02 0.19,-0.35 1.35,0.81 0.07,-1.51 -1.39,-2.53 0.67,-0.92 -0.93,-0.19 -0.39,2.25 0.3,1.57 0.02,3.92 -0.25,2.14 -0.52,0.99 -0.69,3.54 -0.19,2.88 1.16,1.16 -0.51,2.71 -0.96,0.89 -1.37,-0.61 -1.85,1.73l-0.56 -2.45c-1.83,2.9 1.87,6.08 -11.78,9.49 -12.38,3.09 -54.3,4.89 -58.93,1.21 -2.72,0.21 -6.48,-0.71 -7.49,-1.08 -4.27,-0.69 -10.71,-2.55 -11.7,-5.73 -0.68,-2.18 -1.65,-13.53 -1.85,-16.44l-5.73 -52.27c-0.53,-0.54 -0.47,-0.21 -0.64,-1.33 -0.23,-1.48 -0.09,-0.61 0.03,-1.8 -0.44,-0.58 -0.58,0.9 -0.54,-1.06 0.02,-0.97 0.21,-0.79 0.42,-1.15l0.78 1.74 0.48 2.94c0.83,11.21 7.42,25.91 15.33,34.37 1.06,1.13 3.06,2.86 4.53,3.99 1.73,1.33 3.64,1.95 5.01,3.73 1.88,0.26 6.99,2.72 9.78,3.57 3.9,1.19 8.09,1.82 12.28,2.11l8.51 0.09c5.01,-0.51 8.92,-0.94 13.75,-2.47 2.41,-0.77 10.14,-3.52 11.47,-5.72 0.03,-2.81 -0.73,-1 0.87,-2.33 -1.69,-1.19 -0.04,-0.16 -1.3,-0.49 -0.09,-0.02 -0.26,-0.07 -0.36,-0.09l-2.46 -0.39c-1.83,0.15 -8.09,3.84 -12.6,4.59 -3.31,1.36 -13.24,1.89 -17.87,1.37 -7.88,-0.39 -14.47,-2.38 -20.57,-5.96 -4.72,-2.77 -10.85,-8.5 -13.01,-13.77 -2.87,-1.42 -8.74,-23.97 -9.62,-30.06l-1.29 -5.91 -2.54 -12.11c-0.98,-1.68 -3.07,-13.28 -2.71,-15.32 -1.2,-1.67 -2.12,-8.31 -2.59,-10.72 -0.56,-2.87 -0.68,-8.04 -2.32,-10.16 -0.55,1.99 -0.24,3.09 -0.06,3.75 -0.05,0.04 -0.17,0.02 -0.2,0.02l-0.48 -0.02c-0.05,-0 -0.26,-0.02 -0.3,-0.02l-0.71 0.02c-1.2,3.45 0.19,1.95 -0.86,5.67 -0.78,-1.87 -0.42,-2.45 -2.23,-3.96z"/>
    </g>
    <g>
     <path class="fil0 str1" d="M92.75 177.97l2.46 0.39c0.11,0.02 0.27,0.07 0.36,0.09 1.26,0.33 -0.39,-0.69 1.3,0.49 -1.6,1.33 -0.84,-0.48 -0.87,2.33l1.03 0.25c0.95,-1.69 2.12,-2.2 4.15,-3.94 1.96,-1.68 2.58,-2.85 4.38,-3.92 0.93,-2.32 2.84,-3.64 3.69,-6.46 -2.37,0.23 -1.06,-0.46 -2.45,1.11l-0.75 -1.92c-0.52,-1.43 -0.2,0.32 -0.34,-2.01 -1.37,1.01 -1.8,2.01 -2.87,3.51 -1.21,1.69 -1.5,2.07 -3.15,3.64 -3.19,3.04 -0.85,1.42 -5.02,4.61l-1.9 1.83z"/>
     <path id="1" class="fil1" d="M92.75 177.97l2.46 0.39c0.11,0.02 0.27,0.07 0.36,0.09 1.26,0.33 -0.39,-0.69 1.3,0.49 -1.6,1.33 -0.84,-0.48 -0.87,2.33l1.03 0.25c0.95,-1.69 2.12,-2.2 4.15,-3.94 1.96,-1.68 2.58,-2.85 4.38,-3.92 0.93,-2.32 2.84,-3.64 3.69,-6.46 -2.37,0.23 -1.06,-0.46 -2.45,1.11l-0.75 -1.92c-0.52,-1.43 -0.2,0.32 -0.34,-2.01 -1.37,1.01 -1.8,2.01 -2.87,3.51 -1.21,1.69 -1.5,2.07 -3.15,3.64 -3.19,3.04 -0.85,1.42 -5.02,4.61l-1.9 1.83z"/>
    </g>
    <g>
     <path class="fil0 str1" d="M118.35 141.71l0.4 0.85c1.1,-1.17 0.8,-1.51 0.82,-3.5l-0.99 -0.03 -0.23 2.68z"/>
     <path id="1" class="fil1" d="M118.35 141.71l0.4 0.85c1.1,-1.17 0.8,-1.51 0.82,-3.5l-0.99 -0.03 -0.23 2.68z"/>
    </g>
    <g>
     <path class="fil0 str1" d="M14.81 142.27l0.53 -0.66 -0.48 -2.94 -0.66 0.47c-0.12,1.19 -0.26,0.32 -0.03,1.8 0.17,1.12 0.12,0.79 0.64,1.33z"/>
     <path id="1" class="fil1" d="M14.81 142.27l0.53 -0.66 -0.48 -2.94 -0.66 0.47c-0.12,1.19 -0.26,0.32 -0.03,1.8 0.17,1.12 0.12,0.79 0.64,1.33z"/>
    </g>
    <g>
     <path class="fil0 str1" d="M120.14 107.72c0.67,-1.16 -0.18,1.12 0.64,-1.31 0.06,-0.17 0.18,-0.71 0.22,-0.9 0.18,-0.81 0.27,-1.69 0.41,-2.49 -0.75,0.9 -0.54,-0.04 -0.98,2.01 -0.13,0.62 -0.22,2.07 -0.29,2.7z"/>
     <path id="1" class="fil1" d="M120.14 107.72c0.67,-1.16 -0.18,1.12 0.64,-1.31 0.06,-0.17 0.18,-0.71 0.22,-0.9 0.18,-0.81 0.27,-1.69 0.41,-2.49 -0.75,0.9 -0.54,-0.04 -0.98,2.01 -0.13,0.62 -0.22,2.07 -0.29,2.7z"/>
    </g>
    <g>
     <path class="fil0 str1" d="M118.58 139.02l0.99 0.03c0.23,-0.39 0.37,0.79 0.37,-1 0,-1.18 -0.19,-0.67 -0.47,-1.2l-0.9 2.17z"/>
     <path id="1" class="fil1" d="M118.58 139.02l0.99 0.03c0.23,-0.39 0.37,0.79 0.37,-1 0,-1.18 -0.19,-0.67 -0.47,-1.2l-0.9 2.17z"/>
    </g>
    <g>
     <path class="fil0 str1" d="M14.2 139.14l0.66 -0.47 -0.78 -1.74c-0.2,0.36 -0.4,0.18 -0.42,1.15 -0.04,1.96 0.1,0.48 0.54,1.06z"/>
     <path id="1" class="fil1" d="M14.2 139.14l0.66 -0.47 -0.78 -1.74c-0.2,0.36 -0.4,0.18 -0.42,1.15 -0.04,1.96 0.1,0.48 0.54,1.06z"/>
    </g>
    <g>
     <path class="fil0 str1" d="M125.66 78.52c1.16,-1.43 0.84,-0.71 0.7,-2.86l-1.4 0.6c1.68,0.11 1.03,0.32 0.7,2.26z"/>
     <path id="1" class="fil1" d="M125.66 78.52c1.16,-1.43 0.84,-0.71 0.7,-2.86l-1.4 0.6c1.68,0.11 1.03,0.32 0.7,2.26z"/>
    </g>
   </g>
  </g>
 </g>
</svg>
