<?xml version="1.0" encoding="UTF-8"?>
<!DOCTYPE svg PUBLIC "-//W3C//DTD SVG 1.1//EN" "http://www.w3.org/Graphics/SVG/1.1/DTD/svg11.dtd">
<!-- Creator: CorelDRAW 2017 -->
<svg xmlns="http://www.w3.org/2000/svg" xml:space="preserve" width="80.5055mm" height="65.0888mm" version="1.1" style="shape-rendering:geometricPrecision; text-rendering:geometricPrecision; image-rendering:optimizeQuality; fill-rule:evenodd; clip-rule:evenodd"
viewBox="0 0 336.64 272.18"
 xmlns:xlink="http://www.w3.org/1999/xlink">
 <defs>
  <style type="text/css">
   <![CDATA[
    .str0 {stroke:white;stroke-width:2.21;stroke-miterlimit:22.9256}
    .fil0 {fill:#FEFEFE}
   ]]>
  </style>
 </defs>
 <g id="projekty">
  <metadata id="CorelCorpID_0Corel-Layer"/>
  <g id="_2882713468656">
   <path class="fil0 str0" d="M93.4 114.23c7.56,10.96 25.71,12.81 26.5,24.93 -12.29,-0.16 -25.86,-2.54 -35.67,-7.41 -3.44,-1.71 -11.87,-6.85 -6.97,-11.92 2.05,-2.12 12.75,-5.53 16.13,-5.61zm60.62 -96l44.98 -0c-0.06,5.56 -0.69,42 0.37,44.01 -0.11,7.91 5.13,17.84 6.14,25.21 -0.72,0.17 -14.8,4.12 -15.47,5.22 -0.71,1.91 -0.99,7.98 -1.35,10.5 -0.59,4.12 -0.56,6.67 -2.17,10.28 -1.01,2.27 -0.65,2.28 -3.11,2.89 -1.58,0.39 -12.87,3.02 -13.82,3.8 -0.93,0.76 0.1,-0.13 -0.1,1.12 1.66,0.82 5.55,-1.3 7.74,-1.9 2.9,-0.79 6.09,-1.59 8.92,-2.15 1.39,-0.75 4.99,-1.49 6.79,-2.15 22.54,-8.2 16.07,-20.85 9.78,-42.98 -3.02,-10.6 -2.03,-23.02 -2.03,-34.66 0,-7.01 0.33,-31.31 -0.12,-36.34l-47.84 0.1c-0.75,6.88 -0.1,17.72 -0.1,25.03 -0,8.4 -0.02,16.81 0.01,25.21 0.03,8.98 -4.32,16.6 -9.49,22.23l-8.05 7.97c-0.59,0.58 -0.69,0.86 -1.45,1.47l0.5 0.92c2,-0.45 8.55,-7.74 10.69,-10.28 2.79,-3.32 6.48,-8.31 8.12,-13.48 2.03,-6.42 1.26,-33.48 1.07,-42.04zm37.1 75.01c1.13,-0.65 12.92,-4.36 14.78,-4.69 1.34,8.23 2.8,13.82 -2.71,19.16 -3.46,3.36 -10.26,6.45 -16.25,7.67 0.57,-1.77 1.32,-2.73 1.82,-4.92 1.22,-5.38 1.27,-13.13 2.37,-17.23zm-37.07 -90.74c13.67,0.1 33.28,-0.57 45.12,0.28l-0.05 14.09 -44.99 0.03 -0.08 -10.66 -0.01 -3.73zm-9.76 132.79c0.94,-1.18 10.28,-5.84 12.27,-6.97l12.75 -6.89c-0.46,-0.26 0.06,-0.81 -0.36,-0.79 -1.17,0.05 -3.62,1.49 -5.62,2.44 -1.88,0.89 -3.75,1.93 -5.55,2.85 -9.58,4.91 -23.02,14.31 -36.46,13.09 -2.53,-4.92 1.18,-5.93 -12.07,-13.86 -3.79,-2.27 -12.68,-7.79 -14.75,-11.27 0.07,-0.06 0.2,-0.24 0.24,-0.17l11.48 -5.32c6.64,-3.96 11.36,-8.73 16.78,-13.24 2.8,-2.33 10.28,-8.63 11.03,-11.07 -0.22,0.01 -0.3,-0.86 -0.52,-0.78 -0.62,0.22 -1.05,1.07 -1.77,1.82 -1.25,1.31 -2.86,2.86 -4.22,4.14 -1.12,1.05 -2.14,1.68 -3.23,2.78 -1.36,1.37 -2.05,1.74 -3.19,2.82l-6.42 5.57c-18.72,16.62 -36.1,11.89 -39.72,20.31 -4.68,10.91 21.35,17.23 28.71,18.43 7.14,1.17 14.73,1.99 22.14,1.21 10.47,-1.1 15.99,-4.96 18.49,-5.09z"/>
   <g>
    <path class="fil0 str0" d="M180.66 261.89c6.59,-6.43 -0.34,-25.36 -2.11,-42.06 -0.82,-7.74 -1.64,-15.39 -2.53,-23.06 -1.66,-14.3 -7.23,-11.28 -7.26,-17.4 8.85,-0.28 10.15,-2.38 17.16,-4.5 16.83,-5.09 88.86,-7.32 106.3,-5.24 7.17,0.86 12.1,2.38 18.77,3.88 10.56,2.37 11.92,-0.1 20.32,0.16 -1.43,5.95 -4.14,4.56 -4.2,8.95 -0.02,1.85 1.59,7.83 1.83,11.34 1.33,19.05 -1.12,33.31 -0.9,49.75 0.15,11.57 4.22,12.19 6.35,20.17 -3.96,-0.73 -3.68,-2.02 -8.16,-2.82 -2.94,-0.52 -6.62,-0.6 -9.66,-0.51 -30.47,0.93 -43.63,10.89 -99.31,6.67 -7.35,-0.56 -24.07,-3.54 -29.74,-0.97 -2.73,1.24 -3.76,3.79 -8.16,2.32l1.31 -6.67zm-35.73 -89.7c-0.58,-0.57 -0.07,-0.21 -1.51,-1.02l-3.37 -1.64c2.08,-6.06 9.13,-5.18 16.28,-6.74 11.57,-2.52 20.41,-10.68 52.52,-15.56 14.07,-2.14 28.05,-2.91 42.38,-3.24l33.94 -0.64c3.55,-0.54 5.17,-2.38 8.28,-2.01 0.25,3.52 -1.49,2.17 -0.48,7.18 0.6,2.96 3.96,6.82 6.5,20.66 -27.07,-3.53 -74.81,-0.79 -103.49,2.58l-29.14 7.57c-0.24,6.49 6.08,6.95 7.5,13.18 1.78,7.77 1.08,30.17 7.12,55.53l-1.58 1.02c-6.34,3.8 -3.56,4.28 -7.93,5.35 0.63,-4.92 3.4,-6.92 0.57,-12.12 -1.49,-2.74 -3.59,-5.31 -5.33,-8.61 -6.08,-11.48 -13,-26.69 -16.11,-39.71 -1.69,-7.05 -2.22,-18.89 -6.15,-21.76zm0 0c7.61,49.13 23.88,63.17 26.94,72.47 1.6,4.84 -1.88,6.18 -1.03,10.31 0.05,0.03 0.42,3.61 5.12,-1.13 2.17,-2.18 1.86,-3.17 5.59,-3.27 2.69,5.31 0.22,7.22 -0.88,11.33 -0.44,0.4 -0.64,0.46 -1.34,1.37 -0.47,0.63 -1.09,1.61 -1.32,2.22 -0.73,1.97 -0.35,3.42 0.19,5.03 8.38,2.2 6.78,-4.85 17.25,-4.11 6.61,0.47 13.04,1.65 19.66,2.15 28.53,2.16 53.85,0.51 81.88,-4.33 6.69,-1.15 12.73,-2.23 19.58,-2.33 6.24,-0.1 16.38,3 18.9,2.38 0.81,-6.28 -6.1,-9.31 -5.94,-19.73 0.12,-8.13 1.31,-16.76 1.47,-25.28 0.15,-7.87 0.74,-17.67 -0.26,-25.33 -0.5,-3.82 -2.32,-7.69 -2.01,-11.19 0.46,-5.16 4.14,-4.91 3.54,-10.4 -5.77,-0.55 -8.84,1.79 -16.45,0.63 -5.15,-0.79 -9.92,-2.53 -14.94,-3.39 -1.58,-18.66 -7.17,-16.26 -6.27,-25.64 0.76,-7.98 -3.03,-2.9 -8.54,-2.17 -3.15,0.41 -8.48,0.24 -11.85,0.28 -37,0.4 -68.4,0.11 -103.74,13.86 -6.57,2.55 -9.93,4.67 -17.56,5.92 -6.78,1.11 -14.69,2.07 -13.82,9.29l5.82 1.07z"/>
    <path class="fil0 str0" d="M220.81 235.75c3.17,-0.54 14.32,-6.79 19.01,-8.68 29.15,-11.74 38.46,-11.93 66.38,-15.33 1.06,-0.13 0.57,0.05 1.57,-0.21 1.6,-0.42 0.96,-0.33 1.8,-0.93 -14.68,-0.56 -35.86,3.52 -48.94,7.57 -7.31,2.26 -14.58,4.69 -21.15,7.62l-17.36 8.76c-2.24,1.65 -0.51,0.41 -1.32,1.21z"/>
    <path class="fil0 str0" d="M215.27 211.43c1.13,0.55 17.36,-3.78 22.09,-4.23 9.99,-0.96 17.98,-0.06 27.78,-0.08 -0.98,-0.83 -0.19,-1.31 -5.17,-1.76 -18.55,-1.65 -27.16,0.78 -44.7,6.07z"/>
    <path class="fil0 str0" d="M202.82 248.59c3.48,-0.47 6.56,-3.43 7.96,-6.46 -3.67,2.23 -5,4.12 -7.96,6.46z"/>
    <path class="fil0 str0" d="M216.43 238.42c1.45,-0.34 1.05,0.08 2.52,-0.84 3.54,-2.22 0.53,-0.29 1.86,-1.82 -1.89,0.42 -0.93,-0.22 -2.69,0.91 -2.39,1.53 -1.3,1.29 -1.69,1.76z"/>
    <path class="fil0 str0" d="M213.77 240.12c-3.22,0.98 -1.93,0.95 -2.83,2.23 2.61,-1.17 0.14,0.38 1.46,-0.73 1.16,-0.98 0.85,-0.81 1.38,-1.5z"/>
    <path class="fil0 str0" d="M213.77 240.12c2.51,-0.59 -0.46,0.86 1.31,-0.38 1.4,-0.99 0.75,-0.55 1.35,-1.32 -2.5,0.58 0.42,-0.88 -1.38,0.4 -1.34,0.95 -0.72,0.52 -1.28,1.31z"/>
   </g>
   <g>
    <path class="fil0" d="M48.33 160.11c3.17,-0.36 6.19,2 11.82,1.45 5.81,-0.57 5.02,-2.33 12.09,-1.45 7.68,0.95 16.45,2.5 22.55,5.59 6.61,3.35 9.05,8.41 10.83,17.33 2.61,13.01 3.31,37.35 4.2,51.68 0.39,6.26 -0.08,21.4 3.29,24.95 1.33,1.4 6.66,6.26 0.31,7.63 -4.58,0.99 -34.11,1.65 -40.04,1.85 -7.32,0.25 -61.14,-0.29 -67.62,-2.06 -6.37,-1.75 0.73,-6.97 1.33,-7.94 2.26,-3.64 2.28,-19.52 2.58,-25.07 0.89,-16.37 1.1,-36.7 4.4,-52.04 1.89,-8.8 4.71,-13.29 11.55,-16.64 6.3,-3.08 14.97,-4.42 22.72,-5.28zm-4.31 -14.31c2.15,-1 4.1,0.06 6.42,0.68 3.69,1 2.48,-0.61 3.69,-2.96 0.69,-1.34 3.47,-3.01 5.51,-1.62 1.73,1.18 0.74,3.66 1.45,5.37 3.38,0.99 6.66,-2.22 8.63,-3.53 3.6,-2.39 6.45,0.24 7.59,2.93 -16.01,5.24 -10.02,6.7 -9.04,9.39 -1.3,0.92 -3.33,1.86 -5.57,2.17 0.21,-2.3 1.55,-6.13 0.44,-7.87 -3.99,-2.87 -2.4,6.5 -4.29,8.46 -2.07,-1.6 -4.09,-13.66 -7.01,-10.75 -1.08,2.28 2.19,7.44 2.79,10.15 -3.45,-0.65 -5.54,-3.06 -7.35,-4.83 -1.67,-1.64 -4.69,-4.51 -3.28,-7.6zm6.76 -2.65c-1.8,-0.16 -10.05,-3.18 -10.46,3.82 -0.34,5.85 4.71,7.27 6.17,10.25 -1.8,0.75 -8.91,1.48 -11.57,2.1 -11.37,2.65 -19.15,6.22 -22.78,18.24 -4.69,15.55 -5.14,55.2 -6.56,75.3 -0.18,2.53 -0.2,3.75 -1.6,5.33 -0.89,1 -2.74,2.38 -3.3,3.53 -2.17,4.43 1.1,7.52 4.59,8.37 5.62,1.37 19.69,1.11 26.26,1.35 23.82,0.85 30.44,1.07 54.51,0.09 8.48,-0.34 18.82,-0.12 26.95,-1.25 3.81,-0.53 7.08,-2.62 6.33,-7.04 -0.74,-4.32 -4.69,-3.42 -5.28,-8.7 -0.94,-8.38 -1.06,-18.3 -1.53,-26.88 -0.82,-15.04 -1.09,-37.3 -5.25,-50.53 -2.45,-7.77 -6.09,-11.68 -13.07,-14.7 -6.2,-2.68 -15.68,-4.5 -23.11,-5.17 0.39,-2.92 0.22,-2.3 -0.83,-4.41 2.45,-0.77 5.33,-2.24 7.83,-3.27 4.07,-1.69 3,-3.33 0.92,-6.1 -6.38,-8.5 -12.39,-0.82 -15.04,0.15 -1.46,-2.74 -2.15,-5.43 -6.4,-5.34 -3.31,0.07 -5.98,2.42 -6.79,4.88z"/>
    <path class="fil0" d="M88.04 180.12c-4.54,-1.08 -0.75,3.53 -6.96,-2.43 -4.76,-4.57 -10.93,-15.41 -12.14,-15.73 -7.19,-1.91 9.39,18.61 13.61,21.11 2.82,1.67 6.2,0.89 5.49,-2.94z"/>
    <path class="fil0" d="M33.77 180.65c-1.5,-0.28 -3.14,-2.03 -3.77,0.18 -0.44,1.57 2.38,6.08 9.31,-1.31 1.52,-1.62 11.13,-13.55 11.61,-16.13 0.27,-1.43 -1.12,-2.42 -2.47,-1.24l-9.22 13.02c-2.3,2.68 -2.72,3.11 -5.46,5.48z"/>
    <path class="fil0" d="M57.98 185.67l-1.24 0.65c-0.6,0.31 -0.72,-0.27 -1.25,0.99 -1.08,2.57 4.68,4.27 6.37,-2.29 1.13,-4.4 0.65,-11.41 0.16,-16.1 -0.21,-2.01 -0.19,-5.9 -2.58,-5.17 -3.08,0.94 2.38,16.95 -1.46,21.92z"/>
   </g>
  </g>
 </g>
</svg>
