<?xml version="1.0" encoding="UTF-8"?>
<!DOCTYPE svg PUBLIC "-//W3C//DTD SVG 1.1//EN" "http://www.w3.org/Graphics/SVG/1.1/DTD/svg11.dtd">
<!-- Creator: CorelDRAW 2017 -->
<svg xmlns="http://www.w3.org/2000/svg" xml:space="preserve" width="51.0917mm" height="58.9489mm" version="1.1" style="shape-rendering:geometricPrecision; text-rendering:geometricPrecision; image-rendering:optimizeQuality; fill-rule:evenodd; clip-rule:evenodd"
viewBox="0 0 213.41 246.23"
 xmlns:xlink="http://www.w3.org/1999/xlink">
 <defs>
  <style type="text/css">
   <![CDATA[
    .str0 {stroke:white;stroke-width:2.21;stroke-linejoin:round;stroke-miterlimit:22.9256}
    .fil0 {fill:none}
    .fil1 {fill:#FEFEFE}
   ]]>
  </style>
 </defs>
 <g id="projekty">
  <metadata id="CorelCorpID_0Corel-Layer"/>
  <g id="_2882709923792">
   <g>
    <g>
     <path class="fil0 str0" d="M56.87 237.59l0 -7.86 -0 -2.62 0 -7.86 -0.01 -2.1 0.01 -11.52 0 -6.81 -0 -139.84 0 -6.81 -0.01 -46.75 46.87 0 6.81 0 97.49 -0 0 0.66 -0 31.95 0 6.81 0.01 63.89 -0.01 2.1 0 7.86 -0 2.62 0 7.86 0 2.1 -0.01 74.37 0 6.81 0 28.39 -28.36 -0.01 -6.81 -0 -74.37 0.01 -2.1 -0 -7.86 -0 -2.62 0 -7.86 -0 -2.62 0 -7.86 -0 -2.62 0 -6.29 -0.03c-3.4,-0.55 2.46,0.73 -0.94,-0.23l-0.88 -0.36 -0 -2.62zm-51.5 -17.2c0.99,-0.23 26.52,-0.75 30.27,-0.16l1.32 0.38c0.8,0.26 1.92,5.7 -0.91,6.37l-14.54 0.14c-4.42,0.01 -12.27,0.78 -15.95,-0.28 -0.66,-1.69 -0.56,-4.25 -0.2,-6.45zm29.23 -43.54c-4.59,-0 -23.85,0.34 -29.09,-0.17l-0.19 -6.55c4.46,-0.68 25.21,-0.19 29.81,-0.19 2.74,-0 2.61,-0.16 2.59,3.75 -0.04,3.09 -0,3.13 -3.11,3.16zm-0.52 -50.27l-28.6 -0.15c-0.57,-2.12 -0.5,-4.46 -0.06,-6.53 10.32,-0.59 18.35,-0.19 28.71,-0.26 3.71,-0.02 3.58,-0.54 3.58,4.3 -0,3.16 -0.7,2.64 -3.63,2.64zm1.05 -50.26c-6.75,-0.01 -24.07,0.39 -29.7,-0.12 -0.51,-3.59 -0.32,-2.63 -0.09,-6.54 6.27,-0.63 22.16,-0.21 29.79,-0.21 3.02,-0 2.59,0.38 2.59,4.22 0,2.55 -0.03,2.66 -2.59,2.66zm0 -50.26l-29.72 -0.05 -0.02 -6.62c5.24,-0.81 23.85,-0.23 29.74,-0.23 2.9,-0 2.59,0.43 2.59,4.21 0,2.58 0.02,2.68 -2.59,2.68zm16.76 -20.6c1.2,1.11 0.76,-1.1 1.07,2.7 0.07,0.81 -0.07,2.74 -0.07,3.7l0 228.93 -8.85 0.06 -7.86 -0 -2.1 0 -12.68 -0 0.01 -9.57c4.58,-0.01 9.27,0.1 13.83,0.01 5.49,-0.11 6.59,-2.41 6.61,-7.83l-0 -1.58c-0.37,-3.65 -0.81,-2.78 -2.3,-5.23 -3.17,-0.78 -10.03,-0.63 -13.86,-0.56 -4.74,0.09 -3.53,-0.1 -4.24,-1.02l-0.04 -2.1 0 -2.62 -0 -7.86 -0 -2.1 0 -19.4 0.63 -0c4.31,0 10.56,0.37 14.64,-0.04 5.41,-0.54 5.17,-4.43 5.17,-9.89l-0.47 -2.62c-1.55,-1.36 -1.52,-2.03 -4.15,-2.57l-1.58 -0.05 -8.9 -0 -2.1 0 -3.24 -0 -0 -5.24 0 -2.62 -0 -7.86 -0 -2.1 -0 -17.31 17.07 -0.18c0.11,-0.09 1.32,-0.83 1.84,-1.39 0.97,-1.04 0.72,-1.42 1.81,-2.54l0 -6.96c-1.14,-1.2 -0.74,-0.84 -1.17,-2.37 -2.97,-1.1 -0.93,-1.67 -5.82,-1.72l-2.1 0 -7.86 -0 -2.62 0 -1.15 -0 -0 -7.33 -0 -2.1 0 -25.67c2.55,0 15.19,0.31 17.09,-0.32 1.84,-0.61 1.86,-1.52 2.86,-2.3l0.49 -2.62c-0,-2.44 -0.29,-5.15 -0.25,-7.23 -0.55,-0.46 -0.47,-0.24 -0.96,-0.89 -0.71,-0.95 -0.14,-0.18 -0.61,-1.08 -1.82,-0.27 -4.35,-0.73 -7,-0.73l-2.1 0 -7.86 -0 -1.68 0.01 0 -1.59 -0 -7.86 -0 -2.1 0 -23.57c4.23,0 8.46,-0.01 12.69,0.02 5.29,0.03 7.29,-0.64 7.75,-5.77l0.01 -1.58c-0.02,-5.59 -1.03,-7.78 -6.69,-7.85 -4.56,-0.06 -9.19,0.02 -13.75,0.02l-0 -9.6 30.49 0.04zm-34.48 128.95l0 6.81 0 24.62c-9.85,-0.07 -16.39,-2.4 -16.3,7.86 0.03,3.99 0.7,6.43 4.34,7.08 2.68,0.48 8.9,0.13 11.96,0.13l-0.01 35.17c-8.71,0.02 -16.29,-2.55 -16.3,7.36 -0.01,9.69 4.67,7.72 16.31,7.72 0,3.4 -0.68,10.42 0.54,13.13 3.42,1.49 85.55,0.54 96.79,0.53 11.05,-0.01 93.62,0.88 96.76,-0.55 0.9,-0.91 1.22,-239.29 0.05,-242.31 -2.74,-1.05 -190.34,-1.21 -193.66,-0.02 -0.85,2.6 -0.48,9.69 -0.48,13.16 -11.16,0 -16.23,-1.99 -16.31,7.21 -0.08,10.44 7.23,7.87 16.31,7.86l-0 35.17c-3.3,0 -8.46,-0.31 -11.55,0.07 -4.07,0.5 -4.72,2.85 -4.75,7.23 -0.06,9.61 3.94,7.79 16.3,7.78l0 35.13c-8.49,-0 -16.23,-2.54 -16.3,7.32 -0.03,4.2 0.45,6.99 4.32,7.64 2.69,0.45 8.92,0.11 11.98,0.11l-0.01 3.77z"/>
     <path id="1" class="fil1" d="M56.87 237.59l0 -7.86 -0 -2.62 0 -7.86 -0.01 -2.1 0.01 -11.52 0 -6.81 -0 -139.84 0 -6.81 -0.01 -46.75 46.87 0 6.81 0 97.49 -0 0 0.66 -0 31.95 0 6.81 0.01 63.89 -0.01 2.1 0 7.86 -0 2.62 0 7.86 0 2.1 -0.01 74.37 0 6.81 0 28.39 -28.36 -0.01 -6.81 -0 -74.37 0.01 -2.1 -0 -7.86 -0 -2.62 0 -7.86 -0 -2.62 0 -7.86 -0 -2.62 0 -6.29 -0.03c-3.4,-0.55 2.46,0.73 -0.94,-0.23l-0.88 -0.36 -0 -2.62zm-51.5 -17.2c0.99,-0.23 26.52,-0.75 30.27,-0.16l1.32 0.38c0.8,0.26 1.92,5.7 -0.91,6.37l-14.54 0.14c-4.42,0.01 -12.27,0.78 -15.95,-0.28 -0.66,-1.69 -0.56,-4.25 -0.2,-6.45zm29.23 -43.54c-4.59,-0 -23.85,0.34 -29.09,-0.17l-0.19 -6.55c4.46,-0.68 25.21,-0.19 29.81,-0.19 2.74,-0 2.61,-0.16 2.59,3.75 -0.04,3.09 -0,3.13 -3.11,3.16zm-0.52 -50.27l-28.6 -0.15c-0.57,-2.12 -0.5,-4.46 -0.06,-6.53 10.32,-0.59 18.35,-0.19 28.71,-0.26 3.71,-0.02 3.58,-0.54 3.58,4.3 -0,3.16 -0.7,2.64 -3.63,2.64zm1.05 -50.26c-6.75,-0.01 -24.07,0.39 -29.7,-0.12 -0.51,-3.59 -0.32,-2.63 -0.09,-6.54 6.27,-0.63 22.16,-0.21 29.79,-0.21 3.02,-0 2.59,0.38 2.59,4.22 0,2.55 -0.03,2.66 -2.59,2.66zm0 -50.26l-29.72 -0.05 -0.02 -6.62c5.24,-0.81 23.85,-0.23 29.74,-0.23 2.9,-0 2.59,0.43 2.59,4.21 0,2.58 0.02,2.68 -2.59,2.68zm16.76 -20.6c1.2,1.11 0.76,-1.1 1.07,2.7 0.07,0.81 -0.07,2.74 -0.07,3.7l0 228.93 -8.85 0.06 -7.86 -0 -2.1 0 -12.68 -0 0.01 -9.57c4.58,-0.01 9.27,0.1 13.83,0.01 5.49,-0.11 6.59,-2.41 6.61,-7.83l-0 -1.58c-0.37,-3.65 -0.81,-2.78 -2.3,-5.23 -3.17,-0.78 -10.03,-0.63 -13.86,-0.56 -4.74,0.09 -3.53,-0.1 -4.24,-1.02l-0.04 -2.1 0 -2.62 -0 -7.86 -0 -2.1 0 -19.4 0.63 -0c4.31,0 10.56,0.37 14.64,-0.04 5.41,-0.54 5.17,-4.43 5.17,-9.89l-0.47 -2.62c-1.55,-1.36 -1.52,-2.03 -4.15,-2.57l-1.58 -0.05 -8.9 -0 -2.1 0 -3.24 -0 -0 -5.24 0 -2.62 -0 -7.86 -0 -2.1 -0 -17.31 17.07 -0.18c0.11,-0.09 1.32,-0.83 1.84,-1.39 0.97,-1.04 0.72,-1.42 1.81,-2.54l0 -6.96c-1.14,-1.2 -0.74,-0.84 -1.17,-2.37 -2.97,-1.1 -0.93,-1.67 -5.82,-1.72l-2.1 0 -7.86 -0 -2.62 0 -1.15 -0 -0 -7.33 -0 -2.1 0 -25.67c2.55,0 15.19,0.31 17.09,-0.32 1.84,-0.61 1.86,-1.52 2.86,-2.3l0.49 -2.62c-0,-2.44 -0.29,-5.15 -0.25,-7.23 -0.55,-0.46 -0.47,-0.24 -0.96,-0.89 -0.71,-0.95 -0.14,-0.18 -0.61,-1.08 -1.82,-0.27 -4.35,-0.73 -7,-0.73l-2.1 0 -7.86 -0 -1.68 0.01 0 -1.59 -0 -7.86 -0 -2.1 0 -23.57c4.23,0 8.46,-0.01 12.69,0.02 5.29,0.03 7.29,-0.64 7.75,-5.77l0.01 -1.58c-0.02,-5.59 -1.03,-7.78 -6.69,-7.85 -4.56,-0.06 -9.19,0.02 -13.75,0.02l-0 -9.6 30.49 0.04zm-34.48 128.95l0 6.81 0 24.62c-9.85,-0.07 -16.39,-2.4 -16.3,7.86 0.03,3.99 0.7,6.43 4.34,7.08 2.68,0.48 8.9,0.13 11.96,0.13l-0.01 35.17c-8.71,0.02 -16.29,-2.55 -16.3,7.36 -0.01,9.69 4.67,7.72 16.31,7.72 0,3.4 -0.68,10.42 0.54,13.13 3.42,1.49 85.55,0.54 96.79,0.53 11.05,-0.01 93.62,0.88 96.76,-0.55 0.9,-0.91 1.22,-239.29 0.05,-242.31 -2.74,-1.05 -190.34,-1.21 -193.66,-0.02 -0.85,2.6 -0.48,9.69 -0.48,13.16 -11.16,0 -16.23,-1.99 -16.31,7.21 -0.08,10.44 7.23,7.87 16.31,7.86l-0 35.17c-3.3,0 -8.46,-0.31 -11.55,0.07 -4.07,0.5 -4.72,2.85 -4.75,7.23 -0.06,9.61 3.94,7.79 16.3,7.78l0 35.13c-8.49,-0 -16.23,-2.54 -16.3,7.32 -0.03,4.2 0.45,6.99 4.32,7.64 2.69,0.45 8.92,0.11 11.98,0.11l-0.01 3.77z"/>
    </g>
    <g>
     <path class="fil0 str0" d="M102.42 144.19c-0.24,-6.67 6.45,-12.48 11.17,-14.6 5.57,-2.5 17.74,-1.61 24.71,-1.61l6.81 0.1c3.01,0.32 5.05,0.8 7.44,2.03 1.01,0.52 1.75,1.03 2.57,1.65 0.09,0.07 0.21,0.16 0.3,0.23 0.09,0.07 0.21,0.16 0.3,0.23l0.58 0.45c3.19,2.55 6.68,7.7 6.45,13.07 0.58,0.48 0.14,-0.54 0.46,0.78l0.12 9.87c0,3.2 0.26,7.69 -0.16,10.72 -3.87,0.96 -55.01,0.72 -61.41,0.18 -0.52,-2.54 -0.78,-22.67 0.68,-23.11zm-3.4 26.95c11.31,0.17 22.72,0.02 34.04,0.03 6.17,0.01 29.83,0.7 33.71,-0.41 0.92,-3.7 0.43,-19.22 0.34,-24.3 -0.82,-9.08 -5.48,-16.84 -14.06,-20.51 -6.48,-2.77 -24.1,-2.44 -33.06,-1.92 -10.16,0.59 -17.5,7.26 -20.46,14.57 -2.18,5.39 -1.79,10.1 -1.79,16.23 0,4.64 -1.34,13.24 1.27,16.31z"/>
     <path id="1" class="fil1" d="M102.42 144.19c-0.24,-6.67 6.45,-12.48 11.17,-14.6 5.57,-2.5 17.74,-1.61 24.71,-1.61l6.81 0.1c3.01,0.32 5.05,0.8 7.44,2.03 1.01,0.52 1.75,1.03 2.57,1.65 0.09,0.07 0.21,0.16 0.3,0.23 0.09,0.07 0.21,0.16 0.3,0.23l0.58 0.45c3.19,2.55 6.68,7.7 6.45,13.07 0.58,0.48 0.14,-0.54 0.46,0.78l0.12 9.87c0,3.2 0.26,7.69 -0.16,10.72 -3.87,0.96 -55.01,0.72 -61.41,0.18 -0.52,-2.54 -0.78,-22.67 0.68,-23.11zm-3.4 26.95c11.31,0.17 22.72,0.02 34.04,0.03 6.17,0.01 29.83,0.7 33.71,-0.41 0.92,-3.7 0.43,-19.22 0.34,-24.3 -0.82,-9.08 -5.48,-16.84 -14.06,-20.51 -6.48,-2.77 -24.1,-2.44 -33.06,-1.92 -10.16,0.59 -17.5,7.26 -20.46,14.57 -2.18,5.39 -1.79,10.1 -1.79,16.23 0,4.64 -1.34,13.24 1.27,16.31z"/>
    </g>
    <g>
     <path class="fil0 str0" d="M129.73 79.35c9.68,-1.7 17.33,5.15 18.83,12.85 1.97,10.07 -4.86,17.69 -12.64,19.35 -21.33,4.55 -28.49,-28.28 -6.19,-32.2zm23.42 18.51l-0.01 -4.9c-2.28,-3.29 -0,-5.58 -6.95,-12.51 -11.7,-11.66 -34.3,-3.46 -34.15,15.2 0.17,21.85 29.36,27.41 38.4,9.51 1.04,-2.06 1.64,-5.78 2.71,-7.3z"/>
     <path id="1" class="fil1" d="M129.73 79.35c9.68,-1.7 17.33,5.15 18.83,12.85 1.97,10.07 -4.86,17.69 -12.64,19.35 -21.33,4.55 -28.49,-28.28 -6.19,-32.2zm23.42 18.51l-0.01 -4.9c-2.28,-3.29 -0,-5.58 -6.95,-12.51 -11.7,-11.66 -34.3,-3.46 -34.15,15.2 0.17,21.85 29.36,27.41 38.4,9.51 1.04,-2.06 1.64,-5.78 2.71,-7.3z"/>
    </g>
   </g>
   <g>
    <path class="fil0 str0" d="M162.75 145.75l0.01 21.14 -55.88 -0.02 -4.96 0.02 0.02 -2.63c-0.01,-6.91 -0.2,-13.37 0.49,-20.07 -1.46,0.44 -1.19,20.57 -0.68,23.11 6.41,0.54 57.54,0.79 61.41,-0.18 0.43,-3.02 0.16,-7.52 0.16,-10.72l-0.12 -9.87c-0.32,-1.32 0.12,-0.3 -0.46,-0.78z"/>
    <path id="1" class="fil1" d="M162.75 145.75l0.01 21.14 -55.88 -0.02 -4.96 0.02 0.02 -2.63c-0.01,-6.91 -0.2,-13.37 0.49,-20.07 -1.46,0.44 -1.19,20.57 -0.68,23.11 6.41,0.54 57.54,0.79 61.41,-0.18 0.43,-3.02 0.16,-7.52 0.16,-10.72l-0.12 -9.87c-0.32,-1.32 0.12,-0.3 -0.46,-0.78z"/>
   </g>
  </g>
 </g>
</svg>
