<?xml version="1.0" encoding="UTF-8"?>
<!DOCTYPE svg PUBLIC "-//W3C//DTD SVG 1.1//EN" "http://www.w3.org/Graphics/SVG/1.1/DTD/svg11.dtd">
<!-- Creator: CorelDRAW 2017 -->
<svg xmlns="http://www.w3.org/2000/svg" xml:space="preserve" width="61.1882mm" height="62.0468mm" version="1.1" style="shape-rendering:geometricPrecision; text-rendering:geometricPrecision; image-rendering:optimizeQuality; fill-rule:evenodd; clip-rule:evenodd"
viewBox="0 0 301.6 305.83"
 xmlns:xlink="http://www.w3.org/1999/xlink">
 <defs>
  <style type="text/css">
   <![CDATA[
    .fil0 {fill:#FEFEFE}
   ]]>
  </style>
 </defs>
 <g id="projekty">
  <metadata id="CorelCorpID_0Corel-Layer"/>
  <g id="_2882685680816">
   <g>
    <path class="fil0" d="M12.68 72.27c-0.86,1.98 -0.46,1.31 -2.02,2.9 -1.47,1.49 -1.02,1.23 -2.79,2.1 -0.44,2.24 -4.3,3.41 -6.81,10.92 -2.27,6.78 -0.99,16.43 4.7,21.72l13.6 14.25c13.16,13.1 24.79,24.4 37.1,36.78 6.58,6.63 29.61,32.41 38.78,35.1 11.71,3.45 18.5,-1.85 26.09,-8.93 6.03,-5.63 13.4,-12.22 18.71,-18.44l-0.92 -3c-1.3,-2.87 -1.81,-1.3 -2.67,-3.7l-0.49 -2.78c-1.95,0.9 -1.32,0.5 -2.92,2.1l-12.29 12.31c-1.93,1.82 -3.12,3.59 -4.99,5.35 -4.23,3.99 -7.59,7.59 -12.06,8.11 -9.68,1.11 -16.78,-9.59 -23.64,-16.03 -16.62,-15.58 -33.89,-33.66 -49.86,-49.93l-7.63 -7.27c-2.54,-2.4 -10.56,-10.69 -11.79,-13.45 -4.22,-9.49 5.66,-17.57 13.45,-25.27 6.46,-6.37 14.83,-14.31 20.15,-19.86 3.04,2.46 7.27,7.14 10.32,10.24l31.74 31.74c7.08,7.26 13.99,13.8 21.05,21.06l21.56 21.44c1.98,0.98 0.52,0.49 3.43,0.88 -2.64,-9.03 -0.75,5.43 -0.58,-5.77 0.04,-2.53 -5.13,-1.27 -6.55,-1.68 0.21,-4.64 1.31,1.68 1.62,-3.56 -2.32,-2.24 -4.14,-0.82 -6.81,-1.62 0.2,-4.32 -1.01,2.5 1.25,-2.24 0.41,-0.85 0.85,-3.81 1.99,-1.98 3.4,-1.89 0.61,0.79 1.74,-2.18 -19.96,-20.92 -47.41,-47.54 -68.69,-68.21 -13.28,-12.9 -10.2,-14.58 -29.9,5.29 -2.4,2.42 -4.34,4.44 -6.74,6.89 -1.57,1.6 -5.59,6.12 -7.15,6.72z"/>
    <path class="fil0" d="M263.99 121.55c3.78,-2.64 4.57,-3.45 8.37,0.1 0.34,3.77 0.07,7.1 -4.44,6.88 -3.89,-0.18 -4.52,-3.08 -3.93,-6.99zm1.06 -11.4c-19.16,4.25 -11.24,33.14 7.09,27.59 17.33,-5.25 10.83,-31.56 -7.09,-27.59z"/>
   </g>
   <path class="fil0" d="M153.94 157.57l137.9 -0.06c0.67,16.58 0.06,34.44 0.06,51.14 0,17.28 0.01,34.56 -0.03,51.83 -0.01,5.56 0.39,20.85 -0.61,25.27 -0.61,2.71 -3.85,6.21 -5.51,7.48 -2.99,2.28 -6.17,1.81 -10.72,1.93 -31.43,0.78 -72.26,0.81 -103.67,0.02 -5.19,-0.13 -14.71,-0.14 -16.76,-8.92 -1.25,-5.37 -1.25,-119.05 -0.67,-128.7zm28.56 -38.13l56.87 -0.09 0.12 28.33 -56.92 -0.02 -0.07 -28.22zm-57.33 2.15c-1.13,2.98 1.66,0.29 -1.74,2.18 -1.15,-1.83 -1.58,1.12 -1.99,1.98 -2.27,4.74 -1.06,-2.08 -1.25,2.24 2.67,0.8 4.49,-0.62 6.81,1.62 -0.31,5.25 -1.41,-1.08 -1.62,3.56 1.42,0.4 6.59,-0.85 6.55,1.68 -0.17,11.2 -2.07,-3.26 0.58,5.77 -2.91,-0.39 -1.45,0.1 -3.43,-0.88l12.53 12.54c-1.3,2.89 -5.01,4.45 -5.63,6.91l0.49 2.78c0.86,2.4 1.37,0.83 2.67,3.7l0.92 3 3.94 -3.78c0.89,5.77 0.27,66.55 0.32,78.09 0.05,12.95 0.18,25.93 0.14,38.88 -0.02,6.84 1.06,10.53 4.64,14.51 2.73,3.03 7.21,6.98 12.18,7.93l123.22 0c5.25,-0.97 10.49,-5.64 12.64,-8.78 4.74,-6.94 4.29,-7.57 4.28,-16.9 -0,-17.41 0.68,-127.2 -0.46,-128.86 -4.26,-4.21 -42.26,-1.47 -51.64,-2.21 -0.26,-5.73 0.35,-33.16 -0.84,-36.02 -4.13,-3.38 -27.77,-1.92 -34.99,-1.92 -12.42,0 -25.5,0.39 -37.83,-0.06 -3.99,5.83 -2.88,0.18 -2.88,17.47 0,6.83 0.15,13.84 -0.08,20.66l-21.74 0.01c-1.7,-2.86 -9.85,-10.13 -12.6,-12.92 -4.47,-4.52 -8.72,-8.89 -13.18,-13.17z"/>
   <path class="fil0" d="M212.56 19.87c1.52,0.91 1.49,0.93 2.83,3.52l5.87 13.56c3.7,10.94 8.43,32.64 3.15,43.31 -10.69,21.62 -37.84,6.64 -26.46,-23.85 2.36,-6.31 5.74,-10.86 8.87,-16.4 4.28,-7.56 4.33,-11.14 5.73,-20.15zm-27.23 51.42c0.07,26.39 29.25,38.95 44.1,19.18 5.07,-6.75 7.04,-12.38 7.02,-23.07l-0 -0.65c-0.03,-13.52 -3.69,-28.12 -8.34,-39.24 -3.58,-8.57 -13.53,-25.75 -20.7,-27.32 -11,-2.4 1.07,17.48 -9.33,35.62 -6.04,10.53 -12.79,19.8 -12.75,35.48z"/>
   <polygon class="fil0" points="161.26,305.83 284.48,305.83 284.48,304.3 161.26,304.3 "/>
  </g>
 </g>
</svg>
