<?xml version="1.0" encoding="UTF-8"?>
<!DOCTYPE svg PUBLIC "-//W3C//DTD SVG 1.1//EN" "http://www.w3.org/Graphics/SVG/1.1/DTD/svg11.dtd">
<!-- Creator: CorelDRAW 2017 -->
<svg xmlns="http://www.w3.org/2000/svg" xml:space="preserve" width="91.1928mm" height="41.6355mm" version="1.1" style="shape-rendering:geometricPrecision; text-rendering:geometricPrecision; image-rendering:optimizeQuality; fill-rule:evenodd; clip-rule:evenodd"
viewBox="0 0 1460.73 666.92"
 xmlns:xlink="http://www.w3.org/1999/xlink">
 <defs>
  <style type="text/css">
   <![CDATA[
    .str0 {stroke:white;stroke-width:8.83;stroke-linejoin:round;stroke-miterlimit:22.9256}
    .fil0 {fill:none}
    .fil1 {fill:#FEFEFE}
   ]]>
  </style>
 </defs>
 <g id="Warstwa_x0020_1">
  <metadata id="CorelCorpID_0Corel-Layer"/>
  <g id="_2254593237920">
   <g>
    <path class="fil0 str0" d="M1245.44 590.59c-8.88,22.02 -60.02,41.18 -91.32,45.55 -10.93,5.39 -71,11.95 -89.5,13.08 -16.57,1.02 -32.8,1.76 -49.92,1.87 -15.81,0.11 -37.66,-1.87 -52.16,-0.77 -5.56,0.06 -10.02,-0.48 -15.52,-0.77l-8.29 -0.54c-3.43,-0.82 -3.83,-1.39 -4.51,-1.7l-32.1 -3.01c-3.46,-0.25 -5.76,-0.6 -9.22,-1.14 -1.53,-0.25 -2.55,-0.23 -4.06,-0.65 -5.62,-1.65 -3.09,-1.14 -4.82,-2.5 -12.32,-0.06 -61.01,-13.56 -67,-18.13 -10.27,-2.84 -24.46,-8.51 -29.17,-16.12l-1.22 -0.51c-5.73,-2.04 -2.58,0 -7.38,-4.85 -0.37,-0.37 -2.33,-2.47 -2.35,-2.47 -2.35,-3.06 -1.14,-0.99 -2.81,-4.91 -9.34,-7.94 -4.63,-43.36 -4.63,-58.86 -0.17,-153.98 1.19,-310.11 0,-463.48 15.92,4.57 16.32,9.14 50.71,16.6 19.41,4.2 38.57,6.92 58.86,9.22 78.66,8.91 180.08,9 258.8,0.14 20.09,-2.27 39.67,-4.94 58.86,-9.14 34.82,-7.66 34.05,-11.49 51.82,-16.46l0.03 392.2c-0.03,16.97 3.63,122.7 -3.09,127.36l0 -0.03zm163.99 -244.53c-0.34,2.84 0.2,2.27 -0.57,5.02 -2.53,9.22 0.11,1.05 -2.38,4.99 -9.82,45.15 -53.58,85.73 -96.11,96.65 -19.07,4.88 -40.98,1.96 -48.72,-12.29 -3.92,-7.21 -1.79,-161.75 -1.79,-191.57 0,-16.2 -5.11,-51.76 6.47,-58.66 2.95,-7.92 15.07,-19.27 24.66,-22.56 9.9,-10.1 36.72,-6.67 51.16,-1.28 12.85,4.77 33.71,18.16 36.46,27.1 3.15,2.07 1.22,0.25 4.12,3.38 0.74,0.79 2.04,2.67 2.75,3.69 2.75,4.03 3.46,5.48 5.31,10.44 8.03,7.52 16.43,44.87 18.67,60.39 4.12,28.38 3.24,46.62 0,74.74l-0.03 -0.06zm-35.24 -195.46c11.58,5.11 35.98,28.69 41.77,41.83 4.23,2.47 11.66,18.64 13.2,25.14 15.07,18.56 19.61,105.02 11.01,132.83 -1.9,14.3 -7.94,32.27 -13.08,44.72 -2.89,7.07 -5.65,12.68 -9.36,19.75l-7.66 13.34c-0.17,0.25 -0.45,0.65 -0.65,0.88 -0.17,0.23 -0.48,0.6 -0.65,0.79 -3.04,3.55 -0.62,0.94 -2.04,1.93 -4.45,11.01 -23.78,31.64 -33.17,36.75 -3.58,8.51 -74.72,55.19 -113.14,25.26l-0.54 -36.75c19.3,7.12 21.45,12.51 53.04,6.84 57.63,-19.35 62.46,-40.18 78.23,-50.46 1.16,-6.81 1.67,-3.35 8.31,-13.65 7.21,-11.18 18.42,-34.85 19.44,-47.53 0.45,-3.01 0.68,-6.07 1.25,-8.8 0.06,-0.31 1.11,-4.17 1.16,-4.23 1.67,-3.63 0.25,-1.02 2.72,-3.77 -1.22,-3.01 -0.82,-43.08 -1.67,-51.3 -1.73,-16.88 -4.17,-30.36 -8.26,-46.62 -1.36,-2.3 -0.14,2.18 -2.02,-3.92 -0.82,-2.64 -0.48,-2.3 -0.94,-4.88 -1.39,-5.9 -4.45,-12.37 -7.04,-17.91 -1.45,-3.12 -2.84,-5.79 -4.37,-8.48 -3.06,-5.39 -3.06,-3.72 -3.77,-8.63l-29.82 -29.4c-7.63,-1.14 -55.53,-34.51 -95.91,3.06 -3.89,3.63 -4.74,6.64 -10.16,8.74l-0.11 -41.35c15.21,-5.05 47.25,-6.58 64.87,-3.77 12.94,2.07 45.15,10.56 49.4,19.55l-0.03 0.03zm-603.73 -96.8c25.51,-50.88 454.46,-49.97 477.16,0 -25.94,50.46 -453.5,50.09 -477.16,0zm78.8 -39.73c-3.04,4.17 -14.42,4.23 -19.92,4.88l-8.97 0.88 -13.28 4.17 -6.22 0.51c-1.62,1.22 0.96,0.4 -4.6,2.72 -1.7,0.71 -3.69,1.08 -5.39,1.59 -9.71,0.85 -24.46,10.13 -28.66,15.86 -6.78,9.25 -4.06,27.04 -4.06,39.73l0 443.28c0,31.78 -4.91,61.98 10.73,78.21 8,8.31 14.36,12.88 26.19,18.93 7.61,3.89 22.19,11.01 30.48,12.32l8.6 3.09 49.21 11.55c3.09,0.28 6.7,0.4 9.31,0.85 0.57,0.11 3.83,0.85 4.23,0.99 5.82,2.18 0.62,-0.06 3.46,2.02 13.85,-0.62 42.31,4.14 58.94,5.34 36.12,2.58 86.41,1.79 122.65,-1.76 13.56,-1.33 45.06,-7.38 55.82,-6.64 5.82,-4.51 26.36,-6.64 34.99,-9 22.87,-6.27 59.28,-19.01 75.06,-35.87 2.58,-2.78 3.26,-3.83 4.97,-6.27 0.08,-0.11 1.93,-2.89 2.02,-2.98l3.69 -3.89c-0.43,-5.19 1.42,-13.22 1.45,-20.12l0.11 -65.89c8.51,1.14 15.61,5.51 27.07,6.1 27.07,1.39 54.43,-9.42 75.45,-22.82 83.15,-52.98 110.42,-166.29 84.05,-260.64 -1.93,-6.92 -7.41,-18.16 -7.44,-24.06l-6.55 -10.3c-8.17,-15.72 -16.66,-22.73 -21.99,-32.35 -2.7,-0.23 -1.85,0.65 -2.02,-2.24 -5.73,-2.55 -3.01,-1.25 -7.83,-6.13 -2.95,-3.01 -4.51,-3.86 -7.92,-6.61 -4.6,-3.72 -11.95,-8.2 -14.93,-12.83 -7.18,-0.74 -16.63,-7.26 -24.8,-10.13 -40.04,-13.93 -59.25,-6.27 -92.82,-4.03 -2.02,-17.48 3.09,-63.62 -3.29,-75.68 -6.19,-11.61 -35.24,-23.16 -53.32,-24.97l-13.85 -3.89 -18.96 -2.04c-4.43,-0.34 -8.57,-1.25 -13.14,-1.76 -1.93,-0.23 -4.06,-0.25 -5.99,-0.74 -8.31,-2.13 -1.42,0.25 -4.6,-2.38 -11.75,0.96 -25.28,-1.82 -36.92,-2.81 -57.63,-4.88 -133.37,-5.02 -190.58,-0.91 -19.13,1.39 -54.37,7.52 -70.35,6.73l-0.09 0z"/>
    <path id="_1" class="fil1" d="M1245.44 590.59c-8.88,22.02 -60.02,41.18 -91.32,45.55 -10.93,5.39 -71,11.95 -89.5,13.08 -16.57,1.02 -32.8,1.76 -49.92,1.87 -15.81,0.11 -37.66,-1.87 -52.16,-0.77 -5.56,0.06 -10.02,-0.48 -15.52,-0.77l-8.29 -0.54c-3.43,-0.82 -3.83,-1.39 -4.51,-1.7l-32.1 -3.01c-3.46,-0.25 -5.76,-0.6 -9.22,-1.14 -1.53,-0.25 -2.55,-0.23 -4.06,-0.65 -5.62,-1.65 -3.09,-1.14 -4.82,-2.5 -12.32,-0.06 -61.01,-13.56 -67,-18.13 -10.27,-2.84 -24.46,-8.51 -29.17,-16.12l-1.22 -0.51c-5.73,-2.04 -2.58,0 -7.38,-4.85 -0.37,-0.37 -2.33,-2.47 -2.35,-2.47 -2.35,-3.06 -1.14,-0.99 -2.81,-4.91 -9.34,-7.94 -4.63,-43.36 -4.63,-58.86 -0.17,-153.98 1.19,-310.11 0,-463.48 15.92,4.57 16.32,9.14 50.71,16.6 19.41,4.2 38.57,6.92 58.86,9.22 78.66,8.91 180.08,9 258.8,0.14 20.09,-2.27 39.67,-4.94 58.86,-9.14 34.82,-7.66 34.05,-11.49 51.82,-16.46l0.03 392.2c-0.03,16.97 3.63,122.7 -3.09,127.36l0 -0.03zm163.99 -244.53c-0.34,2.84 0.2,2.27 -0.57,5.02 -2.53,9.22 0.11,1.05 -2.38,4.99 -9.82,45.15 -53.58,85.73 -96.11,96.65 -19.07,4.88 -40.98,1.96 -48.72,-12.29 -3.92,-7.21 -1.79,-161.75 -1.79,-191.57 0,-16.2 -5.11,-51.76 6.47,-58.66 2.95,-7.92 15.07,-19.27 24.66,-22.56 9.9,-10.1 36.72,-6.67 51.16,-1.28 12.85,4.77 33.71,18.16 36.46,27.1 3.15,2.07 1.22,0.25 4.12,3.38 0.74,0.79 2.04,2.67 2.75,3.69 2.75,4.03 3.46,5.48 5.31,10.44 8.03,7.52 16.43,44.87 18.67,60.39 4.12,28.38 3.24,46.62 0,74.74l-0.03 -0.06zm-35.24 -195.46c11.58,5.11 35.98,28.69 41.77,41.83 4.23,2.47 11.66,18.64 13.2,25.14 15.07,18.56 19.61,105.02 11.01,132.83 -1.9,14.3 -7.94,32.27 -13.08,44.72 -2.89,7.07 -5.65,12.68 -9.36,19.75l-7.66 13.34c-0.17,0.25 -0.45,0.65 -0.65,0.88 -0.17,0.23 -0.48,0.6 -0.65,0.79 -3.04,3.55 -0.62,0.94 -2.04,1.93 -4.45,11.01 -23.78,31.64 -33.17,36.75 -3.58,8.51 -74.72,55.19 -113.14,25.26l-0.54 -36.75c19.3,7.12 21.45,12.51 53.04,6.84 57.63,-19.35 62.46,-40.18 78.23,-50.46 1.16,-6.81 1.67,-3.35 8.31,-13.65 7.21,-11.18 18.42,-34.85 19.44,-47.53 0.45,-3.01 0.68,-6.07 1.25,-8.8 0.06,-0.31 1.11,-4.17 1.16,-4.23 1.67,-3.63 0.25,-1.02 2.72,-3.77 -1.22,-3.01 -0.82,-43.08 -1.67,-51.3 -1.73,-16.88 -4.17,-30.36 -8.26,-46.62 -1.36,-2.3 -0.14,2.18 -2.02,-3.92 -0.82,-2.64 -0.48,-2.3 -0.94,-4.88 -1.39,-5.9 -4.45,-12.37 -7.04,-17.91 -1.45,-3.12 -2.84,-5.79 -4.37,-8.48 -3.06,-5.39 -3.06,-3.72 -3.77,-8.63l-29.82 -29.4c-7.63,-1.14 -55.53,-34.51 -95.91,3.06 -3.89,3.63 -4.74,6.64 -10.16,8.74l-0.11 -41.35c15.21,-5.05 47.25,-6.58 64.87,-3.77 12.94,2.07 45.15,10.56 49.4,19.55l-0.03 0.03zm-603.73 -96.8c25.51,-50.88 454.46,-49.97 477.16,0 -25.94,50.46 -453.5,50.09 -477.16,0zm78.8 -39.73c-3.04,4.17 -14.42,4.23 -19.92,4.88l-8.97 0.88 -13.28 4.17 -6.22 0.51c-1.62,1.22 0.96,0.4 -4.6,2.72 -1.7,0.71 -3.69,1.08 -5.39,1.59 -9.71,0.85 -24.46,10.13 -28.66,15.86 -6.78,9.25 -4.06,27.04 -4.06,39.73l0 443.28c0,31.78 -4.91,61.98 10.73,78.21 8,8.31 14.36,12.88 26.19,18.93 7.61,3.89 22.19,11.01 30.48,12.32l8.6 3.09 49.21 11.55c3.09,0.28 6.7,0.4 9.31,0.85 0.57,0.11 3.83,0.85 4.23,0.99 5.82,2.18 0.62,-0.06 3.46,2.02 13.85,-0.62 42.31,4.14 58.94,5.34 36.12,2.58 86.41,1.79 122.65,-1.76 13.56,-1.33 45.06,-7.38 55.82,-6.64 5.82,-4.51 26.36,-6.64 34.99,-9 22.87,-6.27 59.28,-19.01 75.06,-35.87 2.58,-2.78 3.26,-3.83 4.97,-6.27 0.08,-0.11 1.93,-2.89 2.02,-2.98l3.69 -3.89c-0.43,-5.19 1.42,-13.22 1.45,-20.12l0.11 -65.89c8.51,1.14 15.61,5.51 27.07,6.1 27.07,1.39 54.43,-9.42 75.45,-22.82 83.15,-52.98 110.42,-166.29 84.05,-260.64 -1.93,-6.92 -7.41,-18.16 -7.44,-24.06l-6.55 -10.3c-8.17,-15.72 -16.66,-22.73 -21.99,-32.35 -2.7,-0.23 -1.85,0.65 -2.02,-2.24 -5.73,-2.55 -3.01,-1.25 -7.83,-6.13 -2.95,-3.01 -4.51,-3.86 -7.92,-6.61 -4.6,-3.72 -11.95,-8.2 -14.93,-12.83 -7.18,-0.74 -16.63,-7.26 -24.8,-10.13 -40.04,-13.93 -59.25,-6.27 -92.82,-4.03 -2.02,-17.48 3.09,-63.62 -3.29,-75.68 -6.19,-11.61 -35.24,-23.16 -53.32,-24.97l-13.85 -3.89 -18.96 -2.04c-4.43,-0.34 -8.57,-1.25 -13.14,-1.76 -1.93,-0.23 -4.06,-0.25 -5.99,-0.74 -8.31,-2.13 -1.42,0.25 -4.6,-2.38 -11.75,0.96 -25.28,-1.82 -36.92,-2.81 -57.63,-4.88 -133.37,-5.02 -190.58,-0.91 -19.13,1.39 -54.37,7.52 -70.35,6.73l-0.09 0z"/>
   </g>
   <g>
    <path class="fil0 str0" d="M1149.07 71.25l-32.8 4.23c-18.02,-1.73 -51.93,2.1 -72.53,2.58 -25.2,0.57 -50.57,0.48 -75.77,-0.14 -24.55,-0.62 -48.13,-1.87 -72.56,-3.63 -21.96,-1.59 -45.55,-6.55 -65.55,-7.44l-13.39 -3.92c-7.8,-0.4 -19.64,-4.34 -23.61,-9.11 25.4,-32.92 386.39,-30.85 428.38,-3.41 5.59,3.66 0.94,0 3.66,3.41 -8.94,11.12 -65.72,17.99 -75.82,17.45l0 -0.03zm29.09 -39.84l-13.62 -1.7c-0.37,-0.11 -1.14,0 -1.42,-0.6 -0.28,-0.62 -0.96,-0.45 -1.45,-0.68 -13.45,-0.31 -31.61,-3.18 -45.6,-4.14 -77.07,-5.45 -223.22,-5.65 -296.54,10.19 -14.08,3.04 -30.08,6.47 -35.64,17.74 -5.87,34.2 212.01,34.56 224.35,34.56 53.12,0.08 129.09,-2.64 181.93,-12.2 16.23,-2.92 41.86,-5.93 43.96,-22.36 -2.1,-12.85 -44.44,-20.66 -55.99,-20.8l0.03 0z"/>
    <path id="_1_0" class="fil1" d="M1149.07 71.25l-32.8 4.23c-18.02,-1.73 -51.93,2.1 -72.53,2.58 -25.2,0.57 -50.57,0.48 -75.77,-0.14 -24.55,-0.62 -48.13,-1.87 -72.56,-3.63 -21.96,-1.59 -45.55,-6.55 -65.55,-7.44l-13.39 -3.92c-7.8,-0.4 -19.64,-4.34 -23.61,-9.11 25.4,-32.92 386.39,-30.85 428.38,-3.41 5.59,3.66 0.94,0 3.66,3.41 -8.94,11.12 -65.72,17.99 -75.82,17.45l0 -0.03zm29.09 -39.84l-13.62 -1.7c-0.37,-0.11 -1.14,0 -1.42,-0.6 -0.28,-0.62 -0.96,-0.45 -1.45,-0.68 -13.45,-0.31 -31.61,-3.18 -45.6,-4.14 -77.07,-5.45 -223.22,-5.65 -296.54,10.19 -14.08,3.04 -30.08,6.47 -35.64,17.74 -5.87,34.2 212.01,34.56 224.35,34.56 53.12,0.08 129.09,-2.64 181.93,-12.2 16.23,-2.92 41.86,-5.93 43.96,-22.36 -2.1,-12.85 -44.44,-20.66 -55.99,-20.8l0.03 0z"/>
   </g>
  </g>
  <g id="_2254593239712">
   <g>
    <path class="fil0 str0" d="M215.29 590.59c8.88,22.02 60.02,41.18 91.32,45.55 10.93,5.39 71,11.95 89.5,13.08 16.57,1.02 32.8,1.76 49.92,1.87 15.81,0.11 37.66,-1.87 52.16,-0.77 5.56,0.06 10.02,-0.48 15.52,-0.77l8.29 -0.54c3.43,-0.82 3.83,-1.39 4.51,-1.7l32.1 -3.01c3.46,-0.25 5.76,-0.6 9.22,-1.14 1.53,-0.25 2.55,-0.23 4.06,-0.65 5.62,-1.65 3.09,-1.14 4.82,-2.5 12.32,-0.06 61.01,-13.56 67,-18.13 10.27,-2.84 24.46,-8.51 29.17,-16.12l1.22 -0.51c5.73,-2.04 2.58,0 7.38,-4.85 0.37,-0.37 2.33,-2.47 2.35,-2.47 2.35,-3.06 1.14,-0.99 2.81,-4.91 9.34,-7.94 4.63,-43.36 4.63,-58.86 0.17,-153.98 -1.19,-310.11 0,-463.48 -15.92,4.57 -16.32,9.14 -50.71,16.6 -19.41,4.2 -38.57,6.92 -58.86,9.22 -78.66,8.91 -180.08,9 -258.8,0.14 -20.09,-2.27 -39.67,-4.94 -58.86,-9.14 -34.82,-7.66 -34.05,-11.49 -51.82,-16.46l-0.03 392.2c0.03,16.97 -3.63,122.7 3.09,127.36l-0 -0.03zm-163.99 -244.53c0.34,2.84 -0.2,2.27 0.57,5.02 2.53,9.22 -0.11,1.05 2.38,4.99 9.82,45.15 53.58,85.73 96.11,96.65 19.07,4.88 40.98,1.96 48.72,-12.29 3.92,-7.21 1.79,-161.75 1.79,-191.57 0,-16.2 5.11,-51.76 -6.47,-58.66 -2.95,-7.92 -15.07,-19.27 -24.66,-22.56 -9.9,-10.1 -36.72,-6.67 -51.16,-1.28 -12.85,4.77 -33.71,18.16 -36.46,27.1 -3.15,2.07 -1.22,0.25 -4.12,3.38 -0.74,0.79 -2.04,2.67 -2.75,3.69 -2.75,4.03 -3.46,5.48 -5.31,10.44 -8.03,7.52 -16.43,44.87 -18.67,60.39 -4.12,28.38 -3.24,46.62 0,74.74l0.03 -0.06zm35.24 -195.46c-11.58,5.11 -35.98,28.69 -41.77,41.83 -4.23,2.47 -11.66,18.64 -13.2,25.14 -15.07,18.56 -19.61,105.02 -11.01,132.83 1.9,14.3 7.94,32.27 13.08,44.72 2.89,7.07 5.65,12.68 9.36,19.75l7.66 13.34c0.17,0.25 0.45,0.65 0.65,0.88 0.17,0.23 0.48,0.6 0.65,0.79 3.04,3.55 0.62,0.94 2.04,1.93 4.45,11.01 23.78,31.64 33.17,36.75 3.58,8.51 74.72,55.19 113.14,25.26l0.54 -36.75c-19.3,7.12 -21.45,12.51 -53.04,6.84 -57.63,-19.35 -62.46,-40.18 -78.23,-50.46 -1.16,-6.81 -1.67,-3.35 -8.31,-13.65 -7.21,-11.18 -18.42,-34.85 -19.44,-47.53 -0.45,-3.01 -0.68,-6.07 -1.25,-8.8 -0.06,-0.31 -1.11,-4.17 -1.16,-4.23 -1.67,-3.63 -0.25,-1.02 -2.72,-3.77 1.22,-3.01 0.82,-43.08 1.67,-51.3 1.73,-16.88 4.17,-30.36 8.26,-46.62 1.36,-2.3 0.14,2.18 2.02,-3.92 0.82,-2.64 0.48,-2.3 0.94,-4.88 1.39,-5.9 4.45,-12.37 7.04,-17.91 1.45,-3.12 2.84,-5.79 4.37,-8.48 3.06,-5.39 3.06,-3.72 3.77,-8.63l29.82 -29.4c7.63,-1.14 55.53,-34.51 95.91,3.06 3.89,3.63 4.74,6.64 10.16,8.74l0.11 -41.35c-15.21,-5.05 -47.25,-6.58 -64.87,-3.77 -12.94,2.07 -45.15,10.56 -49.4,19.55l0.03 0.03zm603.73 -96.8c-25.51,-50.88 -454.46,-49.97 -477.16,0 25.94,50.46 453.5,50.09 477.16,0zm-78.8 -39.73c3.04,4.17 14.42,4.23 19.92,4.88l8.97 0.88 13.28 4.17 6.22 0.51c1.62,1.22 -0.96,0.4 4.6,2.72 1.7,0.71 3.69,1.08 5.39,1.59 9.71,0.85 24.46,10.13 28.66,15.86 6.78,9.25 4.06,27.04 4.06,39.73l0 443.28c0,31.78 4.91,61.98 -10.73,78.21 -8,8.31 -14.36,12.88 -26.19,18.93 -7.61,3.89 -22.19,11.01 -30.48,12.32l-8.6 3.09 -49.21 11.55c-3.09,0.28 -6.7,0.4 -9.31,0.85 -0.57,0.11 -3.83,0.85 -4.23,0.99 -5.82,2.18 -0.62,-0.06 -3.46,2.02 -13.85,-0.62 -42.31,4.14 -58.94,5.34 -36.12,2.58 -86.41,1.79 -122.65,-1.76 -13.56,-1.33 -45.06,-7.38 -55.82,-6.64 -5.82,-4.51 -26.36,-6.64 -34.99,-9 -22.87,-6.27 -59.28,-19.01 -75.06,-35.87 -2.58,-2.78 -3.26,-3.83 -4.97,-6.27 -0.08,-0.11 -1.93,-2.89 -2.02,-2.98l-3.69 -3.89c0.43,-5.19 -1.42,-13.22 -1.45,-20.12l-0.11 -65.89c-8.51,1.14 -15.61,5.51 -27.07,6.1 -27.07,1.39 -54.43,-9.42 -75.45,-22.82 -83.15,-52.98 -110.42,-166.29 -84.05,-260.64 1.93,-6.92 7.41,-18.16 7.44,-24.06l6.55 -10.3c8.17,-15.72 16.66,-22.73 21.99,-32.35 2.7,-0.23 1.85,0.65 2.02,-2.24 5.73,-2.55 3.01,-1.25 7.83,-6.13 2.95,-3.01 4.51,-3.86 7.92,-6.61 4.6,-3.72 11.95,-8.2 14.93,-12.83 7.18,-0.74 16.63,-7.26 24.8,-10.13 40.04,-13.93 59.25,-6.27 92.82,-4.03 2.02,-17.48 -3.09,-63.62 3.29,-75.68 6.19,-11.61 35.24,-23.16 53.32,-24.97l13.85 -3.89 18.96 -2.04c4.43,-0.34 8.57,-1.25 13.14,-1.76 1.93,-0.23 4.06,-0.25 5.99,-0.74 8.31,-2.13 1.42,0.25 4.6,-2.38 11.75,0.96 25.28,-1.82 36.92,-2.81 57.63,-4.88 133.37,-5.02 190.58,-0.91 19.13,1.39 54.37,7.52 70.35,6.73l0.09 0z"/>
    <path id="_1_1" class="fil1" d="M215.29 590.59c8.88,22.02 60.02,41.18 91.32,45.55 10.93,5.39 71,11.95 89.5,13.08 16.57,1.02 32.8,1.76 49.92,1.87 15.81,0.11 37.66,-1.87 52.16,-0.77 5.56,0.06 10.02,-0.48 15.52,-0.77l8.29 -0.54c3.43,-0.82 3.83,-1.39 4.51,-1.7l32.1 -3.01c3.46,-0.25 5.76,-0.6 9.22,-1.14 1.53,-0.25 2.55,-0.23 4.06,-0.65 5.62,-1.65 3.09,-1.14 4.82,-2.5 12.32,-0.06 61.01,-13.56 67,-18.13 10.27,-2.84 24.46,-8.51 29.17,-16.12l1.22 -0.51c5.73,-2.04 2.58,0 7.38,-4.85 0.37,-0.37 2.33,-2.47 2.35,-2.47 2.35,-3.06 1.14,-0.99 2.81,-4.91 9.34,-7.94 4.63,-43.36 4.63,-58.86 0.17,-153.98 -1.19,-310.11 0,-463.48 -15.92,4.57 -16.32,9.14 -50.71,16.6 -19.41,4.2 -38.57,6.92 -58.86,9.22 -78.66,8.91 -180.08,9 -258.8,0.14 -20.09,-2.27 -39.67,-4.94 -58.86,-9.14 -34.82,-7.66 -34.05,-11.49 -51.82,-16.46l-0.03 392.2c0.03,16.97 -3.63,122.7 3.09,127.36l-0 -0.03zm-163.99 -244.53c0.34,2.84 -0.2,2.27 0.57,5.02 2.53,9.22 -0.11,1.05 2.38,4.99 9.82,45.15 53.58,85.73 96.11,96.65 19.07,4.88 40.98,1.96 48.72,-12.29 3.92,-7.21 1.79,-161.75 1.79,-191.57 0,-16.2 5.11,-51.76 -6.47,-58.66 -2.95,-7.92 -15.07,-19.27 -24.66,-22.56 -9.9,-10.1 -36.72,-6.67 -51.16,-1.28 -12.85,4.77 -33.71,18.16 -36.46,27.1 -3.15,2.07 -1.22,0.25 -4.12,3.38 -0.74,0.79 -2.04,2.67 -2.75,3.69 -2.75,4.03 -3.46,5.48 -5.31,10.44 -8.03,7.52 -16.43,44.87 -18.67,60.39 -4.12,28.38 -3.24,46.62 0,74.74l0.03 -0.06zm35.24 -195.46c-11.58,5.11 -35.98,28.69 -41.77,41.83 -4.23,2.47 -11.66,18.64 -13.2,25.14 -15.07,18.56 -19.61,105.02 -11.01,132.83 1.9,14.3 7.94,32.27 13.08,44.72 2.89,7.07 5.65,12.68 9.36,19.75l7.66 13.34c0.17,0.25 0.45,0.65 0.65,0.88 0.17,0.23 0.48,0.6 0.65,0.79 3.04,3.55 0.62,0.94 2.04,1.93 4.45,11.01 23.78,31.64 33.17,36.75 3.58,8.51 74.72,55.19 113.14,25.26l0.54 -36.75c-19.3,7.12 -21.45,12.51 -53.04,6.84 -57.63,-19.35 -62.46,-40.18 -78.23,-50.46 -1.16,-6.81 -1.67,-3.35 -8.31,-13.65 -7.21,-11.18 -18.42,-34.85 -19.44,-47.53 -0.45,-3.01 -0.68,-6.07 -1.25,-8.8 -0.06,-0.31 -1.11,-4.17 -1.16,-4.23 -1.67,-3.63 -0.25,-1.02 -2.72,-3.77 1.22,-3.01 0.82,-43.08 1.67,-51.3 1.73,-16.88 4.17,-30.36 8.26,-46.62 1.36,-2.3 0.14,2.18 2.02,-3.92 0.82,-2.64 0.48,-2.3 0.94,-4.88 1.39,-5.9 4.45,-12.37 7.04,-17.91 1.45,-3.12 2.84,-5.79 4.37,-8.48 3.06,-5.39 3.06,-3.72 3.77,-8.63l29.82 -29.4c7.63,-1.14 55.53,-34.51 95.91,3.06 3.89,3.63 4.74,6.64 10.16,8.74l0.11 -41.35c-15.21,-5.05 -47.25,-6.58 -64.87,-3.77 -12.94,2.07 -45.15,10.56 -49.4,19.55l0.03 0.03zm603.73 -96.8c-25.51,-50.88 -454.46,-49.97 -477.16,0 25.94,50.46 453.5,50.09 477.16,0zm-78.8 -39.73c3.04,4.17 14.42,4.23 19.92,4.88l8.97 0.88 13.28 4.17 6.22 0.51c1.62,1.22 -0.96,0.4 4.6,2.72 1.7,0.71 3.69,1.08 5.39,1.59 9.71,0.85 24.46,10.13 28.66,15.86 6.78,9.25 4.06,27.04 4.06,39.73l0 443.28c0,31.78 4.91,61.98 -10.73,78.21 -8,8.31 -14.36,12.88 -26.19,18.93 -7.61,3.89 -22.19,11.01 -30.48,12.32l-8.6 3.09 -49.21 11.55c-3.09,0.28 -6.7,0.4 -9.31,0.85 -0.57,0.11 -3.83,0.85 -4.23,0.99 -5.82,2.18 -0.62,-0.06 -3.46,2.02 -13.85,-0.62 -42.31,4.14 -58.94,5.34 -36.12,2.58 -86.41,1.79 -122.65,-1.76 -13.56,-1.33 -45.06,-7.38 -55.82,-6.64 -5.82,-4.51 -26.36,-6.64 -34.99,-9 -22.87,-6.27 -59.28,-19.01 -75.06,-35.87 -2.58,-2.78 -3.26,-3.83 -4.97,-6.27 -0.08,-0.11 -1.93,-2.89 -2.02,-2.98l-3.69 -3.89c0.43,-5.19 -1.42,-13.22 -1.45,-20.12l-0.11 -65.89c-8.51,1.14 -15.61,5.51 -27.07,6.1 -27.07,1.39 -54.43,-9.42 -75.45,-22.82 -83.15,-52.98 -110.42,-166.29 -84.05,-260.64 1.93,-6.92 7.41,-18.16 7.44,-24.06l6.55 -10.3c8.17,-15.72 16.66,-22.73 21.99,-32.35 2.7,-0.23 1.85,0.65 2.02,-2.24 5.73,-2.55 3.01,-1.25 7.83,-6.13 2.95,-3.01 4.51,-3.86 7.92,-6.61 4.6,-3.72 11.95,-8.2 14.93,-12.83 7.18,-0.74 16.63,-7.26 24.8,-10.13 40.04,-13.93 59.25,-6.27 92.82,-4.03 2.02,-17.48 -3.09,-63.62 3.29,-75.68 6.19,-11.61 35.24,-23.16 53.32,-24.97l13.85 -3.89 18.96 -2.04c4.43,-0.34 8.57,-1.25 13.14,-1.76 1.93,-0.23 4.06,-0.25 5.99,-0.74 8.31,-2.13 1.42,0.25 4.6,-2.38 11.75,0.96 25.28,-1.82 36.92,-2.81 57.63,-4.88 133.37,-5.02 190.58,-0.91 19.13,1.39 54.37,7.52 70.35,6.73l0.09 0z"/>
   </g>
   <g>
    <path class="fil0 str0" d="M311.66 71.25l32.8 4.23c18.02,-1.73 51.93,2.1 72.53,2.58 25.2,0.57 50.57,0.48 75.77,-0.14 24.55,-0.62 48.13,-1.87 72.56,-3.63 21.96,-1.59 45.55,-6.55 65.55,-7.44l13.39 -3.92c7.8,-0.4 19.64,-4.34 23.61,-9.11 -25.4,-32.92 -386.39,-30.85 -428.38,-3.41 -5.59,3.66 -0.94,0 -3.66,3.41 8.94,11.12 65.72,17.99 75.82,17.45l0 -0.03zm-29.09 -39.84l13.62 -1.7c0.37,-0.11 1.14,0 1.42,-0.6 0.28,-0.62 0.96,-0.45 1.45,-0.68 13.45,-0.31 31.61,-3.18 45.6,-4.14 77.07,-5.45 223.22,-5.65 296.54,10.19 14.08,3.04 30.08,6.47 35.64,17.74 5.87,34.2 -212.01,34.56 -224.35,34.56 -53.12,0.08 -129.09,-2.64 -181.93,-12.2 -16.23,-2.92 -41.86,-5.93 -43.96,-22.36 2.1,-12.85 44.44,-20.66 55.99,-20.8l-0.03 0z"/>
    <path id="_1_2" class="fil1" d="M311.66 71.25l32.8 4.23c18.02,-1.73 51.93,2.1 72.53,2.58 25.2,0.57 50.57,0.48 75.77,-0.14 24.55,-0.62 48.13,-1.87 72.56,-3.63 21.96,-1.59 45.55,-6.55 65.55,-7.44l13.39 -3.92c7.8,-0.4 19.64,-4.34 23.61,-9.11 -25.4,-32.92 -386.39,-30.85 -428.38,-3.41 -5.59,3.66 -0.94,0 -3.66,3.41 8.94,11.12 65.72,17.99 75.82,17.45l0 -0.03zm-29.09 -39.84l13.62 -1.7c0.37,-0.11 1.14,0 1.42,-0.6 0.28,-0.62 0.96,-0.45 1.45,-0.68 13.45,-0.31 31.61,-3.18 45.6,-4.14 77.07,-5.45 223.22,-5.65 296.54,10.19 14.08,3.04 30.08,6.47 35.64,17.74 5.87,34.2 -212.01,34.56 -224.35,34.56 -53.12,0.08 -129.09,-2.64 -181.93,-12.2 -16.23,-2.92 -41.86,-5.93 -43.96,-22.36 2.1,-12.85 44.44,-20.66 55.99,-20.8l-0.03 0z"/>
   </g>
  </g>
 </g>
</svg>
